SplineFontDB: 3.0
FontName: Rochester-Regular
FullName: Rochester
FamilyName: Rochester
Weight: Regular
Copyright: Copyright (c) 2010 by Font Diner, Inc DBA Sideshow. All rights reserved. Available under the Apache 2.0 licence.\nhttp://www.apache.org/licenses/LICENSE-2.0.html
Version: 1.005
ItalicAngle: 0
UnderlinePosition: -103
UnderlineWidth: 102
Ascent: 1638
Descent: 410
sfntRevision: 0x00010148
LayerCount: 2
Layer: 0 1 "Back"  1
Layer: 1 1 "Fore"  0
XUID: [1021 288 713564382 15403072]
FSType: 0
OS2Version: 3
OS2_WeightWidthSlopeOnly: 0
OS2_UseTypoMetrics: 1
CreationTime: 1311221100
ModificationTime: 1312213523
PfmFamily: 17
TTFWeight: 400
TTFWidth: 5
LineGap: 0
VLineGap: 0
Panose: 2 0 5 4 0 0 0 2 0 2
OS2TypoAscent: 471
OS2TypoAOffset: 1
OS2TypoDescent: -118
OS2TypoDOffset: 1
OS2TypoLinegap: 0
OS2WinAscent: 0
OS2WinAOffset: 1
OS2WinDescent: 0
OS2WinDOffset: 1
HheadAscent: 0
HheadAOffset: 1
HheadDescent: 0
HheadDOffset: 1
OS2SubXSize: 1434
OS2SubYSize: 1331
OS2SubXOff: 0
OS2SubYOff: 287
OS2SupXSize: 1434
OS2SupYSize: 1331
OS2SupXOff: 0
OS2SupYOff: 977
OS2StrikeYSize: 102
OS2StrikeYPos: 512
OS2Vendor: 'DINR'
OS2CodePages: 00000001.00000000
OS2UnicodeRanges: 80000027.4000004a.00000000.00000000
MarkAttachClasses: 1
DEI: 91125
TtTable: prep
PUSHW_1
 511
SCANCTRL
PUSHB_1
 4
SCANTYPE
EndTTInstrs
ShortTable: maxp 16
  1
  0
  230
  220
  6
  178
  5
  2
  0
  1
  1
  0
  64
  0
  3
  1
EndShort
LangName: 1033 "" "" "Regular" "" "" "Version 1.005" "" "Rochester is a trademark of Font Diner, Inc DBA Sideshow" "Font Diner, Inc DBA Sideshow" "Gillian Fisher" "Copyright (c) 2010 by Font Diner, Inc DBA Sideshow. All rights reserved. Available under the Apache 2.0 licence.+AA0A-http://www.apache.org/licenses/LICENSE-2.0.html" "http://www.fontbros.com/sideshow.php" "http://gillographic.com/" "Licensed under the Apache License, Version 2.0" "http://www.apache.org/licenses/LICENSE-2.0" "" "Rochester" "Regular" "Rochester" 
GaspTable: 1 65535 3
Encoding: UnicodeBmp

StartChar: exclam
Encoding: 33 33 4
Width: 430
Flags: W
LayerCount: 2
Fore
SplineSet
123 92 m 256,0,1
 123 111 123 111 130 128 c 128,-1,2
 137 145 137 145 149 157.5 c 128,-1,3
 161 170 161 170 178 177 c 128,-1,4
 195 184 195 184 215 184 c 0,5,6
 234 184 234 184 251 177 c 128,-1,7
 268 170 268 170 280.5 157.5 c 128,-1,8
 293 145 293 145 300 128 c 128,-1,9
 307 111 307 111 307 92 c 256,10,11
 307 73 307 73 300 56 c 128,-1,12
 293 39 293 39 280.5 26.5 c 128,-1,13
 268 14 268 14 251 7 c 128,-1,14
 234 0 234 0 215 0 c 256,15,16
 196 0 196 0 179 7 c 128,-1,17
 162 14 162 14 149.5 26.5 c 128,-1,18
 137 39 137 39 130 56 c 128,-1,19
 123 73 123 73 123 92 c 256,0,1
195 1374 m 0,20,21
 196 1390 196 1390 207 1402 c 128,-1,22
 218 1414 218 1414 232.5 1422 c 128,-1,23
 247 1430 247 1430 262.5 1434 c 128,-1,24
 278 1438 278 1438 287 1438 c 0,25,26
 305 1438 305 1438 316.5 1430.5 c 128,-1,27
 328 1423 328 1423 328 1389 c 0,28,29
 328 1360 328 1360 324.5 1307 c 128,-1,30
 321 1254 321 1254 315.5 1184.5 c 128,-1,31
 310 1115 310 1115 303 1034.5 c 128,-1,32
 296 954 296 954 288.5 870.5 c 128,-1,33
 281 787 281 787 273.5 705.5 c 128,-1,34
 266 624 266 624 260.5 553 c 128,-1,35
 255 482 255 482 251 426 c 128,-1,36
 247 370 247 370 246 338 c 1,37,-1
 195 340 l 1,38,39
 195 499 195 499 192.5 657 c 128,-1,40
 190 815 190 815 190 977 c 0,41,42
 190 1076 190 1076 190.5 1174 c 128,-1,43
 191 1272 191 1272 195 1374 c 0,20,21
EndSplineSet
EndChar

StartChar: quotedbl
Encoding: 34 34 5
Width: 410
Flags: W
LayerCount: 2
Fore
SplineSet
82 1403 m 1,0,-1
 174 1403 l 1,1,-1
 174 1075 l 1,2,-1
 113 1075 l 1,3,-1
 82 1403 l 1,0,-1
297 1075 m 1,4,-1
 236 1075 l 1,5,-1
 236 1403 l 1,6,-1
 328 1403 l 1,7,-1
 297 1075 l 1,4,-1
EndSplineSet
EndChar

StartChar: numbersign
Encoding: 35 35 6
Width: 942
Flags: W
LayerCount: 2
Fore
SplineSet
799 696 m 0,0,1
 808 696 808 696 813.5 680 c 128,-1,2
 819 664 819 664 819 647 c 256,3,4
 819 630 819 630 811.5 625.5 c 128,-1,5
 804 621 804 621 795 621 c 0,6,7
 779 621 779 621 733.5 622 c 128,-1,8
 688 623 688 623 612 623 c 1,9,10
 612 579 612 579 612 549.5 c 128,-1,11
 612 520 612 520 612 500 c 128,-1,12
 612 480 612 480 612.5 466 c 128,-1,13
 613 452 613 452 614 440 c 0,14,15
 614 429 614 429 597.5 424.5 c 128,-1,16
 581 420 581 420 565 420 c 0,17,18
 548 420 548 420 543.5 427.5 c 128,-1,19
 539 435 539 435 539 444 c 0,20,21
 539 460 539 460 540 505 c 128,-1,22
 541 550 541 550 541 623 c 1,23,24
 494 625 494 625 447.5 625 c 128,-1,25
 401 625 401 625 356 625 c 1,26,27
 356 580 356 580 356 550.5 c 128,-1,28
 356 521 356 521 356 500.5 c 128,-1,29
 356 480 356 480 356.5 466 c 128,-1,30
 357 452 357 452 358 440 c 0,31,32
 358 429 358 429 341.5 424.5 c 128,-1,33
 325 420 325 420 309 420 c 0,34,35
 292 420 292 420 287.5 427.5 c 128,-1,36
 283 435 283 435 283 444 c 0,37,38
 283 460 283 460 284 505.5 c 128,-1,39
 285 551 285 551 285 627 c 1,40,41
 241 627 241 627 211.5 627 c 128,-1,42
 182 627 182 627 162 627 c 128,-1,43
 142 627 142 627 128 626.5 c 128,-1,44
 114 626 114 626 102 625 c 0,45,46
 91 625 91 625 86.5 641.5 c 128,-1,47
 82 658 82 658 82 674 c 0,48,49
 82 691 82 691 89.5 695.5 c 128,-1,50
 97 700 97 700 106 700 c 0,51,52
 122 700 122 700 167 699 c 128,-1,53
 212 698 212 698 285 698 c 1,54,55
 287 743 287 743 287 789.5 c 128,-1,56
 287 836 287 836 287 883 c 1,57,58
 242 883 242 883 212.5 883 c 128,-1,59
 183 883 183 883 162.5 883 c 128,-1,60
 142 883 142 883 128 882.5 c 128,-1,61
 114 882 114 882 102 881 c 0,62,63
 91 881 91 881 86.5 897.5 c 128,-1,64
 82 914 82 914 82 930 c 0,65,66
 82 947 82 947 89.5 951.5 c 128,-1,67
 97 956 97 956 106 956 c 0,68,69
 122 956 122 956 167.5 955 c 128,-1,70
 213 954 213 954 289 954 c 1,71,72
 289 997 289 997 289 1026.5 c 128,-1,73
 289 1056 289 1056 289 1076.5 c 128,-1,74
 289 1097 289 1097 288.5 1111 c 128,-1,75
 288 1125 288 1125 287 1137 c 0,76,77
 287 1146 287 1146 303 1151.5 c 128,-1,78
 319 1157 319 1157 336 1157 c 256,79,80
 353 1157 353 1157 357.5 1149.5 c 128,-1,81
 362 1142 362 1142 362 1133 c 0,82,83
 362 1117 362 1117 361 1072 c 128,-1,84
 360 1027 360 1027 360 952 c 1,85,86
 405 952 405 952 451.5 952 c 128,-1,87
 498 952 498 952 545 950 c 1,88,89
 545 995 545 995 545 1025 c 128,-1,90
 545 1055 545 1055 545 1076 c 128,-1,91
 545 1097 545 1097 544.5 1111 c 128,-1,92
 544 1125 544 1125 543 1137 c 0,93,94
 543 1146 543 1146 559 1151.5 c 128,-1,95
 575 1157 575 1157 592 1157 c 256,96,97
 609 1157 609 1157 613.5 1149.5 c 128,-1,98
 618 1142 618 1142 618 1133 c 0,99,100
 618 1117 618 1117 617 1071.5 c 128,-1,101
 616 1026 616 1026 616 950 c 1,102,103
 659 950 659 950 688.5 950 c 128,-1,104
 718 950 718 950 738.5 950 c 128,-1,105
 759 950 759 950 773 950.5 c 128,-1,106
 787 951 787 951 799 952 c 0,107,108
 808 952 808 952 813.5 936 c 128,-1,109
 819 920 819 920 819 903 c 256,110,111
 819 886 819 886 811.5 881.5 c 128,-1,112
 804 877 804 877 795 877 c 0,113,114
 779 877 779 877 734 878 c 128,-1,115
 689 879 689 879 614 879 c 1,116,117
 614 832 614 832 614 785.5 c 128,-1,118
 614 739 614 739 612 694 c 1,119,120
 657 694 657 694 687 694 c 128,-1,121
 717 694 717 694 738 694 c 128,-1,122
 759 694 759 694 773 694.5 c 128,-1,123
 787 695 787 695 799 696 c 0,0,1
358 881 m 1,124,125
 358 836 358 836 358 789.5 c 128,-1,126
 358 743 358 743 356 696 c 1,127,128
 403 696 403 696 449.5 696 c 128,-1,129
 496 696 496 696 541 694 c 1,130,131
 543 741 543 741 543 787.5 c 128,-1,132
 543 834 543 834 543 879 c 1,133,134
 498 881 498 881 451.5 881 c 128,-1,135
 405 881 405 881 358 881 c 1,124,125
EndSplineSet
EndChar

StartChar: dollar
Encoding: 36 36 7
Width: 1034
Flags: W
LayerCount: 2
Fore
SplineSet
471 213 m 1,0,1
 399 218 399 218 334 241.5 c 128,-1,2
 269 265 269 265 220 301 c 128,-1,3
 171 337 171 337 142 382.5 c 128,-1,4
 113 428 113 428 113 479 c 0,5,6
 113 507 113 507 121.5 532 c 128,-1,7
 130 557 130 557 143.5 578 c 128,-1,8
 157 599 157 599 175 617 c 128,-1,9
 193 635 193 635 211 650 c 0,10,11
 254 684 254 684 309 709 c 1,12,-1
 332 662 l 1,13,14
 307 643 307 643 289 617 c 0,15,16
 272 594 272 594 259 561 c 128,-1,17
 246 528 246 528 246 485 c 0,18,19
 246 444 246 444 260.5 407 c 128,-1,20
 275 370 275 370 303.5 340.5 c 128,-1,21
 332 311 332 311 374 291 c 128,-1,22
 416 271 416 271 471 264 c 1,23,-1
 471 782 l 1,24,25
 412 813 412 813 355 846.5 c 128,-1,26
 298 880 298 880 253.5 921 c 128,-1,27
 209 962 209 962 181.5 1014 c 128,-1,28
 154 1066 154 1066 154 1133 c 0,29,30
 154 1213 154 1213 180 1274 c 128,-1,31
 206 1335 206 1335 249.5 1378.5 c 128,-1,32
 293 1422 293 1422 350.5 1448.5 c 128,-1,33
 408 1475 408 1475 471 1487 c 1,34,-1
 471 1622 l 1,35,-1
 532 1622 l 1,36,-1
 532 1493 l 1,37,38
 539 1495 539 1495 545 1495 c 128,-1,39
 551 1495 551 1495 559 1495 c 0,40,41
 617 1494 617 1494 671.5 1480 c 128,-1,42
 726 1466 726 1466 768 1438.5 c 128,-1,43
 810 1411 810 1411 835 1370.5 c 128,-1,44
 860 1330 860 1330 860 1276 c 0,45,46
 860 1244 860 1244 851 1216.5 c 128,-1,47
 842 1189 842 1189 828 1165.5 c 128,-1,48
 814 1142 814 1142 795.5 1123 c 128,-1,49
 777 1104 777 1104 758 1089 c 0,50,51
 713 1054 713 1054 657 1030 c 1,52,-1
 621 1069 l 1,53,54
 650 1094 650 1094 674 1126 c 0,55,56
 694 1153 694 1153 710.5 1189 c 128,-1,57
 727 1225 727 1225 727 1270 c 0,58,59
 727 1320 727 1320 711.5 1354.5 c 128,-1,60
 696 1389 696 1389 669 1411 c 128,-1,61
 642 1433 642 1433 606.5 1442.5 c 128,-1,62
 571 1452 571 1452 532 1452 c 1,63,-1
 532 924 l 1,64,65
 599 888 599 888 666.5 852 c 128,-1,66
 734 816 734 816 788.5 772.5 c 128,-1,67
 843 729 843 729 877 674 c 128,-1,68
 911 619 911 619 911 543 c 0,69,70
 911 480 911 480 886 421 c 128,-1,71
 861 362 861 362 812.5 316 c 128,-1,72
 764 270 764 270 693.5 241.5 c 128,-1,73
 623 213 623 213 532 211 c 1,74,-1
 532 0 l 1,75,-1
 471 0 l 1,76,-1
 471 213 l 1,0,1
788 477 m 0,77,78
 788 525 788 525 767 563.5 c 128,-1,79
 746 602 746 602 711 634.5 c 128,-1,80
 676 667 676 667 629.5 695 c 128,-1,81
 583 723 583 723 532 750 c 1,82,-1
 532 262 l 1,83,84
 590 263 590 263 637.5 279.5 c 128,-1,85
 685 296 685 296 718.5 324.5 c 128,-1,86
 752 353 752 353 770 392 c 128,-1,87
 788 431 788 431 788 477 c 0,77,78
256 1217 m 0,88,89
 256 1171 256 1171 273 1133.5 c 128,-1,90
 290 1096 290 1096 319 1064.5 c 128,-1,91
 348 1033 348 1033 387 1006 c 128,-1,92
 426 979 426 979 471 954 c 1,93,-1
 471 1448 l 1,94,95
 429 1441 429 1441 390 1422.5 c 128,-1,96
 351 1404 351 1404 321 1375 c 128,-1,97
 291 1346 291 1346 273.5 1306 c 128,-1,98
 256 1266 256 1266 256 1217 c 0,88,89
EndSplineSet
EndChar

StartChar: percent
Encoding: 37 37 8
Width: 1290
Flags: W
LayerCount: 2
Fore
SplineSet
952 1188 m 1,0,1
 917 1174 917 1174 873 1165.5 c 128,-1,2
 829 1157 829 1157 778 1157 c 0,3,4
 718 1157 718 1157 673 1166.5 c 128,-1,5
 628 1176 628 1176 594 1190 c 1,6,7
 603 1159 603 1159 608.5 1125.5 c 128,-1,8
 614 1092 614 1092 614 1055 c 0,9,10
 614 986 614 986 596 927.5 c 128,-1,11
 578 869 578 869 545.5 826.5 c 128,-1,12
 513 784 513 784 468 760.5 c 128,-1,13
 423 737 423 737 369 737 c 256,14,15
 315 737 315 737 270 760.5 c 128,-1,16
 225 784 225 784 192 826.5 c 128,-1,17
 159 869 159 869 141 927.5 c 128,-1,18
 123 986 123 986 123 1055 c 256,19,20
 123 1124 123 1124 141 1182 c 128,-1,21
 159 1240 159 1240 192 1282.5 c 128,-1,22
 225 1325 225 1325 270 1348.5 c 128,-1,23
 315 1372 315 1372 369 1372 c 0,24,25
 427 1372 427 1372 476 1343.5 c 128,-1,26
 525 1315 525 1315 559 1264 c 1,27,28
 594 1242 594 1242 647 1225 c 128,-1,29
 700 1208 700 1208 778 1208 c 0,30,31
 824 1208 824 1208 860.5 1214 c 128,-1,32
 897 1220 897 1220 925 1229 c 128,-1,33
 953 1238 953 1238 974.5 1249.5 c 128,-1,34
 996 1261 996 1261 1012 1272 c 1,35,-1
 1047 1323 l 1,36,-1
 1122 1270 l 1,37,-1
 254 29 l 1,38,-1
 178 82 l 1,39,-1
 952 1188 l 1,0,1
922 0 m 256,40,41
 868 0 868 0 823 23.5 c 128,-1,42
 778 47 778 47 745 89.5 c 128,-1,43
 712 132 712 132 694 190 c 128,-1,44
 676 248 676 248 676 317 c 256,45,46
 676 386 676 386 694 444.5 c 128,-1,47
 712 503 712 503 745 545.5 c 128,-1,48
 778 588 778 588 823 611.5 c 128,-1,49
 868 635 868 635 922 635 c 256,50,51
 976 635 976 635 1021 611.5 c 128,-1,52
 1066 588 1066 588 1098.5 545.5 c 128,-1,53
 1131 503 1131 503 1149 444.5 c 128,-1,54
 1167 386 1167 386 1167 317 c 256,55,56
 1167 248 1167 248 1149 190 c 128,-1,57
 1131 132 1131 132 1098.5 89.5 c 128,-1,58
 1066 47 1066 47 1021 23.5 c 128,-1,59
 976 0 976 0 922 0 c 256,40,41
369 788 m 0,60,61
 407 788 407 788 431 808 c 128,-1,62
 455 828 455 828 468.5 863.5 c 128,-1,63
 482 899 482 899 487 948 c 128,-1,64
 492 997 492 997 492 1055 c 0,65,66
 492 1112 492 1112 487 1161 c 128,-1,67
 482 1210 482 1210 468.5 1245.5 c 128,-1,68
 455 1281 455 1281 431 1301 c 128,-1,69
 407 1321 407 1321 369 1321 c 0,70,71
 330 1321 330 1321 306 1301 c 128,-1,72
 282 1281 282 1281 268.5 1245.5 c 128,-1,73
 255 1210 255 1210 250.5 1161 c 128,-1,74
 246 1112 246 1112 246 1055 c 0,75,76
 246 997 246 997 250.5 948 c 128,-1,77
 255 899 255 899 268.5 863.5 c 128,-1,78
 282 828 282 828 306 808 c 128,-1,79
 330 788 330 788 369 788 c 0,60,61
922 51 m 0,80,81
 960 51 960 51 984 71 c 128,-1,82
 1008 91 1008 91 1021.5 126.5 c 128,-1,83
 1035 162 1035 162 1039.5 211 c 128,-1,84
 1044 260 1044 260 1044 317 c 0,85,86
 1044 375 1044 375 1039.5 424 c 128,-1,87
 1035 473 1035 473 1021.5 508.5 c 128,-1,88
 1008 544 1008 544 984 564 c 128,-1,89
 960 584 960 584 922 584 c 0,90,91
 883 584 883 584 859 564 c 128,-1,92
 835 544 835 544 821.5 508.5 c 128,-1,93
 808 473 808 473 803.5 424 c 128,-1,94
 799 375 799 375 799 317 c 0,95,96
 799 260 799 260 803.5 211 c 128,-1,97
 808 162 808 162 821.5 126.5 c 128,-1,98
 835 91 835 91 859 71 c 128,-1,99
 883 51 883 51 922 51 c 0,80,81
EndSplineSet
EndChar

StartChar: ampersand
Encoding: 38 38 9
Width: 1516
Flags: W
LayerCount: 2
Fore
SplineSet
1280 559 m 1,0,1
 1318 559 1318 559 1342 580 c 128,-1,2
 1366 601 1366 601 1366 627 c 0,3,4
 1366 640 1366 640 1358.5 653 c 128,-1,5
 1351 666 1351 666 1335.5 676 c 128,-1,6
 1320 686 1320 686 1294.5 692 c 128,-1,7
 1269 698 1269 698 1233 698 c 0,8,9
 1186 698 1186 698 1142 687 c 128,-1,10
 1098 676 1098 676 1053 659 c 1,11,12
 1095 617 1095 617 1120 561.5 c 128,-1,13
 1145 506 1145 506 1145 434 c 0,14,15
 1145 329 1145 329 1103.5 248 c 128,-1,16
 1062 167 1062 167 992.5 112 c 128,-1,17
 923 57 923 57 832 28.5 c 128,-1,18
 741 0 741 0 643 0 c 256,19,20
 545 0 545 0 452 29 c 128,-1,21
 359 58 359 58 285.5 116 c 128,-1,22
 212 174 212 174 167.5 262 c 128,-1,23
 123 350 123 350 123 467 c 0,24,25
 123 575 123 575 157.5 656.5 c 128,-1,26
 192 738 192 738 246.5 796.5 c 128,-1,27
 301 855 301 855 367 893 c 128,-1,28
 433 931 433 931 496 952 c 1,29,30
 457 972 457 972 419.5 1001 c 128,-1,31
 382 1030 382 1030 353 1066 c 128,-1,32
 324 1102 324 1102 306.5 1145.5 c 128,-1,33
 289 1189 289 1189 289 1239 c 0,34,35
 289 1309 289 1309 319 1366 c 128,-1,36
 349 1423 349 1423 397.5 1463 c 128,-1,37
 446 1503 446 1503 508 1524.5 c 128,-1,38
 570 1546 570 1546 635 1546 c 0,39,40
 713 1546 713 1546 769 1528.5 c 128,-1,41
 825 1511 825 1511 860 1483.5 c 128,-1,42
 895 1456 895 1456 911.5 1421 c 128,-1,43
 928 1386 928 1386 928 1352 c 0,44,45
 928 1323 928 1323 917.5 1296 c 128,-1,46
 907 1269 907 1269 887.5 1248.5 c 128,-1,47
 868 1228 868 1228 840 1216 c 128,-1,48
 812 1204 812 1204 778 1204 c 0,49,50
 752 1204 752 1204 731 1213.5 c 128,-1,51
 710 1223 710 1223 694 1235 c 128,-1,52
 678 1247 678 1247 668 1259 c 128,-1,53
 658 1271 658 1271 655 1276 c 1,54,-1
 688 1296 l 1,55,56
 693 1291 693 1291 702.5 1284 c 128,-1,57
 712 1277 712 1277 724 1270.5 c 128,-1,58
 736 1264 736 1264 749.5 1259.5 c 128,-1,59
 763 1255 763 1255 778 1255 c 0,60,61
 818 1255 818 1255 842 1284 c 128,-1,62
 866 1313 866 1313 866 1352 c 0,63,64
 866 1375 866 1375 855.5 1398.5 c 128,-1,65
 845 1422 845 1422 823 1441.5 c 128,-1,66
 801 1461 801 1461 766.5 1473 c 128,-1,67
 732 1485 732 1485 684 1485 c 0,68,69
 621 1485 621 1485 573 1462 c 128,-1,70
 525 1439 525 1439 493 1400.5 c 128,-1,71
 461 1362 461 1362 444.5 1313.5 c 128,-1,72
 428 1265 428 1265 428 1214 c 0,73,74
 428 1176 428 1176 437.5 1140 c 128,-1,75
 447 1104 447 1104 465.5 1072.5 c 128,-1,76
 484 1041 484 1041 512.5 1015.5 c 128,-1,77
 541 990 541 990 580 975 c 1,78,79
 600 980 600 980 618 981.5 c 128,-1,80
 636 983 636 983 651 983 c 0,81,82
 677 983 677 983 692 975.5 c 128,-1,83
 707 968 707 968 707 954 c 0,84,85
 707 933 707 933 690 922 c 128,-1,86
 673 911 673 911 645 911 c 0,87,88
 628 911 628 911 608.5 914 c 128,-1,89
 589 917 589 917 567 924 c 1,90,91
 498 908 498 908 446 868.5 c 128,-1,92
 394 829 394 829 359 774 c 128,-1,93
 324 719 324 719 306.5 653.5 c 128,-1,94
 289 588 289 588 289 520 c 0,95,96
 289 438 289 438 314.5 358 c 128,-1,97
 340 278 340 278 392 215 c 128,-1,98
 444 152 444 152 521 113 c 128,-1,99
 598 74 598 74 702 74 c 0,100,101
 775 74 775 74 843.5 97 c 128,-1,102
 912 120 912 120 964.5 165 c 128,-1,103
 1017 210 1017 210 1049 276 c 128,-1,104
 1081 342 1081 342 1081 428 c 0,105,106
 1081 497 1081 497 1058 549.5 c 128,-1,107
 1035 602 1035 602 997 639 c 1,108,109
 956 622 956 622 915.5 605 c 128,-1,110
 875 588 875 588 832.5 574 c 128,-1,111
 790 560 790 560 746 551.5 c 128,-1,112
 702 543 702 543 655 543 c 0,113,114
 619 543 619 543 592.5 552 c 128,-1,115
 566 561 566 561 548.5 575.5 c 128,-1,116
 531 590 531 590 522.5 609 c 128,-1,117
 514 628 514 628 514 649 c 0,118,119
 514 681 514 681 531.5 706 c 128,-1,120
 549 731 549 731 579 748.5 c 128,-1,121
 609 766 609 766 649.5 775 c 128,-1,122
 690 784 690 784 735 784 c 0,123,124
 783 784 783 784 834.5 773.5 c 128,-1,125
 886 763 886 763 936 741 c 1,126,127
 999 772 999 772 1069 796.5 c 128,-1,128
 1139 821 1139 821 1221 821 c 0,129,130
 1276 821 1276 821 1316 806.5 c 128,-1,131
 1356 792 1356 792 1382.5 769 c 128,-1,132
 1409 746 1409 746 1421.5 717 c 128,-1,133
 1434 688 1434 688 1434 659 c 0,134,135
 1434 632 1434 632 1424 607 c 128,-1,136
 1414 582 1414 582 1394.5 562 c 128,-1,137
 1375 542 1375 542 1347 530 c 128,-1,138
 1319 518 1319 518 1284 518 c 1,139,-1
 1280 559 l 1,0,1
735 737 m 0,140,141
 678 737 678 737 640 721.5 c 128,-1,142
 602 706 602 706 602 680 c 0,143,144
 602 664 602 664 620 653.5 c 128,-1,145
 638 643 638 643 678 643 c 0,146,147
 724 643 724 643 773.5 663 c 128,-1,148
 823 683 823 683 879 711 c 1,149,150
 841 725 841 725 804 731 c 128,-1,151
 767 737 767 737 735 737 c 0,140,141
EndSplineSet
EndChar

StartChar: quotesingle
Encoding: 39 39 10
Width: 276
Flags: W
LayerCount: 2
Fore
SplineSet
174 1075 m 1,0,-1
 102 1075 l 1,1,-1
 82 1403 l 1,2,-1
 195 1403 l 1,3,-1
 174 1075 l 1,0,-1
EndSplineSet
EndChar

StartChar: parenleft
Encoding: 40 40 11
Width: 686
Flags: W
LayerCount: 2
Fore
SplineSet
602 1620 m 1,0,1
 583 1613 583 1613 550.5 1589 c 128,-1,2
 518 1565 518 1565 481 1521 c 128,-1,3
 444 1477 444 1477 405.5 1411 c 128,-1,4
 367 1345 367 1345 336 1254 c 128,-1,5
 305 1163 305 1163 285.5 1045 c 128,-1,6
 266 927 266 927 266 778 c 256,7,8
 266 629 266 629 285.5 511 c 128,-1,9
 305 393 305 393 336 302 c 128,-1,10
 367 211 367 211 405.5 145 c 128,-1,11
 444 79 444 79 481 35.5 c 128,-1,12
 518 -8 518 -8 550.5 -32 c 128,-1,13
 583 -56 583 -56 602 -63 c 1,14,-1
 586 -111 l 1,15,16
 557 -101 557 -101 511 -73.5 c 128,-1,17
 465 -46 465 -46 414 1.5 c 128,-1,18
 363 49 363 49 311 118.5 c 128,-1,19
 259 188 259 188 217 283.5 c 128,-1,20
 175 379 175 379 149 502 c 128,-1,21
 123 625 123 625 123 778 c 0,22,23
 123 932 123 932 149 1054.5 c 128,-1,24
 175 1177 175 1177 217 1272.5 c 128,-1,25
 259 1368 259 1368 311 1437.5 c 128,-1,26
 363 1507 363 1507 414 1554.5 c 128,-1,27
 465 1602 465 1602 511 1629.5 c 128,-1,28
 557 1657 557 1657 586 1667 c 1,29,-1
 602 1620 l 1,0,1
EndSplineSet
EndChar

StartChar: parenright
Encoding: 41 41 12
Width: 686
Flags: W
LayerCount: 2
Fore
SplineSet
100 1667 m 1,0,1
 129 1657 129 1657 175 1629.5 c 128,-1,2
 221 1602 221 1602 272 1554.5 c 128,-1,3
 323 1507 323 1507 375 1437.5 c 128,-1,4
 427 1368 427 1368 469 1272.5 c 128,-1,5
 511 1177 511 1177 537 1054.5 c 128,-1,6
 563 932 563 932 563 778 c 256,7,8
 563 624 563 624 537 501.5 c 128,-1,9
 511 379 511 379 469 283.5 c 128,-1,10
 427 188 427 188 375 118.5 c 128,-1,11
 323 49 323 49 272 1.5 c 128,-1,12
 221 -46 221 -46 175 -73.5 c 128,-1,13
 129 -101 129 -101 100 -111 c 1,14,-1
 84 -63 l 1,15,16
 103 -56 103 -56 135.5 -32 c 128,-1,17
 168 -8 168 -8 205 35.5 c 128,-1,18
 242 79 242 79 280.5 145 c 128,-1,19
 319 211 319 211 350 302 c 128,-1,20
 381 393 381 393 400.5 511.5 c 128,-1,21
 420 630 420 630 420 778 c 256,22,23
 420 926 420 926 400.5 1044.5 c 128,-1,24
 381 1163 381 1163 350 1254 c 128,-1,25
 319 1345 319 1345 280.5 1411 c 128,-1,26
 242 1477 242 1477 205 1521 c 128,-1,27
 168 1565 168 1565 135.5 1589 c 128,-1,28
 103 1613 103 1613 84 1620 c 1,29,-1
 100 1667 l 1,0,1
EndSplineSet
EndChar

StartChar: asterisk
Encoding: 42 42 13
Width: 799
Flags: W
LayerCount: 2
Fore
SplineSet
477 889 m 1,0,-1
 397 1114 l 1,1,-1
 324 905 l 1,2,-1
 203 954 l 1,3,-1
 358 1137 l 1,4,-1
 141 1100 l 1,5,-1
 123 1229 l 1,6,-1
 356 1188 l 1,7,-1
 203 1366 l 1,8,-1
 332 1417 l 1,9,-1
 401 1212 l 1,10,-1
 487 1436 l 1,11,-1
 588 1352 l 1,12,-1
 442 1186 l 1,13,-1
 678 1227 l 1,14,-1
 655 1098 l 1,15,-1
 444 1137 l 1,16,-1
 586 977 l 1,17,-1
 477 889 l 1,0,-1
EndSplineSet
EndChar

StartChar: plus
Encoding: 43 43 14
Width: 829
Flags: W
LayerCount: 2
Fore
SplineSet
461 870 m 1,0,-1
 461 614 l 1,1,-1
 707 614 l 1,2,-1
 707 532 l 1,3,-1
 461 532 l 1,4,-1
 461 266 l 1,5,-1
 369 266 l 1,6,-1
 369 532 l 1,7,-1
 123 532 l 1,8,-1
 123 614 l 1,9,-1
 369 614 l 1,10,-1
 369 870 l 1,11,-1
 461 870 l 1,0,-1
EndSplineSet
EndChar

StartChar: comma
Encoding: 44 44 15
Width: 399
Flags: W
LayerCount: 2
Fore
SplineSet
172 225 m 0,0,1
 195 225 195 225 214 215.5 c 128,-1,2
 233 206 233 206 247 189 c 128,-1,3
 261 172 261 172 268.5 149 c 128,-1,4
 276 126 276 126 276 100 c 0,5,6
 276 48 276 48 253 4 c 128,-1,7
 230 -40 230 -40 203 -72 c 0,8,9
 171 -110 171 -110 131 -141 c 1,10,-1
 102 -115 l 1,11,12
 111 -109 111 -109 123.5 -95.5 c 128,-1,13
 136 -82 136 -82 146.5 -65 c 128,-1,14
 157 -48 157 -48 164.5 -29 c 128,-1,15
 172 -10 172 -10 172 8 c 0,16,17
 172 20 172 20 158 28.5 c 128,-1,18
 144 37 144 37 127 49 c 128,-1,19
 110 61 110 61 96 79.5 c 128,-1,20
 82 98 82 98 82 131 c 0,21,22
 82 150 82 150 89 167 c 128,-1,23
 96 184 96 184 108.5 197 c 128,-1,24
 121 210 121 210 137.5 217.5 c 128,-1,25
 154 225 154 225 172 225 c 0,0,1
EndSplineSet
EndChar

StartChar: hyphen
Encoding: 45 45 16
Width: 737
Flags: W
LayerCount: 2
Fore
SplineSet
123 614 m 1,0,-1
 614 614 l 1,1,-1
 614 532 l 1,2,-1
 123 532 l 1,3,-1
 123 614 l 1,0,-1
EndSplineSet
EndChar

StartChar: period
Encoding: 46 46 17
Width: 389
Flags: W
LayerCount: 2
Fore
SplineSet
82 92 m 256,0,1
 82 111 82 111 89 128 c 128,-1,2
 96 145 96 145 108.5 157.5 c 128,-1,3
 121 170 121 170 138 177 c 128,-1,4
 155 184 155 184 174 184 c 256,5,6
 193 184 193 184 210 177 c 128,-1,7
 227 170 227 170 239.5 157.5 c 128,-1,8
 252 145 252 145 259 128 c 128,-1,9
 266 111 266 111 266 92 c 256,10,11
 266 73 266 73 259 56 c 128,-1,12
 252 39 252 39 239.5 26.5 c 128,-1,13
 227 14 227 14 210 7 c 128,-1,14
 193 0 193 0 174 0 c 256,15,16
 155 0 155 0 138 7 c 128,-1,17
 121 14 121 14 108.5 26.5 c 128,-1,18
 96 39 96 39 89 56 c 128,-1,19
 82 73 82 73 82 92 c 256,0,1
EndSplineSet
EndChar

StartChar: slash
Encoding: 47 47 18
Width: 788
Flags: W
LayerCount: 2
Fore
SplineSet
199 -113 m 1,0,-1
 127 -94 l 1,1,-1
 590 1628 l 1,2,-1
 662 1610 l 1,3,-1
 199 -113 l 1,0,-1
EndSplineSet
EndChar

StartChar: zero
Encoding: 48 48 19
Width: 1167
Flags: W
LayerCount: 2
Fore
SplineSet
584 51 m 0,0,1
 668 51 668 51 723.5 109.5 c 128,-1,2
 779 168 779 168 811.5 265 c 128,-1,3
 844 362 844 362 857 487.5 c 128,-1,4
 870 613 870 613 870 748 c 0,5,6
 870 837 870 837 864.5 923.5 c 128,-1,7
 859 1010 859 1010 846 1087.5 c 128,-1,8
 833 1165 833 1165 811.5 1230.5 c 128,-1,9
 790 1296 790 1296 758 1343.5 c 128,-1,10
 726 1391 726 1391 683 1417.5 c 128,-1,11
 640 1444 640 1444 584 1444 c 0,12,13
 527 1444 527 1444 484 1417.5 c 128,-1,14
 441 1391 441 1391 409 1343.5 c 128,-1,15
 377 1296 377 1296 355.5 1230.5 c 128,-1,16
 334 1165 334 1165 321 1087.5 c 128,-1,17
 308 1010 308 1010 302.5 923.5 c 128,-1,18
 297 837 297 837 297 748 c 0,19,20
 297 613 297 613 310 487.5 c 128,-1,21
 323 362 323 362 355.5 265 c 128,-1,22
 388 168 388 168 443.5 109.5 c 128,-1,23
 499 51 499 51 584 51 c 0,0,1
584 0 m 0,24,25
 468 0 468 0 383.5 56.5 c 128,-1,26
 299 113 299 113 243 212.5 c 128,-1,27
 187 312 187 312 160 449 c 128,-1,28
 133 586 133 586 133 748 c 0,29,30
 133 909 133 909 160 1046 c 128,-1,31
 187 1183 187 1183 243 1282.5 c 128,-1,32
 299 1382 299 1382 383.5 1438.5 c 128,-1,33
 468 1495 468 1495 584 1495 c 0,34,35
 699 1495 699 1495 784 1438.5 c 128,-1,36
 869 1382 869 1382 924.5 1282.5 c 128,-1,37
 980 1183 980 1183 1007 1046 c 128,-1,38
 1034 909 1034 909 1034 748 c 0,39,40
 1034 586 1034 586 1007 449 c 128,-1,41
 980 312 980 312 924.5 212.5 c 128,-1,42
 869 113 869 113 784 56.5 c 128,-1,43
 699 0 699 0 584 0 c 0,24,25
EndSplineSet
EndChar

StartChar: one
Encoding: 49 49 20
Width: 778
Flags: W
LayerCount: 2
Fore
SplineSet
72 72 m 1,0,-1
 256 78 l 2,1,2
 294 80 294 80 311 95.5 c 128,-1,3
 328 111 328 111 328 150 c 2,4,-1
 328 1229 l 1,5,6
 289 1209 289 1209 243 1193 c 0,7,8
 204 1179 204 1179 152 1168 c 128,-1,9
 100 1157 100 1157 41 1157 c 1,10,-1
 41 1208 l 1,11,12
 96 1208 96 1208 152 1233.5 c 128,-1,13
 208 1259 208 1259 255.5 1299.5 c 128,-1,14
 303 1340 303 1340 338.5 1391.5 c 128,-1,15
 374 1443 374 1443 389 1495 c 1,16,-1
 481 1495 l 1,17,-1
 481 150 l 2,18,19
 481 111 481 111 498 95.5 c 128,-1,20
 515 80 515 80 553 78 c 2,21,-1
 707 72 l 1,22,-1
 707 0 l 1,23,-1
 72 0 l 1,24,-1
 72 72 l 1,0,-1
EndSplineSet
EndChar

StartChar: two
Encoding: 50 50 21
Width: 1096
Flags: W
LayerCount: 2
Fore
SplineSet
82 0 m 1,0,1
 82 9 82 9 81 19.5 c 128,-1,2
 80 30 80 30 80 39 c 0,3,4
 80 166 80 166 113.5 262.5 c 128,-1,5
 147 359 147 359 201.5 434 c 128,-1,6
 256 509 256 509 326 568 c 128,-1,7
 396 627 396 627 469 679 c 128,-1,8
 542 731 542 731 612 780.5 c 128,-1,9
 682 830 682 830 736.5 886.5 c 128,-1,10
 791 943 791 943 824.5 1010.5 c 128,-1,11
 858 1078 858 1078 858 1167 c 0,12,13
 858 1236 858 1236 835 1293 c 128,-1,14
 812 1350 812 1350 771 1390.5 c 128,-1,15
 730 1431 730 1431 674 1453 c 128,-1,16
 618 1475 618 1475 553 1475 c 0,17,18
 476 1475 476 1475 416 1445.5 c 128,-1,19
 356 1416 356 1416 314.5 1372 c 128,-1,20
 273 1328 273 1328 251 1276 c 128,-1,21
 229 1224 229 1224 229 1178 c 256,22,23
 229 1132 229 1132 242.5 1099.5 c 128,-1,24
 256 1067 256 1067 278.5 1046 c 128,-1,25
 301 1025 301 1025 329.5 1015.5 c 128,-1,26
 358 1006 358 1006 389 1006 c 0,27,28
 423 1006 423 1006 455.5 1016 c 128,-1,29
 488 1026 488 1026 516 1044 c 1,30,-1
 549 1004 l 1,31,32
 534 981 534 981 511 956 c 128,-1,33
 488 931 488 931 459 910.5 c 128,-1,34
 430 890 430 890 395.5 877 c 128,-1,35
 361 864 361 864 322 864 c 0,36,37
 281 864 281 864 242.5 878 c 128,-1,38
 204 892 204 892 174.5 921.5 c 128,-1,39
 145 951 145 951 127 996.5 c 128,-1,40
 109 1042 109 1042 109 1106 c 0,41,42
 109 1171 109 1171 139.5 1245 c 128,-1,43
 170 1319 170 1319 229 1381.5 c 128,-1,44
 288 1444 288 1444 373.5 1485 c 128,-1,45
 459 1526 459 1526 569 1526 c 0,46,47
 650 1526 650 1526 725.5 1495 c 128,-1,48
 801 1464 801 1464 859.5 1409.5 c 128,-1,49
 918 1355 918 1355 953.5 1279.5 c 128,-1,50
 989 1204 989 1204 989 1116 c 0,51,52
 989 1018 989 1018 960.5 947 c 128,-1,53
 932 876 932 876 883.5 822.5 c 128,-1,54
 835 769 835 769 771 728 c 128,-1,55
 707 687 707 687 637.5 649.5 c 128,-1,56
 568 612 568 612 496.5 573 c 128,-1,57
 425 534 425 534 361 484.5 c 128,-1,58
 297 435 297 435 245 369.5 c 128,-1,59
 193 304 193 304 162 213 c 1,60,61
 177 233 177 233 194 250 c 128,-1,62
 211 267 211 267 232.5 280 c 128,-1,63
 254 293 254 293 280 300 c 128,-1,64
 306 307 306 307 338 307 c 0,65,66
 374 307 374 307 411.5 296.5 c 128,-1,67
 449 286 449 286 487.5 270 c 128,-1,68
 526 254 526 254 564.5 235.5 c 128,-1,69
 603 217 603 217 641 201 c 128,-1,70
 679 185 679 185 716 174.5 c 128,-1,71
 753 164 753 164 788 164 c 0,72,73
 818 164 818 164 842 168 c 128,-1,74
 866 172 866 172 885.5 183 c 128,-1,75
 905 194 905 194 921 214.5 c 128,-1,76
 937 235 937 235 952 268 c 1,77,-1
 987 260 l 1,78,79
 982 216 982 216 967.5 170 c 128,-1,80
 953 124 953 124 925 86 c 128,-1,81
 897 48 897 48 854 24 c 128,-1,82
 811 0 811 0 748 0 c 0,83,84
 709 0 709 0 669.5 14.5 c 128,-1,85
 630 29 630 29 591 50.5 c 128,-1,86
 552 72 552 72 514 97.5 c 128,-1,87
 476 123 476 123 439 144.5 c 128,-1,88
 402 166 402 166 367 180.5 c 128,-1,89
 332 195 332 195 299 195 c 0,90,91
 267 195 267 195 242 182 c 128,-1,92
 217 169 217 169 198.5 148.5 c 128,-1,93
 180 128 180 128 167.5 104 c 128,-1,94
 155 80 155 80 146.5 58.5 c 128,-1,95
 138 37 138 37 133.5 20.5 c 128,-1,96
 129 4 129 4 127 0 c 1,97,-1
 82 0 l 1,0,1
EndSplineSet
EndChar

StartChar: three
Encoding: 51 51 22
Width: 1126
Flags: W
LayerCount: 2
Fore
SplineSet
410 799 m 1,0,1
 473 832 473 832 538.5 878 c 128,-1,2
 604 924 604 924 657 981.5 c 128,-1,3
 710 1039 710 1039 744 1109 c 128,-1,4
 778 1179 778 1179 778 1260 c 0,5,6
 778 1312 778 1312 761.5 1350 c 128,-1,7
 745 1388 745 1388 717.5 1412.5 c 128,-1,8
 690 1437 690 1437 653 1448.5 c 128,-1,9
 616 1460 616 1460 575 1460 c 0,10,11
 528 1460 528 1460 484 1442 c 128,-1,12
 440 1424 440 1424 405 1391.5 c 128,-1,13
 370 1359 370 1359 349 1315 c 128,-1,14
 328 1271 328 1271 328 1219 c 0,15,16
 328 1172 328 1172 345 1137.5 c 128,-1,17
 362 1103 362 1103 383 1080 c 0,18,19
 407 1053 407 1053 438 1034 c 1,20,-1
 416 989 l 1,21,22
 361 1001 361 1001 321.5 1023 c 128,-1,23
 282 1045 282 1045 256 1073.5 c 128,-1,24
 230 1102 230 1102 217.5 1135.5 c 128,-1,25
 205 1169 205 1169 205 1204 c 0,26,27
 205 1259 205 1259 232.5 1313.5 c 128,-1,28
 260 1368 260 1368 311.5 1412 c 128,-1,29
 363 1456 363 1456 436 1483.5 c 128,-1,30
 509 1511 509 1511 600 1511 c 0,31,32
 664 1511 664 1511 725.5 1497 c 128,-1,33
 787 1483 787 1483 834.5 1453.5 c 128,-1,34
 882 1424 882 1424 911 1378.5 c 128,-1,35
 940 1333 940 1333 940 1270 c 0,36,37
 940 1218 940 1218 915.5 1168 c 128,-1,38
 891 1118 891 1118 853.5 1071.5 c 128,-1,39
 816 1025 816 1025 770.5 984.5 c 128,-1,40
 725 944 725 944 683.5 911 c 128,-1,41
 642 878 642 878 609 854.5 c 128,-1,42
 576 831 576 831 563 819 c 1,43,44
 670 815 670 815 754 782 c 128,-1,45
 838 749 838 749 895.5 696 c 128,-1,46
 953 643 953 643 983.5 574 c 128,-1,47
 1014 505 1014 505 1014 430 c 0,48,49
 1014 358 1014 358 993 298 c 128,-1,50
 972 238 972 238 935 190 c 128,-1,51
 898 142 898 142 848 106 c 128,-1,52
 798 70 798 70 740.5 46 c 128,-1,53
 683 22 683 22 620.5 10 c 128,-1,54
 558 -2 558 -2 496 -2 c 0,55,56
 417 -2 417 -2 344 17 c 128,-1,57
 271 36 271 36 215 74.5 c 128,-1,58
 159 113 159 113 125.5 171 c 128,-1,59
 92 229 92 229 92 307 c 0,60,61
 92 349 92 349 103.5 390.5 c 128,-1,62
 115 432 115 432 134.5 469.5 c 128,-1,63
 154 507 154 507 180.5 540.5 c 128,-1,64
 207 574 207 574 238 600 c 1,65,-1
 274 573 l 1,66,67
 250 525 250 525 238.5 475.5 c 128,-1,68
 227 426 227 426 227 377 c 0,69,70
 227 297 227 297 254 237 c 128,-1,71
 281 177 281 177 325 137 c 128,-1,72
 369 97 369 97 425.5 77 c 128,-1,73
 482 57 482 57 541 57 c 0,74,75
 599 57 599 57 655 77 c 128,-1,76
 711 97 711 97 755.5 136 c 128,-1,77
 800 175 800 175 827 233.5 c 128,-1,78
 854 292 854 292 854 369 c 0,79,80
 854 435 854 435 827.5 502.5 c 128,-1,81
 801 570 801 570 748 624.5 c 128,-1,82
 695 679 695 679 615.5 713.5 c 128,-1,83
 536 748 536 748 430 748 c 1,84,-1
 410 799 l 1,0,1
EndSplineSet
EndChar

StartChar: four
Encoding: 52 52 23
Width: 1065
Flags: W
LayerCount: 2
Fore
SplineSet
72 549 m 1,0,1
 239 697 239 697 344.5 834.5 c 128,-1,2
 450 972 450 972 510 1093 c 128,-1,3
 570 1214 570 1214 592 1316 c 128,-1,4
 614 1418 614 1418 614 1495 c 1,5,-1
 778 1495 l 1,6,7
 778 1405 778 1405 749.5 1316.5 c 128,-1,8
 721 1228 721 1228 674 1143 c 128,-1,9
 627 1058 627 1058 568 979 c 128,-1,10
 509 900 509 900 448 829.5 c 128,-1,11
 387 759 387 759 329.5 698.5 c 128,-1,12
 272 638 272 638 229 592 c 1,13,14
 243 594 243 594 258.5 596 c 128,-1,15
 274 598 274 598 297 598 c 0,16,17
 363 598 363 598 420 576.5 c 128,-1,18
 477 555 477 555 528.5 527 c 128,-1,19
 580 499 580 499 628.5 471.5 c 128,-1,20
 677 444 677 444 725 432 c 1,21,22
 731 610 731 610 731 807 c 2,23,-1
 731 942 l 1,24,-1
 874 983 l 1,25,26
 874 934 874 934 873.5 871.5 c 128,-1,27
 873 809 873 809 872 737.5 c 128,-1,28
 871 666 871 666 869.5 587.5 c 128,-1,29
 868 509 868 509 866 428 c 1,30,31
 888 431 888 431 909.5 438 c 128,-1,32
 931 445 931 445 958 461 c 1,33,-1
 983 430 l 1,34,35
 957 408 957 408 926 394.5 c 128,-1,36
 895 381 895 381 864 375 c 1,37,38
 861 281 861 281 857 186 c 128,-1,39
 853 91 853 91 848 0 c 1,40,-1
 705 0 l 1,41,42
 710 90 710 90 715 183.5 c 128,-1,43
 720 277 720 277 723 377 c 1,44,45
 671 389 671 389 621.5 417.5 c 128,-1,46
 572 446 572 446 520 475.5 c 128,-1,47
 468 505 468 505 411 527 c 128,-1,48
 354 549 354 549 287 549 c 0,49,50
 253 549 253 549 225.5 542 c 128,-1,51
 198 535 198 535 176 525 c 128,-1,52
 154 515 154 515 137.5 504.5 c 128,-1,53
 121 494 121 494 109 487 c 1,54,-1
 72 549 l 1,0,1
EndSplineSet
EndChar

StartChar: five
Encoding: 53 53 24
Width: 1188
Flags: W
LayerCount: 2
Fore
SplineSet
270 1452 m 1,0,-1
 754 1452 l 2,1,2
 784 1452 784 1452 813.5 1453.5 c 128,-1,3
 843 1455 843 1455 869 1459.5 c 128,-1,4
 895 1464 895 1464 916.5 1472.5 c 128,-1,5
 938 1481 938 1481 952 1495 c 1,6,-1
 987 1468 l 1,7,8
 955 1430 955 1430 923 1398 c 128,-1,9
 891 1366 891 1366 850.5 1343 c 128,-1,10
 810 1320 810 1320 756.5 1307 c 128,-1,11
 703 1294 703 1294 629 1294 c 2,12,-1
 334 1294 l 1,13,-1
 309 991 l 1,14,15
 444 987 444 987 553 963.5 c 128,-1,16
 662 940 662 940 746.5 901.5 c 128,-1,17
 831 863 831 863 892 812 c 128,-1,18
 953 761 953 761 992.5 702.5 c 128,-1,19
 1032 644 1032 644 1050.5 580.5 c 128,-1,20
 1069 517 1069 517 1069 453 c 0,21,22
 1069 362 1069 362 1034 277 c 128,-1,23
 999 192 999 192 934 126 c 128,-1,24
 869 60 869 60 777 20 c 128,-1,25
 685 -20 685 -20 571 -20 c 0,26,27
 483 -20 483 -20 401.5 2.5 c 128,-1,28
 320 25 320 25 258 67.5 c 128,-1,29
 196 110 196 110 158.5 170.5 c 128,-1,30
 121 231 121 231 121 307 c 0,31,32
 121 349 121 349 132 390.5 c 128,-1,33
 143 432 143 432 162.5 469.5 c 128,-1,34
 182 507 182 507 208.5 540.5 c 128,-1,35
 235 574 235 574 266 600 c 1,36,-1
 303 573 l 1,37,38
 278 525 278 525 267 475.5 c 128,-1,39
 256 426 256 426 256 377 c 0,40,41
 256 309 256 309 277.5 246.5 c 128,-1,42
 299 184 299 184 341 136 c 128,-1,43
 383 88 383 88 446 59.5 c 128,-1,44
 509 31 509 31 592 31 c 0,45,46
 670 31 670 31 732 60 c 128,-1,47
 794 89 794 89 836.5 137.5 c 128,-1,48
 879 186 879 186 901.5 250 c 128,-1,49
 924 314 924 314 924 385 c 0,50,51
 924 446 924 446 906.5 509 c 128,-1,52
 889 572 889 572 852.5 630.5 c 128,-1,53
 816 689 816 689 759.5 740.5 c 128,-1,54
 703 792 703 792 626 830 c 128,-1,55
 549 868 549 868 450 890.5 c 128,-1,56
 351 913 351 913 229 913 c 1,57,-1
 270 1452 l 1,0,-1
EndSplineSet
EndChar

StartChar: six
Encoding: 54 54 25
Width: 1106
Flags: W
LayerCount: 2
Fore
SplineSet
600 821 m 0,0,1
 546 821 546 821 493 793.5 c 128,-1,2
 440 766 440 766 399 718 c 128,-1,3
 358 670 358 670 332.5 604 c 128,-1,4
 307 538 307 538 307 461 c 0,5,6
 307 372 307 372 329 296.5 c 128,-1,7
 351 221 351 221 389 166 c 128,-1,8
 427 111 427 111 478 80 c 128,-1,9
 529 49 529 49 588 49 c 0,10,11
 639 49 639 49 688 76.5 c 128,-1,12
 737 104 737 104 774.5 155 c 128,-1,13
 812 206 812 206 835 278 c 128,-1,14
 858 350 858 350 858 440 c 0,15,16
 858 527 858 527 840 597.5 c 128,-1,17
 822 668 822 668 789 717.5 c 128,-1,18
 756 767 756 767 708 794 c 128,-1,19
 660 821 660 821 600 821 c 0,0,1
774 1454 m 1,20,21
 733 1436 733 1436 685 1407.5 c 128,-1,22
 637 1379 637 1379 587.5 1336 c 128,-1,23
 538 1293 538 1293 490 1234.5 c 128,-1,24
 442 1176 442 1176 402 1098.5 c 128,-1,25
 362 1021 362 1021 332 922.5 c 128,-1,26
 302 824 302 824 289 702 c 1,27,28
 299 719 299 719 325.5 749 c 128,-1,29
 352 779 352 779 393 808.5 c 128,-1,30
 434 838 434 838 489 859.5 c 128,-1,31
 544 881 544 881 612 881 c 0,32,33
 706 881 706 881 782 849 c 128,-1,34
 858 817 858 817 910.5 762.5 c 128,-1,35
 963 708 963 708 991.5 636 c 128,-1,36
 1020 564 1020 564 1020 483 c 0,37,38
 1020 369 1020 369 984.5 279 c 128,-1,39
 949 189 949 189 889 126.5 c 128,-1,40
 829 64 829 64 749.5 31 c 128,-1,41
 670 -2 670 -2 582 -2 c 0,42,43
 483 -2 483 -2 398.5 42 c 128,-1,44
 314 86 314 86 253 167 c 128,-1,45
 192 248 192 248 157.5 362 c 128,-1,46
 123 476 123 476 123 616 c 0,47,48
 123 732 123 732 149.5 839 c 128,-1,49
 176 946 176 946 222.5 1039.5 c 128,-1,50
 269 1133 269 1133 331 1211 c 128,-1,51
 393 1289 393 1289 463.5 1348 c 128,-1,52
 534 1407 534 1407 609.5 1444 c 128,-1,53
 685 1481 685 1481 758 1493 c 1,54,-1
 774 1454 l 1,20,21
EndSplineSet
EndChar

StartChar: seven
Encoding: 55 55 26
Width: 963
Flags: W
LayerCount: 2
Fore
SplineSet
68 1249 m 1,0,1
 68 1304 68 1304 79.5 1349 c 128,-1,2
 91 1394 91 1394 115 1426.5 c 128,-1,3
 139 1459 139 1459 175 1477 c 128,-1,4
 211 1495 211 1495 260 1495 c 0,5,6
 318 1495 318 1495 375 1482 c 128,-1,7
 432 1469 432 1469 489.5 1454 c 128,-1,8
 547 1439 547 1439 607.5 1426 c 128,-1,9
 668 1413 668 1413 733 1413 c 0,10,11
 775 1413 775 1413 805.5 1420.5 c 128,-1,12
 836 1428 836 1428 856 1438 c 0,13,14
 879 1449 879 1449 895 1464 c 1,15,-1
 920 1434 l 1,16,17
 822 1331 822 1331 751 1238.5 c 128,-1,18
 680 1146 680 1146 630 1062.5 c 128,-1,19
 580 979 580 979 549.5 903 c 128,-1,20
 519 827 519 827 502 757.5 c 128,-1,21
 485 688 485 688 479 625 c 128,-1,22
 473 562 473 562 473 504 c 0,23,24
 473 415 473 415 481.5 349 c 128,-1,25
 490 283 490 283 500.5 233.5 c 128,-1,26
 511 184 511 184 519.5 146.5 c 128,-1,27
 528 109 528 109 528 76 c 0,28,29
 528 34 528 34 506.5 17 c 128,-1,30
 485 0 485 0 453 0 c 0,31,32
 418 0 418 0 390.5 9.5 c 128,-1,33
 363 19 363 19 343.5 45 c 128,-1,34
 324 71 324 71 313.5 117 c 128,-1,35
 303 163 303 163 303 236 c 0,36,37
 303 385 303 385 332 532 c 128,-1,38
 361 679 361 679 416 816 c 128,-1,39
 471 953 471 953 550 1075 c 128,-1,40
 629 1197 629 1197 729 1296 c 1,41,42
 715 1293 715 1293 697.5 1291.5 c 128,-1,43
 680 1290 680 1290 662 1290 c 0,44,45
 620 1290 620 1290 568 1296.5 c 128,-1,46
 516 1303 516 1303 462 1311.5 c 128,-1,47
 408 1320 408 1320 354.5 1326.5 c 128,-1,48
 301 1333 301 1333 256 1333 c 0,49,50
 196 1333 196 1333 160.5 1314.5 c 128,-1,51
 125 1296 125 1296 119 1249 c 1,52,-1
 68 1249 l 1,0,1
EndSplineSet
EndChar

StartChar: eight
Encoding: 56 56 27
Width: 1188
Flags: W
LayerCount: 2
Fore
SplineSet
1083 446 m 0,0,1
 1083 339 1083 339 1041.5 253 c 128,-1,2
 1000 167 1000 167 932.5 106.5 c 128,-1,3
 865 46 865 46 778.5 13 c 128,-1,4
 692 -20 692 -20 602 -20 c 0,5,6
 502 -20 502 -20 414.5 9.5 c 128,-1,7
 327 39 327 39 261.5 93 c 128,-1,8
 196 147 196 147 158.5 223 c 128,-1,9
 121 299 121 299 121 393 c 0,10,11
 121 484 121 484 153 553 c 128,-1,12
 185 622 185 622 237 675.5 c 128,-1,13
 289 729 289 729 356 771.5 c 128,-1,14
 423 814 423 814 492 852 c 1,15,16
 443 886 443 886 400 923.5 c 128,-1,17
 357 961 357 961 324.5 1003 c 128,-1,18
 292 1045 292 1045 273 1093 c 128,-1,19
 254 1141 254 1141 254 1198 c 0,20,21
 254 1273 254 1273 284 1332 c 128,-1,22
 314 1391 314 1391 363 1432 c 128,-1,23
 412 1473 412 1473 474.5 1494.5 c 128,-1,24
 537 1516 537 1516 602 1516 c 0,25,26
 677 1516 677 1516 740.5 1495.5 c 128,-1,27
 804 1475 804 1475 850.5 1437.5 c 128,-1,28
 897 1400 897 1400 923.5 1347 c 128,-1,29
 950 1294 950 1294 950 1229 c 0,30,31
 950 1170 950 1170 931 1124.5 c 128,-1,32
 912 1079 912 1079 879.5 1042 c 128,-1,33
 847 1005 847 1005 803.5 974 c 128,-1,34
 760 943 760 943 711 915 c 1,35,36
 779 872 779 872 846 825.5 c 128,-1,37
 913 779 913 779 965.5 722.5 c 128,-1,38
 1018 666 1018 666 1050.5 598.5 c 128,-1,39
 1083 531 1083 531 1083 446 c 0,0,1
254 385 m 0,40,41
 254 298 254 298 283.5 232 c 128,-1,42
 313 166 313 166 362 121.5 c 128,-1,43
 411 77 411 77 473.5 54 c 128,-1,44
 536 31 536 31 602 31 c 0,45,46
 669 31 669 31 730 51.5 c 128,-1,47
 791 72 791 72 837.5 114 c 128,-1,48
 884 156 884 156 912 219.5 c 128,-1,49
 940 283 940 283 940 369 c 0,50,51
 940 447 940 447 904 509.5 c 128,-1,52
 868 572 868 572 811 625 c 128,-1,53
 754 678 754 678 682.5 724.5 c 128,-1,54
 611 771 611 771 541 819 c 1,55,56
 484 785 484 785 432 745.5 c 128,-1,57
 380 706 380 706 340.5 654.5 c 128,-1,58
 301 603 301 603 277.5 537 c 128,-1,59
 254 471 254 471 254 385 c 0,40,41
848 1239 m 0,60,61
 848 1291 848 1291 831.5 1334.5 c 128,-1,62
 815 1378 815 1378 783.5 1409 c 128,-1,63
 752 1440 752 1440 706 1457.5 c 128,-1,64
 660 1475 660 1475 602 1475 c 0,65,66
 557 1475 557 1475 516 1460 c 128,-1,67
 475 1445 475 1445 444 1417.5 c 128,-1,68
 413 1390 413 1390 395 1350 c 128,-1,69
 377 1310 377 1310 377 1260 c 0,70,71
 377 1211 377 1211 400 1169.5 c 128,-1,72
 423 1128 423 1128 461.5 1090.5 c 128,-1,73
 500 1053 500 1053 550.5 1018.5 c 128,-1,74
 601 984 601 984 657 950 c 1,75,76
 698 977 698 977 733 1007 c 128,-1,77
 768 1037 768 1037 793.5 1072.5 c 128,-1,78
 819 1108 819 1108 833.5 1149 c 128,-1,79
 848 1190 848 1190 848 1239 c 0,60,61
EndSplineSet
EndChar

StartChar: nine
Encoding: 57 57 28
Width: 1075
Flags: W
LayerCount: 2
Fore
SplineSet
512 670 m 0,0,1
 566 670 566 670 615.5 698 c 128,-1,2
 665 726 665 726 702.5 776.5 c 128,-1,3
 740 827 740 827 762 898 c 128,-1,4
 784 969 784 969 784 1055 c 0,5,6
 784 1150 784 1150 765.5 1222.5 c 128,-1,7
 747 1295 747 1295 712.5 1343.5 c 128,-1,8
 678 1392 678 1392 630 1417 c 128,-1,9
 582 1442 582 1442 524 1442 c 0,10,11
 473 1442 473 1442 427.5 1414.5 c 128,-1,12
 382 1387 382 1387 348 1336 c 128,-1,13
 314 1285 314 1285 294 1213 c 128,-1,14
 274 1141 274 1141 274 1051 c 0,15,16
 274 964 274 964 288.5 893.5 c 128,-1,17
 303 823 303 823 333 773.5 c 128,-1,18
 363 724 363 724 407.5 697 c 128,-1,19
 452 670 452 670 512 670 c 0,0,1
338 37 m 1,20,21
 379 55 379 55 425.5 83.5 c 128,-1,22
 472 112 472 112 519.5 155 c 128,-1,23
 567 198 567 198 612 256.5 c 128,-1,24
 657 315 657 315 695 392 c 128,-1,25
 733 469 733 469 761.5 567.5 c 128,-1,26
 790 666 790 666 803 788 c 1,27,28
 792 771 792 771 769 741 c 128,-1,29
 746 711 746 711 709 682 c 128,-1,30
 672 653 672 653 620 631.5 c 128,-1,31
 568 610 568 610 500 610 c 0,32,33
 405 610 405 610 331 642 c 128,-1,34
 257 674 257 674 206 728.5 c 128,-1,35
 155 783 155 783 128.5 855 c 128,-1,36
 102 927 102 927 102 1008 c 0,37,38
 102 1122 102 1122 136 1212 c 128,-1,39
 170 1302 170 1302 228 1364.5 c 128,-1,40
 286 1427 286 1427 364 1460 c 128,-1,41
 442 1493 442 1493 530 1493 c 0,42,43
 629 1493 629 1493 710 1453 c 128,-1,44
 791 1413 791 1413 848.5 1335 c 128,-1,45
 906 1257 906 1257 937.5 1141 c 128,-1,46
 969 1025 969 1025 969 874 c 0,47,48
 969 758 969 758 944 651.5 c 128,-1,49
 919 545 919 545 875 451.5 c 128,-1,50
 831 358 831 358 771.5 280 c 128,-1,51
 712 202 712 202 643.5 143 c 128,-1,52
 575 84 575 84 501 47 c 128,-1,53
 427 10 427 10 354 -2 c 1,54,-1
 338 37 l 1,20,21
EndSplineSet
EndChar

StartChar: colon
Encoding: 58 58 29
Width: 430
Flags: W
LayerCount: 2
Fore
SplineSet
123 154 m 0,0,1
 123 173 123 173 130 190 c 128,-1,2
 137 207 137 207 149.5 219.5 c 128,-1,3
 162 232 162 232 179 239 c 128,-1,4
 196 246 196 246 215 246 c 256,5,6
 234 246 234 246 251 239 c 128,-1,7
 268 232 268 232 280.5 219.5 c 128,-1,8
 293 207 293 207 300 190 c 128,-1,9
 307 173 307 173 307 154 c 0,10,11
 307 134 307 134 300 117.5 c 128,-1,12
 293 101 293 101 280.5 88 c 128,-1,13
 268 75 268 75 251 68 c 128,-1,14
 234 61 234 61 215 61 c 256,15,16
 196 61 196 61 179 68 c 128,-1,17
 162 75 162 75 149.5 88 c 128,-1,18
 137 101 137 101 130 117.5 c 128,-1,19
 123 134 123 134 123 154 c 0,0,1
123 625 m 0,20,21
 123 644 123 644 130 661 c 128,-1,22
 137 678 137 678 149.5 690.5 c 128,-1,23
 162 703 162 703 179 710 c 128,-1,24
 196 717 196 717 215 717 c 256,25,26
 234 717 234 717 251 710 c 128,-1,27
 268 703 268 703 280.5 690.5 c 128,-1,28
 293 678 293 678 300 661 c 128,-1,29
 307 644 307 644 307 625 c 0,30,31
 307 605 307 605 300 588.5 c 128,-1,32
 293 572 293 572 280.5 559 c 128,-1,33
 268 546 268 546 251 539 c 128,-1,34
 234 532 234 532 215 532 c 256,35,36
 196 532 196 532 179 539 c 128,-1,37
 162 546 162 546 149.5 559 c 128,-1,38
 137 572 137 572 130 588.5 c 128,-1,39
 123 605 123 605 123 625 c 0,20,21
EndSplineSet
EndChar

StartChar: semicolon
Encoding: 59 59 30
Width: 430
Flags: W
LayerCount: 2
Fore
SplineSet
123 625 m 0,0,1
 123 644 123 644 130 661 c 128,-1,2
 137 678 137 678 149.5 690.5 c 128,-1,3
 162 703 162 703 179 710 c 128,-1,4
 196 717 196 717 215 717 c 256,5,6
 234 717 234 717 251 710 c 128,-1,7
 268 703 268 703 280.5 690.5 c 128,-1,8
 293 678 293 678 300 661 c 128,-1,9
 307 644 307 644 307 625 c 0,10,11
 307 605 307 605 300 588.5 c 128,-1,12
 293 572 293 572 280.5 559 c 128,-1,13
 268 546 268 546 251 539 c 128,-1,14
 234 532 234 532 215 532 c 256,15,16
 196 532 196 532 179 539 c 128,-1,17
 162 546 162 546 149.5 559 c 128,-1,18
 137 572 137 572 130 588.5 c 128,-1,19
 123 605 123 605 123 625 c 0,0,1
225 246 m 0,20,21
 272 246 272 246 300 211 c 128,-1,22
 328 176 328 176 328 123 c 0,23,24
 328 71 328 71 305 27 c 128,-1,25
 282 -17 282 -17 254 -50 c 0,26,27
 221 -89 221 -89 180 -121 c 1,28,-1
 152 -94 l 1,29,30
 161 -88 161 -88 173 -74.5 c 128,-1,31
 185 -61 185 -61 195.5 -44 c 128,-1,32
 206 -27 206 -27 213.5 -8 c 128,-1,33
 221 11 221 11 221 29 c 0,34,35
 221 41 221 41 206 49 c 128,-1,36
 191 57 191 57 173 69 c 128,-1,37
 155 81 155 81 140 100 c 128,-1,38
 125 119 125 119 125 152 c 0,39,40
 125 171 125 171 133.5 188 c 128,-1,41
 142 205 142 205 156 218 c 128,-1,42
 170 231 170 231 188 238.5 c 128,-1,43
 206 246 206 246 225 246 c 0,20,21
EndSplineSet
EndChar

StartChar: less
Encoding: 60 60 31
Width: 932
Flags: W
LayerCount: 2
Fore
SplineSet
809 328 m 1,0,-1
 778 266 l 1,1,-1
 123 645 l 1,2,-1
 778 1024 l 1,3,-1
 809 963 l 1,4,-1
 276 645 l 1,5,-1
 809 328 l 1,0,-1
EndSplineSet
EndChar

StartChar: equal
Encoding: 61 61 32
Width: 809
Flags: W
LayerCount: 2
Fore
SplineSet
123 748 m 1,0,-1
 686 748 l 1,1,-1
 686 686 l 1,2,-1
 123 686 l 1,3,-1
 123 748 l 1,0,-1
123 604 m 1,4,-1
 686 604 l 1,5,-1
 686 543 l 1,6,-1
 123 543 l 1,7,-1
 123 604 l 1,4,-1
EndSplineSet
EndChar

StartChar: greater
Encoding: 62 62 33
Width: 932
Flags: W
LayerCount: 2
Fore
SplineSet
655 645 m 1,0,-1
 123 963 l 1,1,-1
 154 1024 l 1,2,-1
 809 645 l 1,3,-1
 154 266 l 1,4,-1
 123 328 l 1,5,-1
 655 645 l 1,0,-1
EndSplineSet
EndChar

StartChar: question
Encoding: 63 63 34
Width: 891
Flags: W
LayerCount: 2
Fore
SplineSet
371 375 m 1,0,1
 369 389 369 389 368 403 c 1,2,3
 366 415 366 415 365.5 428.5 c 128,-1,4
 365 442 365 442 365 453 c 0,5,6
 365 565 365 565 388 646 c 128,-1,7
 411 727 411 727 445.5 785.5 c 128,-1,8
 480 844 480 844 520.5 886 c 128,-1,9
 561 928 561 928 595.5 962 c 128,-1,10
 630 996 630 996 653 1028 c 128,-1,11
 676 1060 676 1060 676 1100 c 0,12,13
 676 1143 676 1143 657 1178 c 128,-1,14
 638 1213 638 1213 607.5 1238 c 128,-1,15
 577 1263 577 1263 537 1276.5 c 128,-1,16
 497 1290 497 1290 455 1290 c 0,17,18
 416 1290 416 1290 378.5 1277.5 c 128,-1,19
 341 1265 341 1265 311.5 1238.5 c 128,-1,20
 282 1212 282 1212 264 1171.5 c 128,-1,21
 246 1131 246 1131 246 1075 c 0,22,23
 246 1022 246 1022 262 982.5 c 128,-1,24
 278 943 278 943 297 916.5 c 128,-1,25
 316 890 316 890 331.5 877 c 128,-1,26
 347 864 347 864 346 864 c 2,27,-1
 322 823 l 2,28,29
 321 823 321 823 306 827.5 c 128,-1,30
 291 832 291 832 269 843 c 128,-1,31
 247 854 247 854 221.5 872.5 c 128,-1,32
 196 891 196 891 174 919 c 128,-1,33
 152 947 152 947 137.5 985.5 c 128,-1,34
 123 1024 123 1024 123 1075 c 0,35,36
 123 1136 123 1136 152 1183.5 c 128,-1,37
 181 1231 181 1231 227.5 1262.5 c 128,-1,38
 274 1294 274 1294 331.5 1310.5 c 128,-1,39
 389 1327 389 1327 446 1327 c 0,40,41
 510 1327 510 1327 568 1307.5 c 128,-1,42
 626 1288 626 1288 670.5 1250 c 128,-1,43
 715 1212 715 1212 741.5 1155.5 c 128,-1,44
 768 1099 768 1099 768 1024 c 0,45,46
 768 977 768 977 742 938 c 128,-1,47
 716 899 716 899 677 859.5 c 128,-1,48
 638 820 638 820 592 776.5 c 128,-1,49
 546 733 546 733 507 679 c 128,-1,50
 468 625 468 625 442 555.5 c 128,-1,51
 416 486 416 486 416 395 c 2,52,-1
 416 375 l 1,53,-1
 371 375 l 1,0,1
307 92 m 256,54,55
 307 111 307 111 314 128 c 128,-1,56
 321 145 321 145 333.5 157.5 c 128,-1,57
 346 170 346 170 363 177 c 128,-1,58
 380 184 380 184 399 184 c 256,59,60
 418 184 418 184 435 177 c 128,-1,61
 452 170 452 170 465 157.5 c 128,-1,62
 478 145 478 145 485 128 c 128,-1,63
 492 111 492 111 492 92 c 256,64,65
 492 73 492 73 485 56 c 128,-1,66
 478 39 478 39 465 26.5 c 128,-1,67
 452 14 452 14 435 7 c 128,-1,68
 418 0 418 0 399 0 c 256,69,70
 380 0 380 0 363 7 c 128,-1,71
 346 14 346 14 333.5 26.5 c 128,-1,72
 321 39 321 39 314 56 c 128,-1,73
 307 73 307 73 307 92 c 256,54,55
EndSplineSet
EndChar

StartChar: at
Encoding: 64 64 35
Width: 1188
Flags: W
LayerCount: 2
Fore
SplineSet
1065 487 m 0,0,1
 1065 415 1065 415 1048 357 c 128,-1,2
 1031 299 1031 299 1003.5 258.5 c 128,-1,3
 976 218 976 218 940.5 196 c 128,-1,4
 905 174 905 174 868 174 c 0,5,6
 844 174 844 174 821.5 181.5 c 128,-1,7
 799 189 799 189 780 205 c 128,-1,8
 761 221 761 221 747 244 c 128,-1,9
 733 267 733 267 727 299 c 1,10,11
 695 236 695 236 645 206 c 128,-1,12
 595 176 595 176 541 176 c 0,13,14
 488 176 488 176 448.5 197 c 128,-1,15
 409 218 409 218 383 252.5 c 128,-1,16
 357 287 357 287 344.5 331.5 c 128,-1,17
 332 376 332 376 332 424 c 0,18,19
 332 476 332 476 347.5 527 c 128,-1,20
 363 578 363 578 393 618.5 c 128,-1,21
 423 659 423 659 468 684 c 128,-1,22
 513 709 513 709 573 709 c 0,23,24
 626 709 626 709 674.5 684 c 128,-1,25
 723 659 723 659 752 606 c 1,26,-1
 756 662 l 2,27,28
 758 680 758 680 779 685 c 128,-1,29
 800 690 800 690 823 690 c 0,30,31
 837 690 837 690 843.5 685 c 128,-1,32
 850 680 850 680 850 666 c 0,33,34
 850 659 850 659 845 635.5 c 128,-1,35
 840 612 840 612 834.5 571.5 c 128,-1,36
 829 531 829 531 824 474 c 128,-1,37
 819 417 819 417 819 342 c 0,38,39
 819 289 819 289 834 264.5 c 128,-1,40
 849 240 849 240 872 240 c 0,41,42
 914 240 914 240 933 301 c 128,-1,43
 952 362 952 362 952 487 c 0,44,45
 952 567 952 567 931.5 633.5 c 128,-1,46
 911 700 911 700 869 748 c 128,-1,47
 827 796 827 796 762.5 823 c 128,-1,48
 698 850 698 850 610 850 c 0,49,50
 546 850 546 850 483 824 c 128,-1,51
 420 798 420 798 370 745.5 c 128,-1,52
 320 693 320 693 289 613.5 c 128,-1,53
 258 534 258 534 258 426 c 0,54,55
 258 346 258 346 282.5 279 c 128,-1,56
 307 212 307 212 353 163.5 c 128,-1,57
 399 115 399 115 463.5 88 c 128,-1,58
 528 61 528 61 608 61 c 0,59,60
 648 61 648 61 683 65.5 c 128,-1,61
 718 70 718 70 744 76 c 0,62,63
 774 83 774 83 799 92 c 1,64,-1
 815 49 l 1,65,66
 788 35 788 35 755 24 c 0,67,68
 727 15 727 15 689.5 7.5 c 128,-1,69
 652 0 652 0 608 0 c 0,70,71
 485 0 485 0 393.5 37.5 c 128,-1,72
 302 75 302 75 242 137 c 128,-1,73
 182 199 182 199 152.5 278.5 c 128,-1,74
 123 358 123 358 123 442 c 0,75,76
 123 529 123 529 154 613 c 128,-1,77
 185 697 185 697 246.5 763.5 c 128,-1,78
 308 830 308 830 399 870.5 c 128,-1,79
 490 911 490 911 610 911 c 0,80,81
 710 911 710 911 793.5 879.5 c 128,-1,82
 877 848 877 848 937.5 791.5 c 128,-1,83
 998 735 998 735 1031.5 657 c 128,-1,84
 1065 579 1065 579 1065 487 c 0,0,1
729 504 m 0,85,86
 729 540 729 540 718.5 568 c 128,-1,87
 708 596 708 596 690.5 614.5 c 128,-1,88
 673 633 673 633 650 643 c 128,-1,89
 627 653 627 653 602 653 c 0,90,91
 564 653 564 653 536 633.5 c 128,-1,92
 508 614 508 614 489 582 c 128,-1,93
 470 550 470 550 460.5 510 c 128,-1,94
 451 470 451 470 451 428 c 0,95,96
 451 390 451 390 459 355 c 128,-1,97
 467 320 467 320 483 293 c 128,-1,98
 499 266 499 266 523.5 249.5 c 128,-1,99
 548 233 548 233 580 233 c 0,100,101
 605 233 605 233 631.5 249.5 c 128,-1,102
 658 266 658 266 679.5 300 c 128,-1,103
 701 334 701 334 715 385 c 128,-1,104
 729 436 729 436 729 504 c 0,85,86
EndSplineSet
EndChar

StartChar: A
Encoding: 65 65 36
Width: 1352
Flags: W
LayerCount: 2
Fore
SplineSet
969 358 m 0,0,1
 969 270 969 270 973.5 219 c 128,-1,2
 978 168 978 168 987.5 142 c 128,-1,3
 997 116 997 116 1012 109 c 128,-1,4
 1027 102 1027 102 1047 102 c 0,5,6
 1074 102 1074 102 1103 119 c 128,-1,7
 1132 136 1132 136 1160 163 c 128,-1,8
 1188 190 1188 190 1213.5 223 c 128,-1,9
 1239 256 1239 256 1260.5 287.5 c 128,-1,10
 1282 319 1282 319 1297.5 346.5 c 128,-1,11
 1313 374 1313 374 1321 389 c 2,12,-1
 1352 451 l 1,13,-1
 1393 420 l 1,14,-1
 1362 358 l 2,15,16
 1354 343 1354 343 1336 309.5 c 128,-1,17
 1318 276 1318 276 1291 235.5 c 128,-1,18
 1264 195 1264 195 1230 151.5 c 128,-1,19
 1196 108 1196 108 1157 72 c 128,-1,20
 1118 36 1118 36 1075 13 c 128,-1,21
 1032 -10 1032 -10 987 -10 c 0,22,23
 946 -10 946 -10 914 4 c 128,-1,24
 882 18 882 18 860 53.5 c 128,-1,25
 838 89 838 89 826.5 150.5 c 128,-1,26
 815 212 815 212 815 307 c 0,27,28
 815 344 815 344 816.5 377.5 c 128,-1,29
 818 411 818 411 821 459 c 1,30,31
 770 360 770 360 703.5 268 c 128,-1,32
 637 176 637 176 561 105 c 128,-1,33
 485 34 485 34 402.5 -8.5 c 128,-1,34
 320 -51 320 -51 236 -51 c 0,35,36
 183 -51 183 -51 135 -32 c 128,-1,37
 87 -13 87 -13 50 26.5 c 128,-1,38
 13 66 13 66 -9 128 c 128,-1,39
 -31 190 -31 190 -31 276 c 0,40,41
 -31 414 -31 414 -0.5 547 c 128,-1,42
 30 680 30 680 84 804.5 c 128,-1,43
 138 929 138 929 211 1042.5 c 128,-1,44
 284 1156 284 1156 368 1253 c 128,-1,45
 452 1350 452 1350 544 1428.5 c 128,-1,46
 636 1507 636 1507 728 1563 c 128,-1,47
 820 1619 820 1619 907.5 1649 c 128,-1,48
 995 1679 995 1679 1071 1679 c 0,49,50
 1155 1679 1155 1679 1205 1636.5 c 128,-1,51
 1255 1594 1255 1594 1255 1516 c 0,52,53
 1255 1464 1255 1464 1234.5 1414.5 c 128,-1,54
 1214 1365 1214 1365 1180.5 1319.5 c 128,-1,55
 1147 1274 1147 1274 1104.5 1233.5 c 128,-1,56
 1062 1193 1062 1193 1019 1160.5 c 128,-1,57
 976 1128 976 1128 935.5 1103.5 c 128,-1,58
 895 1079 895 1079 866 1065 c 1,59,-1
 836 1106 l 1,60,61
 861 1119 861 1119 893.5 1142 c 128,-1,62
 926 1165 926 1165 959 1196 c 128,-1,63
 992 1227 992 1227 1023.5 1264.5 c 128,-1,64
 1055 1302 1055 1302 1080 1343.5 c 128,-1,65
 1105 1385 1105 1385 1120 1429.5 c 128,-1,66
 1135 1474 1135 1474 1135 1518 c 0,67,68
 1135 1561 1135 1561 1112.5 1589.5 c 128,-1,69
 1090 1618 1090 1618 1040 1618 c 0,70,71
 981 1618 981 1618 912 1587.5 c 128,-1,72
 843 1557 843 1557 770 1501 c 128,-1,73
 697 1445 697 1445 623.5 1367.5 c 128,-1,74
 550 1290 550 1290 482 1196.5 c 128,-1,75
 414 1103 414 1103 355.5 996.5 c 128,-1,76
 297 890 297 890 253.5 775.5 c 128,-1,77
 210 661 210 661 185 542.5 c 128,-1,78
 160 424 160 424 160 307 c 0,79,80
 160 253 160 253 168 207.5 c 128,-1,81
 176 162 176 162 194 129.5 c 128,-1,82
 212 97 212 97 241 79 c 128,-1,83
 270 61 270 61 313 61 c 0,84,85
 367 61 367 61 419 85.5 c 128,-1,86
 471 110 471 110 520 152 c 128,-1,87
 569 194 569 194 614.5 250 c 128,-1,88
 660 306 660 306 700 370 c 128,-1,89
 740 434 740 434 774.5 501.5 c 128,-1,90
 809 569 809 569 836 635 c 1,91,92
 843 710 843 710 852 778.5 c 128,-1,93
 861 847 861 847 870 901 c 128,-1,94
 879 955 879 955 887 990.5 c 128,-1,95
 895 1026 895 1026 901 1034 c 1,96,97
 905 1041 905 1041 918 1050 c 128,-1,98
 931 1059 931 1059 947.5 1066.5 c 128,-1,99
 964 1074 964 1074 981 1079.5 c 128,-1,100
 998 1085 998 1085 1010 1085 c 0,101,102
 1040 1085 1040 1085 1040 1055 c 0,103,104
 1040 1027 1040 1027 1036 990 c 128,-1,105
 1032 953 1032 953 1025 913 c 128,-1,106
 1018 873 1018 873 1008.5 832.5 c 128,-1,107
 999 792 999 792 987 758 c 1,108,109
 979 649 979 649 974 548.5 c 128,-1,110
 969 448 969 448 969 358 c 0,0,1
EndSplineSet
EndChar

StartChar: B
Encoding: 66 66 37
Width: 1402
Flags: W
LayerCount: 2
Fore
SplineSet
1173 1372 m 0,0,1
 1173 1283 1173 1283 1138 1204.5 c 128,-1,2
 1103 1126 1103 1126 1049.5 1060 c 128,-1,3
 996 994 996 994 932.5 940.5 c 128,-1,4
 869 887 869 887 812 848 c 1,5,6
 892 841 892 841 971.5 809.5 c 128,-1,7
 1051 778 1051 778 1114.5 722.5 c 128,-1,8
 1178 667 1178 667 1217.5 588.5 c 128,-1,9
 1257 510 1257 510 1257 410 c 0,10,11
 1257 328 1257 328 1233.5 262.5 c 128,-1,12
 1210 197 1210 197 1171 145.5 c 128,-1,13
 1132 94 1132 94 1082.5 57 c 128,-1,14
 1033 20 1033 20 982 -4 c 128,-1,15
 931 -28 931 -28 881.5 -39.5 c 128,-1,16
 832 -51 832 -51 794 -51 c 0,17,18
 698 -51 698 -51 634.5 -28 c 128,-1,19
 571 -5 571 -5 533.5 28.5 c 128,-1,20
 496 62 496 62 481 99 c 128,-1,21
 466 136 466 136 466 164 c 0,22,23
 466 207 466 207 484.5 246.5 c 128,-1,24
 503 286 503 286 534 318 c 128,-1,25
 565 350 565 350 606 374.5 c 128,-1,26
 647 399 647 399 691 412 c 1,27,-1
 712 379 l 1,28,29
 649 345 649 345 619 291.5 c 128,-1,30
 589 238 589 238 589 184 c 0,31,32
 589 154 589 154 601.5 121.5 c 128,-1,33
 614 89 614 89 639.5 62 c 128,-1,34
 665 35 665 35 703.5 17.5 c 128,-1,35
 742 0 742 0 794 0 c 0,36,37
 870 0 870 0 936 28.5 c 128,-1,38
 1002 57 1002 57 1050.5 107.5 c 128,-1,39
 1099 158 1099 158 1126.5 226 c 128,-1,40
 1154 294 1154 294 1154 373 c 0,41,42
 1154 454 1154 454 1120.5 516 c 128,-1,43
 1087 578 1087 578 1031.5 620.5 c 128,-1,44
 976 663 976 663 903.5 685 c 128,-1,45
 831 707 831 707 753 707 c 0,46,47
 721 707 721 707 690 703.5 c 128,-1,48
 659 700 659 700 631.5 694.5 c 128,-1,49
 604 689 604 689 582 684 c 128,-1,50
 560 679 560 679 548 676 c 1,51,-1
 538 686 l 1,52,-1
 630 829 l 1,53,54
 641 832 641 832 655 836 c 0,55,56
 667 839 667 839 684 842.5 c 128,-1,57
 701 846 701 846 722 848 c 1,58,59
 770 877 770 877 822.5 921.5 c 128,-1,60
 875 966 875 966 918.5 1024.5 c 128,-1,61
 962 1083 962 1083 990.5 1156 c 128,-1,62
 1019 1229 1019 1229 1019 1315 c 0,63,64
 1019 1460 1019 1460 950 1534 c 128,-1,65
 881 1608 881 1608 753 1608 c 0,66,67
 679 1608 679 1608 604 1576.5 c 128,-1,68
 529 1545 529 1545 459.5 1480 c 128,-1,69
 390 1415 390 1415 329.5 1316 c 128,-1,70
 269 1217 269 1217 224.5 1083 c 128,-1,71
 180 949 180 949 154 778 c 128,-1,72
 128 607 128 607 128 399 c 0,73,74
 128 313 128 313 135.5 240 c 128,-1,75
 143 167 143 167 158.5 113.5 c 128,-1,76
 174 60 174 60 197 30 c 128,-1,77
 220 0 220 0 251 0 c 256,78,79
 282 0 282 0 300.5 45.5 c 128,-1,80
 319 91 319 91 328.5 164.5 c 128,-1,81
 338 238 338 238 340.5 329 c 128,-1,82
 343 420 343 420 343 512 c 0,83,84
 343 652 343 652 339 775.5 c 128,-1,85
 335 899 335 899 330.5 996 c 128,-1,86
 326 1093 326 1093 322 1158 c 128,-1,87
 318 1223 318 1223 317 1245 c 1,88,-1
 433 1280 l 1,89,90
 438 1272 438 1272 447 1232 c 128,-1,91
 456 1192 456 1192 465 1126.5 c 128,-1,92
 474 1061 474 1061 480.5 974.5 c 128,-1,93
 487 888 487 888 487 788 c 0,94,95
 487 619 487 619 477.5 491.5 c 128,-1,96
 468 364 468 364 451 270.5 c 128,-1,97
 434 177 434 177 411.5 115 c 128,-1,98
 389 53 389 53 362.5 16.5 c 128,-1,99
 336 -20 336 -20 307.5 -35.5 c 128,-1,100
 279 -51 279 -51 251 -51 c 0,101,102
 190 -51 190 -51 141.5 -9.5 c 128,-1,103
 93 32 93 32 59 100.5 c 128,-1,104
 25 169 25 169 7 257.5 c 128,-1,105
 -11 346 -11 346 -11 440 c 0,106,107
 -11 575 -11 575 14 719 c 128,-1,108
 39 863 39 863 88 1000.5 c 128,-1,109
 137 1138 137 1138 209 1261.5 c 128,-1,110
 281 1385 281 1385 375 1477.5 c 128,-1,111
 469 1570 469 1570 584.5 1624.5 c 128,-1,112
 700 1679 700 1679 835 1679 c 0,113,114
 912 1679 912 1679 974.5 1658.5 c 128,-1,115
 1037 1638 1037 1638 1081 1598.5 c 128,-1,116
 1125 1559 1125 1559 1149 1502 c 128,-1,117
 1173 1445 1173 1445 1173 1372 c 0,0,1
EndSplineSet
EndChar

StartChar: C
Encoding: 67 67 38
Width: 1116
Flags: W
LayerCount: 2
Fore
SplineSet
153 760 m 0,0,1
 153 580 153 580 194 446 c 128,-1,2
 235 312 235 312 302.5 223 c 128,-1,3
 370 134 370 134 456.5 89.5 c 128,-1,4
 543 45 543 45 634 45 c 0,5,6
 699 45 699 45 762.5 69 c 128,-1,7
 826 93 826 93 886 141 c 128,-1,8
 946 189 946 189 1001.5 261 c 128,-1,9
 1057 333 1057 333 1105 430 c 1,10,-1
 1116 451 l 1,11,-1
 1157 420 l 1,12,-1
 1146 399 l 1,13,14
 1091 288 1091 288 1024.5 204 c 128,-1,15
 958 120 958 120 883 63.5 c 128,-1,16
 808 7 808 7 727.5 -22 c 128,-1,17
 647 -51 647 -51 563 -51 c 0,18,19
 491 -51 491 -51 420.5 -30.5 c 128,-1,20
 350 -10 350 -10 286.5 31.5 c 128,-1,21
 223 73 223 73 168.5 136 c 128,-1,22
 114 199 114 199 74 283.5 c 128,-1,23
 34 368 34 368 11.5 474.5 c 128,-1,24
 -11 581 -11 581 -11 709 c 0,25,26
 -11 878 -11 878 17.5 1015.5 c 128,-1,27
 46 1153 46 1153 94.5 1260.5 c 128,-1,28
 143 1368 143 1368 207.5 1447 c 128,-1,29
 272 1526 272 1526 343 1577.5 c 128,-1,30
 414 1629 414 1629 488 1654 c 128,-1,31
 562 1679 562 1679 630 1679 c 0,32,33
 719 1679 719 1679 794 1648.5 c 128,-1,34
 869 1618 869 1618 923 1562.5 c 128,-1,35
 977 1507 977 1507 1007.5 1427.5 c 128,-1,36
 1038 1348 1038 1348 1038 1251 c 0,37,38
 1038 1158 1038 1158 1009.5 1076 c 128,-1,39
 981 994 981 994 933.5 932.5 c 128,-1,40
 886 871 886 871 824.5 835 c 128,-1,41
 763 799 763 799 696 799 c 0,42,43
 651 799 651 799 612 815 c 128,-1,44
 573 831 573 831 544 860 c 128,-1,45
 515 889 515 889 498 931 c 128,-1,46
 481 973 481 973 481 1024 c 0,47,48
 481 1073 481 1073 496 1118.5 c 128,-1,49
 511 1164 511 1164 534 1202.5 c 128,-1,50
 557 1241 557 1241 584.5 1270.5 c 128,-1,51
 612 1300 612 1300 638 1317 c 1,52,-1
 665 1290 l 1,53,54
 644 1266 644 1266 625.5 1238.5 c 128,-1,55
 607 1211 607 1211 593 1179.5 c 128,-1,56
 579 1148 579 1148 571 1112 c 128,-1,57
 563 1076 563 1076 563 1034 c 0,58,59
 563 991 563 991 573.5 957 c 128,-1,60
 584 923 584 923 602.5 899 c 128,-1,61
 621 875 621 875 645 862.5 c 128,-1,62
 669 850 669 850 696 850 c 0,63,64
 733 850 733 850 770 877.5 c 128,-1,65
 807 905 807 905 836 958.5 c 128,-1,66
 865 1012 865 1012 883 1090 c 128,-1,67
 901 1168 901 1168 901 1270 c 0,68,69
 901 1362 901 1362 880.5 1429.5 c 128,-1,70
 860 1497 860 1497 824 1541 c 128,-1,71
 788 1585 788 1585 739 1606.5 c 128,-1,72
 690 1628 690 1628 634 1628 c 0,73,74
 594 1628 594 1628 543 1610.5 c 128,-1,75
 492 1593 492 1593 438.5 1553 c 128,-1,76
 385 1513 385 1513 334 1447.5 c 128,-1,77
 283 1382 283 1382 242.5 1285.5 c 128,-1,78
 202 1189 202 1189 177.5 1059 c 128,-1,79
 153 929 153 929 153 760 c 0,0,1
EndSplineSet
EndChar

StartChar: D
Encoding: 68 68 39
Width: 1554
Flags: W
LayerCount: 2
Fore
SplineSet
558 1679 m 0,0,1
 756 1679 756 1679 916.5 1615.5 c 128,-1,2
 1077 1552 1077 1552 1191 1439 c 128,-1,3
 1305 1326 1305 1326 1367 1170 c 128,-1,4
 1429 1014 1429 1014 1429 829 c 0,5,6
 1429 710 1429 710 1406 599 c 128,-1,7
 1383 488 1383 488 1340 390 c 128,-1,8
 1297 292 1297 292 1234.5 211 c 128,-1,9
 1172 130 1172 130 1093.5 71.5 c 128,-1,10
 1015 13 1015 13 921.5 -19 c 128,-1,11
 828 -51 828 -51 722 -51 c 0,12,13
 614 -51 614 -51 504 -31 c 128,-1,14
 394 -11 394 -11 286 12 c 1,15,16
 249 -9 249 -9 210 -24.5 c 128,-1,17
 171 -40 171 -40 132 -50.5 c 128,-1,18
 93 -61 93 -61 55.5 -66.5 c 128,-1,19
 18 -72 18 -72 -15 -72 c 0,20,21
 -115 -72 -115 -72 -167.5 -49 c 128,-1,22
 -220 -26 -220 -26 -220 20 c 0,23,24
 -220 47 -220 47 -205.5 68 c 128,-1,25
 -191 89 -191 89 -157 103.5 c 128,-1,26
 -123 118 -123 118 -68.5 125.5 c 128,-1,27
 -14 133 -14 133 67 133 c 0,28,29
 130 133 130 133 191 126.5 c 128,-1,30
 252 120 252 120 312 111 c 1,31,-1
 339 139 l 1,32,33
 360 164 360 164 371 202.5 c 128,-1,34
 382 241 382 241 387 302 c 128,-1,35
 392 363 392 363 393 451.5 c 128,-1,36
 394 540 394 540 394 666 c 0,37,38
 394 788 394 788 395.5 874.5 c 128,-1,39
 397 961 397 961 403 1023 c 128,-1,40
 409 1085 409 1085 421 1128.5 c 128,-1,41
 433 1172 433 1172 453.5 1208.5 c 128,-1,42
 474 1245 474 1245 505 1280.5 c 128,-1,43
 536 1316 536 1316 579 1362 c 1,44,-1
 630 1317 l 1,45,46
 608 1296 608 1296 595.5 1265.5 c 128,-1,47
 583 1235 583 1235 577 1193.5 c 128,-1,48
 571 1152 571 1152 569.5 1099.5 c 128,-1,49
 568 1047 568 1047 568 981 c 2,50,-1
 568 418 l 2,51,52
 568 353 568 353 554 304.5 c 128,-1,53
 540 256 540 256 516.5 218 c 128,-1,54
 493 180 493 180 463 150 c 128,-1,55
 433 120 433 120 401 94 c 1,56,57
 460 82 460 82 516 70 c 128,-1,58
 572 58 572 58 624.5 48 c 128,-1,59
 677 38 677 38 725.5 31.5 c 128,-1,60
 774 25 774 25 818 25 c 0,61,62
 900 25 900 25 964 61 c 128,-1,63
 1028 97 1028 97 1075 159.5 c 128,-1,64
 1122 222 1122 222 1154.5 306.5 c 128,-1,65
 1187 391 1187 391 1207 488 c 128,-1,66
 1227 585 1227 585 1235.5 691 c 128,-1,67
 1244 797 1244 797 1244 901 c 0,68,69
 1244 1066 1244 1066 1202 1197 c 128,-1,70
 1160 1328 1160 1328 1077.5 1419.5 c 128,-1,71
 995 1511 995 1511 872.5 1559.5 c 128,-1,72
 750 1608 750 1608 589 1608 c 0,73,74
 473 1608 473 1608 387 1589.5 c 128,-1,75
 301 1571 301 1571 239.5 1540.5 c 128,-1,76
 178 1510 178 1510 139 1471 c 128,-1,77
 100 1432 100 1432 77.5 1390.5 c 128,-1,78
 55 1349 55 1349 46.5 1308 c 128,-1,79
 38 1267 38 1267 38 1233 c 0,80,81
 38 1193 38 1193 44.5 1154.5 c 128,-1,82
 51 1116 51 1116 70.5 1086 c 128,-1,83
 90 1056 90 1056 126 1038 c 128,-1,84
 162 1020 162 1020 222 1020 c 0,85,86
 242 1020 242 1020 255 1022.5 c 128,-1,87
 268 1025 268 1025 277 1029 c 0,88,89
 287 1033 287 1033 294 1038 c 1,90,-1
 306 979 l 1,91,92
 291 968 291 968 255.5 960 c 128,-1,93
 220 952 220 952 179 952 c 0,94,95
 119 952 119 952 67.5 973 c 128,-1,96
 16 994 16 994 -22 1030.5 c 128,-1,97
 -60 1067 -60 1067 -81.5 1115 c 128,-1,98
 -103 1163 -103 1163 -103 1217 c 0,99,100
 -103 1310 -103 1310 -54 1393.5 c 128,-1,101
 -5 1477 -5 1477 83 1540.5 c 128,-1,102
 171 1604 171 1604 292.5 1641.5 c 128,-1,103
 414 1679 414 1679 558 1679 c 0,0,1
-56 61 m 0,104,105
 -72 61 -72 61 -90 60 c 128,-1,106
 -108 59 -108 59 -123.5 55 c 128,-1,107
 -139 51 -139 51 -149 43 c 128,-1,108
 -159 35 -159 35 -159 20 c 0,109,110
 -159 0 -159 0 -126 -10 c 128,-1,111
 -93 -20 -93 -20 -15 -20 c 0,112,113
 45 -20 45 -20 99.5 -7 c 128,-1,114
 154 6 154 6 202 31 c 1,115,116
 136 43 136 43 71 52 c 128,-1,117
 6 61 6 61 -56 61 c 0,104,105
EndSplineSet
EndChar

StartChar: E
Encoding: 69 69 40
Width: 1269
Flags: W
LayerCount: 2
Fore
SplineSet
532 0 m 0,0,1
 632 0 632 0 707 36 c 128,-1,2
 782 72 782 72 835 131 c 1,3,4
 771 143 771 143 717.5 173 c 128,-1,5
 664 203 664 203 625 247.5 c 128,-1,6
 586 292 586 292 564 348.5 c 128,-1,7
 542 405 542 405 542 471 c 0,8,9
 542 536 542 536 565 590.5 c 128,-1,10
 588 645 588 645 627 684.5 c 128,-1,11
 666 724 666 724 717.5 746 c 128,-1,12
 769 768 769 768 825 768 c 0,13,14
 877 768 877 768 925.5 749 c 128,-1,15
 974 730 974 730 1011 693.5 c 128,-1,16
 1048 657 1048 657 1070.5 602.5 c 128,-1,17
 1093 548 1093 548 1093 477 c 0,18,19
 1093 405 1093 405 1062 326 c 128,-1,20
 1031 247 1031 247 974 176 c 1,21,22
 1034 184 1034 184 1079 210 c 128,-1,23
 1124 236 1124 236 1157.5 272 c 128,-1,24
 1191 308 1191 308 1215.5 349.5 c 128,-1,25
 1240 391 1240 391 1259 430 c 2,26,-1
 1269 451 l 1,27,-1
 1310 420 l 1,28,-1
 1300 399 l 1,29,30
 1269 337 1269 337 1231 286 c 128,-1,31
 1193 235 1193 235 1147 199 c 128,-1,32
 1101 163 1101 163 1046 143.5 c 128,-1,33
 991 124 991 124 927 123 c 1,34,35
 850 45 850 45 742 -3 c 128,-1,36
 634 -51 634 -51 501 -51 c 0,37,38
 384 -51 384 -51 288 -12 c 128,-1,39
 192 27 192 27 123.5 94 c 128,-1,40
 55 161 55 161 17 250 c 128,-1,41
 -21 339 -21 339 -21 440 c 0,42,43
 -21 554 -21 554 14.5 638.5 c 128,-1,44
 50 723 50 723 106 783 c 128,-1,45
 162 843 162 843 230.5 882.5 c 128,-1,46
 299 922 299 922 366 946 c 1,47,48
 302 970 302 970 253 1007 c 128,-1,49
 204 1044 204 1044 170.5 1089.5 c 128,-1,50
 137 1135 137 1135 119.5 1186.5 c 128,-1,51
 102 1238 102 1238 102 1290 c 0,52,53
 102 1384 102 1384 141 1456.5 c 128,-1,54
 180 1529 180 1529 242.5 1578.5 c 128,-1,55
 305 1628 305 1628 383.5 1653.5 c 128,-1,56
 462 1679 462 1679 542 1679 c 0,57,58
 608 1679 608 1679 668.5 1663 c 128,-1,59
 729 1647 729 1647 774 1618 c 1,60,61
 798 1623 798 1623 824.5 1625.5 c 128,-1,62
 851 1628 851 1628 880 1628 c 1,63,-1
 880 1587 l 1,64,65
 863 1587 863 1587 848 1586 c 128,-1,66
 833 1585 833 1585 819 1583 c 1,67,68
 848 1555 848 1555 864 1520.5 c 128,-1,69
 880 1486 880 1486 880 1444 c 0,70,71
 880 1405 880 1405 867.5 1373 c 128,-1,72
 855 1341 855 1341 832.5 1318 c 128,-1,73
 810 1295 810 1295 780 1282.5 c 128,-1,74
 750 1270 750 1270 716 1270 c 0,75,76
 678 1270 678 1270 648.5 1282 c 128,-1,77
 619 1294 619 1294 599 1314 c 128,-1,78
 579 1334 579 1334 568 1361 c 128,-1,79
 557 1388 557 1388 557 1417 c 0,80,81
 557 1442 557 1442 565.5 1468 c 128,-1,82
 574 1494 574 1494 591.5 1518 c 128,-1,83
 609 1542 609 1542 636.5 1563 c 128,-1,84
 664 1584 664 1584 702 1599 c 1,85,86
 664 1615 664 1615 622.5 1621.5 c 128,-1,87
 581 1628 581 1628 552 1628 c 0,88,89
 482 1628 482 1628 428.5 1603.5 c 128,-1,90
 375 1579 375 1579 339 1534 c 128,-1,91
 303 1489 303 1489 284.5 1425 c 128,-1,92
 266 1361 266 1361 266 1282 c 0,93,94
 266 1231 266 1231 278 1181.5 c 128,-1,95
 290 1132 290 1132 313 1090.5 c 128,-1,96
 336 1049 336 1049 371 1018.5 c 128,-1,97
 406 988 406 988 452 973 c 1,98,99
 495 984 495 984 529 988.5 c 128,-1,100
 563 993 563 993 583 993 c 0,101,102
 617 993 617 993 632 982 c 128,-1,103
 647 971 647 971 647 954 c 0,104,105
 647 946 647 946 644 938.5 c 128,-1,106
 641 931 641 931 633 925 c 128,-1,107
 625 919 625 919 610.5 915 c 128,-1,108
 596 911 596 911 573 911 c 0,109,110
 544 911 544 911 516 913 c 128,-1,111
 488 915 488 915 462 920 c 1,112,113
 396 903 396 903 341 863 c 128,-1,114
 286 823 286 823 246.5 762 c 128,-1,115
 207 701 207 701 185 620 c 128,-1,116
 163 539 163 539 163 440 c 0,117,118
 163 326 163 326 194 243 c 128,-1,119
 225 160 225 160 277 106 c 128,-1,120
 329 52 329 52 395 26 c 128,-1,121
 461 0 461 0 532 0 c 0,0,1
962 461 m 0,122,123
 962 523 962 523 947.5 568 c 128,-1,124
 933 613 933 613 909 642.5 c 128,-1,125
 885 672 885 672 854 686 c 128,-1,126
 823 700 823 700 790 700 c 0,127,128
 755 700 755 700 722 684.5 c 128,-1,129
 689 669 689 669 662.5 640 c 128,-1,130
 636 611 636 611 620 568 c 128,-1,131
 604 525 604 525 604 471 c 0,132,133
 604 411 604 411 623.5 360.5 c 128,-1,134
 643 310 643 310 678.5 271.5 c 128,-1,135
 714 233 714 233 763.5 208.5 c 128,-1,136
 813 184 813 184 872 176 c 1,137,138
 918 242 918 242 940 317 c 128,-1,139
 962 392 962 392 962 461 c 0,122,123
829 1444 m 0,140,141
 829 1487 829 1487 808 1518 c 128,-1,142
 787 1549 787 1549 755 1571 c 1,143,144
 716 1560 716 1560 688 1543 c 128,-1,145
 660 1526 660 1526 642.5 1505.5 c 128,-1,146
 625 1485 625 1485 616.5 1462.5 c 128,-1,147
 608 1440 608 1440 608 1419 c 0,148,149
 608 1379 608 1379 636.5 1350 c 128,-1,150
 665 1321 665 1321 716 1321 c 0,151,152
 770 1321 770 1321 799.5 1355.5 c 128,-1,153
 829 1390 829 1390 829 1444 c 0,140,141
EndSplineSet
EndChar

StartChar: F
Encoding: 70 70 41
Width: 1190
Flags: W
LayerCount: 2
Fore
SplineSet
820 819 m 1,0,-1
 820 1004 l 2,1,2
 820 1124 820 1124 827.5 1222.5 c 128,-1,3
 835 1321 835 1321 861 1405 c 1,4,5
 782 1417 782 1417 699 1433.5 c 128,-1,6
 616 1450 616 1450 536.5 1465 c 128,-1,7
 457 1480 457 1480 385.5 1490.5 c 128,-1,8
 314 1501 314 1501 257 1501 c 0,9,10
 180 1501 180 1501 129 1488.5 c 128,-1,11
 78 1476 78 1476 47 1455 c 128,-1,12
 16 1434 16 1434 3.5 1406.5 c 128,-1,13
 -9 1379 -9 1379 -9 1348 c 256,14,15
 -9 1317 -9 1317 5.5 1291 c 128,-1,16
 20 1265 20 1265 47 1245.5 c 128,-1,17
 74 1226 74 1226 111.5 1215 c 128,-1,18
 149 1204 149 1204 195 1204 c 0,19,20
 246 1204 246 1204 285.5 1215.5 c 128,-1,21
 325 1227 325 1227 353 1241 c 0,22,23
 386 1257 386 1257 411 1278 c 1,24,-1
 431 1235 l 1,25,26
 400 1212 400 1212 363 1194 c 0,27,28
 331 1178 331 1178 288.5 1165.5 c 128,-1,29
 246 1153 246 1153 195 1153 c 0,30,31
 128 1153 128 1153 76.5 1171 c 128,-1,32
 25 1189 25 1189 -10 1219.5 c 128,-1,33
 -45 1250 -45 1250 -63 1291 c 128,-1,34
 -81 1332 -81 1332 -81 1378 c 0,35,36
 -81 1427 -81 1427 -64.5 1473 c 128,-1,37
 -48 1519 -48 1519 -9.5 1555 c 128,-1,38
 29 1591 29 1591 92 1612.5 c 128,-1,39
 155 1634 155 1634 247 1634 c 0,40,41
 332 1634 332 1634 417.5 1620.5 c 128,-1,42
 503 1607 503 1607 586.5 1587.5 c 128,-1,43
 670 1568 670 1568 749.5 1545.5 c 128,-1,44
 829 1523 829 1523 902 1505 c 1,45,46
 945 1584 945 1584 1009 1631.5 c 128,-1,47
 1073 1679 1073 1679 1148 1679 c 0,48,49
 1180 1679 1180 1679 1205 1668.5 c 128,-1,50
 1230 1658 1230 1658 1247 1641 c 128,-1,51
 1264 1624 1264 1624 1272.5 1601.5 c 128,-1,52
 1281 1579 1281 1579 1281 1554 c 0,53,54
 1281 1512 1281 1512 1261.5 1481.5 c 128,-1,55
 1242 1451 1242 1451 1208 1430.5 c 128,-1,56
 1174 1410 1174 1410 1128 1400.5 c 128,-1,57
 1082 1391 1082 1391 1029 1391 c 0,58,59
 1017 1391 1017 1391 1004.5 1391 c 128,-1,60
 992 1391 992 1391 980 1393 c 1,61,62
 972 1343 972 1343 967.5 1281.5 c 128,-1,63
 963 1220 963 1220 963 1143 c 2,64,-1
 963 819 l 1,65,-1
 1097 819 l 1,66,-1
 1076 758 l 1,67,-1
 963 758 l 1,68,-1
 963 512 l 2,69,70
 963 428 963 428 961 365.5 c 128,-1,71
 959 303 959 303 950 254.5 c 128,-1,72
 941 206 941 206 923 167.5 c 128,-1,73
 905 129 905 129 873 92 c 0,74,75
 818 29 818 29 720 -11 c 128,-1,76
 622 -51 622 -51 482 -51 c 0,77,78
 396 -51 396 -51 318 -27 c 128,-1,79
 240 -3 240 -3 181 40 c 128,-1,80
 122 83 122 83 87 143 c 128,-1,81
 52 203 52 203 52 276 c 0,82,83
 52 330 52 330 69.5 373 c 128,-1,84
 87 416 87 416 115 449.5 c 128,-1,85
 143 483 143 483 176.5 507 c 128,-1,86
 210 531 210 531 242 547 c 128,-1,87
 274 563 274 563 300 572 c 128,-1,88
 326 581 326 581 339 584 c 1,89,-1
 359 543 l 1,90,91
 336 531 336 531 307.5 510.5 c 128,-1,92
 279 490 279 490 254 458.5 c 128,-1,93
 229 427 229 427 212 382 c 128,-1,94
 195 337 195 337 195 276 c 0,95,96
 195 211 195 211 217 159.5 c 128,-1,97
 239 108 239 108 278.5 72.5 c 128,-1,98
 318 37 318 37 372.5 18.5 c 128,-1,99
 427 0 427 0 492 0 c 0,100,101
 565 0 565 0 625.5 20 c 128,-1,102
 686 40 686 40 729 87 c 128,-1,103
 772 134 772 134 796 212 c 128,-1,104
 820 290 820 290 820 406 c 2,105,-1
 820 758 l 1,106,-1
 626 758 l 1,107,-1
 646 819 l 1,108,-1
 820 819 l 1,0,-1
1148 1624 m 0,109,110
 1103 1624 1103 1624 1065 1591.5 c 128,-1,111
 1027 1559 1027 1559 1002 1481 c 1,112,113
 1033 1476 1033 1476 1062 1473 c 128,-1,114
 1091 1470 1091 1470 1117 1470 c 0,115,116
 1144 1470 1144 1470 1163.5 1477.5 c 128,-1,117
 1183 1485 1183 1485 1195 1497 c 128,-1,118
 1207 1509 1207 1509 1213 1524 c 128,-1,119
 1219 1539 1219 1539 1219 1554 c 0,120,121
 1219 1583 1219 1583 1199 1603.5 c 128,-1,122
 1179 1624 1179 1624 1148 1624 c 0,109,110
EndSplineSet
EndChar

StartChar: G
Encoding: 71 71 42
Width: 1137
Flags: W
LayerCount: 2
Fore
SplineSet
1167 399 m 2,0,1
 1146 358 1146 358 1118.5 321.5 c 128,-1,2
 1091 285 1091 285 1061 254.5 c 128,-1,3
 1031 224 1031 224 1001 198.5 c 128,-1,4
 971 173 971 173 946 154 c 1,5,-1
 946 39 l 2,6,7
 946 -92 946 -92 925.5 -194 c 128,-1,8
 905 -296 905 -296 866.5 -367 c 128,-1,9
 828 -438 828 -438 774.5 -475 c 128,-1,10
 721 -512 721 -512 655 -512 c 0,11,12
 619 -512 619 -512 589 -497.5 c 128,-1,13
 559 -483 559 -483 537.5 -458 c 128,-1,14
 516 -433 516 -433 504 -399.5 c 128,-1,15
 492 -366 492 -366 492 -328 c 0,16,17
 492 -255 492 -255 516.5 -193.5 c 128,-1,18
 541 -132 541 -132 583 -77.5 c 128,-1,19
 625 -23 625 -23 680 26.5 c 128,-1,20
 735 76 735 76 797 125 c 1,21,22
 798 180 798 180 800.5 234 c 128,-1,23
 803 288 803 288 805.5 336 c 128,-1,24
 808 384 808 384 810.5 423 c 128,-1,25
 813 462 813 462 815 487 c 1,26,27
 781 418 781 418 738.5 351.5 c 128,-1,28
 696 285 696 285 648 225 c 128,-1,29
 600 165 600 165 547.5 114.5 c 128,-1,30
 495 64 495 64 442 27 c 128,-1,31
 389 -10 389 -10 336.5 -30.5 c 128,-1,32
 284 -51 284 -51 236 -51 c 0,33,34
 182 -51 182 -51 133.5 -29.5 c 128,-1,35
 85 -8 85 -8 48.5 38 c 128,-1,36
 12 84 12 84 -9.5 156 c 128,-1,37
 -31 228 -31 228 -31 328 c 0,38,39
 -31 440 -31 440 -6 558 c 128,-1,40
 19 676 19 676 63 792 c 128,-1,41
 107 908 107 908 168 1019 c 128,-1,42
 229 1130 229 1130 301 1228.5 c 128,-1,43
 373 1327 373 1327 454 1409.5 c 128,-1,44
 535 1492 535 1492 619 1552 c 128,-1,45
 703 1612 703 1612 787.5 1645.5 c 128,-1,46
 872 1679 872 1679 952 1679 c 0,47,48
 1036 1679 1036 1679 1086.5 1636.5 c 128,-1,49
 1137 1594 1137 1594 1137 1516 c 0,50,51
 1137 1474 1137 1474 1119.5 1434.5 c 128,-1,52
 1102 1395 1102 1395 1072.5 1358.5 c 128,-1,53
 1043 1322 1043 1322 1006 1289.5 c 128,-1,54
 969 1257 969 1257 930.5 1230 c 128,-1,55
 892 1203 892 1203 854.5 1182 c 128,-1,56
 817 1161 817 1161 788 1147 c 1,57,-1
 758 1188 l 1,58,59
 796 1207 796 1207 841 1242 c 128,-1,60
 886 1277 886 1277 925 1321 c 128,-1,61
 964 1365 964 1365 990 1416 c 128,-1,62
 1016 1467 1016 1467 1016 1518 c 0,63,64
 1016 1561 1016 1561 993.5 1589.5 c 128,-1,65
 971 1618 971 1618 922 1618 c 0,66,67
 846 1618 846 1618 759.5 1571 c 128,-1,68
 673 1524 673 1524 587.5 1440 c 128,-1,69
 502 1356 502 1356 424 1239.5 c 128,-1,70
 346 1123 346 1123 286 984 c 128,-1,71
 226 845 226 845 190 689 c 128,-1,72
 154 533 154 533 154 369 c 0,73,74
 154 297 154 297 164.5 240 c 128,-1,75
 175 183 175 183 194.5 143.5 c 128,-1,76
 214 104 214 104 242.5 82.5 c 128,-1,77
 271 61 271 61 307 61 c 0,78,79
 351 61 351 61 403 88 c 128,-1,80
 455 115 455 115 507.5 161 c 128,-1,81
 560 207 560 207 611 267.5 c 128,-1,82
 662 328 662 328 705 395 c 128,-1,83
 748 462 748 462 780 531 c 128,-1,84
 812 600 812 600 827 662 c 1,85,86
 833 735 833 735 839 795.5 c 128,-1,87
 845 856 845 856 850.5 902 c 128,-1,88
 856 948 856 948 861 976.5 c 128,-1,89
 866 1005 866 1005 870 1014 c 0,90,91
 878 1029 878 1029 893 1044 c 128,-1,92
 908 1059 908 1059 925.5 1070.5 c 128,-1,93
 943 1082 943 1082 960 1089 c 128,-1,94
 977 1096 977 1096 989 1096 c 0,95,96
 1005 1096 1005 1096 1010.5 1083 c 128,-1,97
 1016 1070 1016 1070 1016 1055 c 0,98,99
 1016 1011 1016 1011 1001 938 c 128,-1,100
 986 865 986 865 963 768 c 0,101,102
 953 726 953 726 948.5 657.5 c 128,-1,103
 944 589 944 589 942.5 511.5 c 128,-1,104
 941 434 941 434 941 355.5 c 128,-1,105
 941 277 941 277 940 215 c 1,106,107
 1014 269 1014 269 1058.5 326.5 c 128,-1,108
 1103 384 1103 384 1126 430 c 2,109,-1
 1137 451 l 1,110,-1
 1178 420 l 1,111,-1
 1167 399 l 2,0,1
795 51 m 1,112,113
 748 14 748 14 709 -27 c 128,-1,114
 670 -68 670 -68 642.5 -115 c 128,-1,115
 615 -162 615 -162 599.5 -217.5 c 128,-1,116
 584 -273 584 -273 584 -338 c 0,117,118
 584 -400 584 -400 604 -430.5 c 128,-1,119
 624 -461 624 -461 655 -461 c 256,120,121
 686 -461 686 -461 711.5 -434.5 c 128,-1,122
 737 -408 737 -408 755.5 -347.5 c 128,-1,123
 774 -287 774 -287 784.5 -189 c 128,-1,124
 795 -91 795 -91 795 51 c 1,112,113
EndSplineSet
EndChar

StartChar: H
Encoding: 72 72 43
Width: 1857
Flags: W
LayerCount: 2
Fore
SplineSet
1469 -61 m 1,0,-1
 1469 713 l 1,1,2
 1291 721 1291 721 1126 732.5 c 128,-1,3
 961 744 961 744 823 754 c 1,4,-1
 823 530 l 2,5,6
 823 395 823 395 797.5 295.5 c 128,-1,7
 772 196 772 196 717 130 c 128,-1,8
 662 64 662 64 577 32 c 128,-1,9
 492 0 492 0 373 0 c 0,10,11
 289 0 289 0 216 25.5 c 128,-1,12
 143 51 143 51 89 98 c 128,-1,13
 35 145 35 145 4.5 211 c 128,-1,14
 -26 277 -26 277 -26 358 c 0,15,16
 -26 446 -26 446 14 529.5 c 128,-1,17
 54 613 54 613 131.5 677 c 128,-1,18
 209 741 209 741 323.5 780 c 128,-1,19
 438 819 438 819 588 819 c 2,20,-1
 670 819 l 1,21,-1
 670 987 l 2,22,23
 670 1067 670 1067 673.5 1140.5 c 128,-1,24
 677 1214 677 1214 692 1283 c 128,-1,25
 707 1352 707 1352 738 1417 c 128,-1,26
 769 1482 769 1482 823 1546 c 1,27,28
 768 1505 768 1505 703.5 1491 c 128,-1,29
 639 1477 639 1477 572 1477 c 0,30,31
 526 1477 526 1477 479.5 1481.5 c 128,-1,32
 433 1486 433 1486 388 1491 c 128,-1,33
 343 1496 343 1496 300.5 1500.5 c 128,-1,34
 258 1505 258 1505 219 1505 c 0,35,36
 177 1505 177 1505 146 1494.5 c 128,-1,37
 115 1484 115 1484 95 1465.5 c 128,-1,38
 75 1447 75 1447 65 1423 c 128,-1,39
 55 1399 55 1399 55 1372 c 256,40,41
 55 1345 55 1345 68 1319.5 c 128,-1,42
 81 1294 81 1294 106 1273.5 c 128,-1,43
 131 1253 131 1253 167.5 1241 c 128,-1,44
 204 1229 204 1229 250 1229 c 0,45,46
 292 1229 292 1229 326 1237 c 128,-1,47
 360 1245 360 1245 384 1255 c 0,48,49
 412 1266 412 1266 434 1282 c 1,50,-1
 455 1239 l 1,51,52
 428 1221 428 1221 395 1208 c 0,53,54
 367 1197 367 1197 329.5 1187.5 c 128,-1,55
 292 1178 292 1178 250 1178 c 0,56,57
 192 1178 192 1178 145 1194.5 c 128,-1,58
 98 1211 98 1211 64.5 1239.5 c 128,-1,59
 31 1268 31 1268 12.5 1307.5 c 128,-1,60
 -6 1347 -6 1347 -6 1393 c 0,61,62
 -6 1447 -6 1447 14 1488.5 c 128,-1,63
 34 1530 34 1530 68.5 1559 c 128,-1,64
 103 1588 103 1588 149.5 1603 c 128,-1,65
 196 1618 196 1618 250 1618 c 0,66,67
 305 1618 305 1618 359 1611 c 128,-1,68
 413 1604 413 1604 466.5 1595.5 c 128,-1,69
 520 1587 520 1587 572.5 1580 c 128,-1,70
 625 1573 625 1573 676 1573 c 256,71,72
 727 1573 727 1573 776 1582.5 c 128,-1,73
 825 1592 825 1592 875 1618 c 1,74,-1
 916 1587 l 1,75,76
 893 1557 893 1557 876 1520 c 128,-1,77
 859 1483 859 1483 847 1430 c 128,-1,78
 835 1377 835 1377 829 1303.5 c 128,-1,79
 823 1230 823 1230 823 1126 c 2,80,-1
 823 819 l 1,81,-1
 1469 819 l 1,82,-1
 1469 1106 l 2,83,84
 1469 1203 1469 1203 1474 1278.5 c 128,-1,85
 1479 1354 1479 1354 1488.5 1413.5 c 128,-1,86
 1498 1473 1498 1473 1512 1519.5 c 128,-1,87
 1526 1566 1526 1566 1544.5 1604 c 128,-1,88
 1563 1642 1563 1642 1585 1675 c 128,-1,89
 1607 1708 1607 1708 1632 1741 c 1,90,-1
 1673 1710 l 1,91,92
 1658 1679 1658 1679 1646.5 1642.5 c 128,-1,93
 1635 1606 1635 1606 1627.5 1548.5 c 128,-1,94
 1620 1491 1620 1491 1616 1404.5 c 128,-1,95
 1612 1318 1612 1318 1612 1188 c 2,96,-1
 1612 819 l 1,97,-1
 1786 819 l 1,98,-1
 1755 707 l 1,99,100
 1720 707 1720 707 1683.5 707 c 128,-1,101
 1647 707 1647 707 1612 709 c 1,102,-1
 1612 -41 l 1,103,-1
 1469 -61 l 1,0,-1
393 51 m 0,104,105
 462 51 462 51 514 70 c 128,-1,106
 566 89 566 89 600.5 133 c 128,-1,107
 635 177 635 177 652.5 249 c 128,-1,108
 670 321 670 321 670 428 c 2,109,-1
 670 764 l 1,110,111
 639 766 639 766 609.5 767 c 128,-1,112
 580 768 580 768 557 768 c 0,113,114
 470 768 470 768 403 749.5 c 128,-1,115
 336 731 336 731 286 700 c 128,-1,116
 236 669 236 669 201.5 628 c 128,-1,117
 167 587 167 587 146 541.5 c 128,-1,118
 125 496 125 496 116 448.5 c 128,-1,119
 107 401 107 401 107 358 c 0,120,121
 107 274 107 274 133 215.5 c 128,-1,122
 159 157 159 157 200 120.5 c 128,-1,123
 241 84 241 84 292 67.5 c 128,-1,124
 343 51 343 51 393 51 c 0,104,105
EndSplineSet
EndChar

StartChar: I
Encoding: 73 73 44
Width: 1004
Flags: W
LayerCount: 2
Fore
SplineSet
677 406 m 0,0,1
 677 433 677 433 675.5 458.5 c 128,-1,2
 674 484 674 484 672 511 c 128,-1,3
 670 538 670 538 667 568.5 c 128,-1,4
 664 599 664 599 661 637 c 1,5,6
 620 621 620 621 574 612.5 c 128,-1,7
 528 604 528 604 472 604 c 0,8,9
 410 604 410 604 353 623.5 c 128,-1,10
 296 643 296 643 252 681 c 128,-1,11
 208 719 208 719 181.5 776.5 c 128,-1,12
 155 834 155 834 155 911 c 0,13,14
 155 960 155 960 166.5 1005.5 c 128,-1,15
 178 1051 178 1051 207 1101 c 128,-1,16
 236 1151 236 1151 284.5 1209.5 c 128,-1,17
 333 1268 333 1268 407 1343 c 128,-1,18
 481 1418 481 1418 582.5 1513 c 128,-1,19
 684 1608 684 1608 820 1731 c 1,20,-1
 861 1700 l 1,21,22
 839 1670 839 1670 822 1634 c 128,-1,23
 805 1598 805 1598 793 1551 c 128,-1,24
 781 1504 781 1504 775 1442.5 c 128,-1,25
 769 1381 769 1381 769 1300 c 0,26,27
 769 1179 769 1179 778 1054.5 c 128,-1,28
 787 930 787 930 798 811 c 1,29,30
 818 839 818 839 833.5 870 c 128,-1,31
 849 901 849 901 861 932 c 1,32,-1
 902 911 l 1,33,34
 882 863 882 863 858.5 821 c 128,-1,35
 835 779 835 779 804 743 c 1,36,37
 809 692 809 692 814 649.5 c 128,-1,38
 819 607 819 607 822.5 570 c 128,-1,39
 826 533 826 533 828.5 499 c 128,-1,40
 831 465 831 465 831 430 c 0,41,42
 831 322 831 322 811.5 238 c 128,-1,43
 792 154 792 154 736 92 c 1,44,45
 681 29 681 29 579.5 -11 c 128,-1,46
 478 -51 478 -51 339 -51 c 0,47,48
 253 -51 253 -51 175 -27 c 128,-1,49
 97 -3 97 -3 38 40 c 128,-1,50
 -21 83 -21 83 -56 143 c 128,-1,51
 -91 203 -91 203 -91 276 c 0,52,53
 -91 330 -91 330 -73.5 373 c 128,-1,54
 -56 416 -56 416 -28 449.5 c 128,-1,55
 0 483 0 483 33.5 507 c 128,-1,56
 67 531 67 531 99 547 c 128,-1,57
 131 563 131 563 157 572 c 128,-1,58
 183 581 183 581 196 584 c 1,59,-1
 216 543 l 1,60,61
 193 531 193 531 164.5 510.5 c 128,-1,62
 136 490 136 490 111 458.5 c 128,-1,63
 86 427 86 427 69 382 c 128,-1,64
 52 337 52 337 52 276 c 0,65,66
 52 211 52 211 74 159.5 c 128,-1,67
 96 108 96 108 135.5 72.5 c 128,-1,68
 175 37 175 37 229.5 18.5 c 128,-1,69
 284 0 284 0 349 0 c 0,70,71
 422 0 422 0 482.5 20 c 128,-1,72
 543 40 543 40 586 87 c 128,-1,73
 629 134 629 134 653 212 c 128,-1,74
 677 290 677 290 677 406 c 0,0,1
677 1526 m 1,75,76
 599 1451 599 1451 539 1391 c 128,-1,77
 479 1331 479 1331 434.5 1281 c 128,-1,78
 390 1231 390 1231 360 1188.5 c 128,-1,79
 330 1146 330 1146 312 1105 c 128,-1,80
 294 1064 294 1064 286 1022 c 128,-1,81
 278 980 278 980 278 932 c 0,82,83
 278 786 278 786 343 720.5 c 128,-1,84
 408 655 408 655 523 655 c 0,85,86
 561 655 561 655 594.5 662.5 c 128,-1,87
 628 670 628 670 657 684 c 1,88,89
 650 753 650 753 642.5 822.5 c 128,-1,90
 635 892 635 892 629 956.5 c 128,-1,91
 623 1021 623 1021 619.5 1078 c 128,-1,92
 616 1135 616 1135 616 1178 c 256,93,94
 616 1221 616 1221 620.5 1272 c 128,-1,95
 625 1323 625 1323 633 1371.5 c 128,-1,96
 641 1420 641 1420 652 1461.5 c 128,-1,97
 663 1503 663 1503 677 1526 c 1,75,76
EndSplineSet
EndChar

StartChar: J
Encoding: 74 74 45
Width: 1013
Flags: W
LayerCount: 2
Fore
SplineSet
491 1679 m 0,0,1
 578 1679 578 1679 646.5 1626.5 c 128,-1,2
 715 1574 715 1574 762.5 1466.5 c 128,-1,3
 810 1359 810 1359 834.5 1195.5 c 128,-1,4
 859 1032 859 1032 859 809 c 0,5,6
 859 783 859 783 858 758 c 128,-1,7
 857 733 857 733 857 707 c 1,8,-1
 890 748 l 1,9,-1
 931 717 l 1,10,-1
 853 629 l 1,11,12
 821 339 821 339 762 125 c 128,-1,13
 703 -89 703 -89 627 -231 c 128,-1,14
 551 -373 551 -373 464.5 -442.5 c 128,-1,15
 378 -512 378 -512 290 -512 c 0,16,17
 254 -512 254 -512 225 -497.5 c 128,-1,18
 196 -483 196 -483 175 -458 c 128,-1,19
 154 -433 154 -433 143 -399.5 c 128,-1,20
 132 -366 132 -366 132 -328 c 0,21,22
 132 -232 132 -232 174 -131.5 c 128,-1,23
 216 -31 216 -31 289.5 77 c 128,-1,24
 363 185 363 185 464 301 c 128,-1,25
 565 417 565 417 683 545 c 1,26,27
 688 636 688 636 692 732 c 128,-1,28
 696 828 696 828 696 942 c 0,29,30
 696 1139 696 1139 681.5 1271 c 128,-1,31
 667 1403 667 1403 640 1482.5 c 128,-1,32
 613 1562 613 1562 575 1595 c 128,-1,33
 537 1628 537 1628 491 1628 c 0,34,35
 430 1628 430 1628 369.5 1573.5 c 128,-1,36
 309 1519 309 1519 261 1415.5 c 128,-1,37
 213 1312 213 1312 183 1161.5 c 128,-1,38
 153 1011 153 1011 153 819 c 0,39,40
 153 718 153 718 169 648 c 128,-1,41
 185 578 185 578 212 534.5 c 128,-1,42
 239 491 239 491 274 471 c 128,-1,43
 309 451 309 451 347 451 c 0,44,45
 401 451 401 451 446 487.5 c 128,-1,46
 491 524 491 524 524 585 c 128,-1,47
 557 646 557 646 575 725 c 128,-1,48
 593 804 593 804 593 889 c 0,49,50
 593 913 593 913 591.5 934 c 128,-1,51
 590 955 590 955 588 971 c 0,52,53
 585 989 585 989 583 1004 c 1,54,-1
 634 1014 l 1,55,56
 636 1001 636 1001 639 983 c 0,57,58
 641 967 641 967 642.5 944.5 c 128,-1,59
 644 922 644 922 644 891 c 0,60,61
 644 799 644 799 622 710.5 c 128,-1,62
 600 622 600 622 559 553 c 128,-1,63
 518 484 518 484 459.5 441.5 c 128,-1,64
 401 399 401 399 327 399 c 0,65,66
 246 399 246 399 183.5 432.5 c 128,-1,67
 121 466 121 466 77.5 528.5 c 128,-1,68
 34 591 34 591 11.5 680.5 c 128,-1,69
 -11 770 -11 770 -11 881 c 0,70,71
 -11 991 -11 991 10.5 1093 c 128,-1,72
 32 1195 32 1195 69 1283.5 c 128,-1,73
 106 1372 106 1372 155.5 1445 c 128,-1,74
 205 1518 205 1518 260.5 1570 c 128,-1,75
 316 1622 316 1622 375.5 1650.5 c 128,-1,76
 435 1679 435 1679 491 1679 c 0,0,1
327 -451 m 0,77,78
 350 -451 350 -451 381.5 -436.5 c 128,-1,79
 413 -422 413 -422 447 -384 c 128,-1,80
 481 -346 481 -346 516 -280.5 c 128,-1,81
 551 -215 551 -215 582 -114 c 128,-1,82
 613 -13 613 -13 638 129 c 128,-1,83
 663 271 663 271 677 461 c 1,84,85
 572 342 572 342 490 246.5 c 128,-1,86
 408 151 408 151 351 64 c 128,-1,87
 294 -23 294 -23 264.5 -107.5 c 128,-1,88
 235 -192 235 -192 235 -287 c 0,89,90
 235 -359 235 -359 259.5 -405 c 128,-1,91
 284 -451 284 -451 327 -451 c 0,77,78
EndSplineSet
EndChar

StartChar: K
Encoding: 75 75 46
Width: 1438
Flags: W
LayerCount: 2
Fore
SplineSet
1438 1577 m 1,0,-1
 1364 1577 l 2,1,2
 1313 1577 1313 1577 1280 1555 c 128,-1,3
 1247 1533 1247 1533 1225.5 1496 c 128,-1,4
 1204 1459 1204 1459 1191 1409 c 128,-1,5
 1178 1359 1178 1359 1166.5 1302.5 c 128,-1,6
 1155 1246 1155 1246 1142 1186.5 c 128,-1,7
 1129 1127 1129 1127 1107 1070.5 c 128,-1,8
 1085 1014 1085 1014 1051 963 c 128,-1,9
 1017 912 1017 912 965 874 c 1,10,11
 1018 832 1018 832 1055.5 772.5 c 128,-1,12
 1093 713 1093 713 1120 643 c 128,-1,13
 1147 573 1147 573 1167 496.5 c 128,-1,14
 1187 420 1187 420 1205.5 344 c 128,-1,15
 1224 268 1224 268 1243.5 197 c 128,-1,16
 1263 126 1263 126 1290.5 66.5 c 128,-1,17
 1318 7 1318 7 1355.5 -36.5 c 128,-1,18
 1393 -80 1393 -80 1446 -100 c 0,19,20
 1497 -120 1497 -120 1556 -126.5 c 128,-1,21
 1615 -133 1615 -133 1694 -133 c 1,22,-1
 1698 -174 l 1,23,24
 1685 -177 1685 -177 1668 -179 c 0,25,26
 1654 -181 1654 -181 1633 -182.5 c 128,-1,27
 1612 -184 1612 -184 1585 -184 c 0,28,29
 1441 -184 1441 -184 1345.5 -150 c 128,-1,30
 1250 -116 1250 -116 1189.5 -58 c 128,-1,31
 1129 0 1129 0 1097.5 76 c 128,-1,32
 1066 152 1066 152 1049.5 236 c 128,-1,33
 1033 320 1033 320 1024.5 407.5 c 128,-1,34
 1016 495 1016 495 1002.5 574.5 c 128,-1,35
 989 654 989 654 963.5 720.5 c 128,-1,36
 938 787 938 787 887 831 c 1,37,38
 849 816 849 816 802.5 805 c 128,-1,39
 756 794 756 794 700 791 c 1,40,-1
 700 512 l 2,41,42
 700 428 700 428 697.5 365.5 c 128,-1,43
 695 303 695 303 685.5 254.5 c 128,-1,44
 676 206 676 206 657 167.5 c 128,-1,45
 638 129 638 129 606 92 c 0,46,47
 551 29 551 29 449.5 -11 c 128,-1,48
 348 -51 348 -51 209 -51 c 0,49,50
 123 -51 123 -51 45 -27 c 128,-1,51
 -33 -3 -33 -3 -92 40 c 128,-1,52
 -151 83 -151 83 -186 143 c 128,-1,53
 -221 203 -221 203 -221 276 c 0,54,55
 -221 330 -221 330 -203.5 373 c 128,-1,56
 -186 416 -186 416 -158.5 449.5 c 128,-1,57
 -131 483 -131 483 -97 507 c 128,-1,58
 -63 531 -63 531 -31.5 547 c 128,-1,59
 0 563 0 563 26.5 572 c 128,-1,60
 53 581 53 581 66 584 c 1,61,-1
 86 543 l 1,62,63
 63 531 63 531 34.5 510.5 c 128,-1,64
 6 490 6 490 -19 458.5 c 128,-1,65
 -44 427 -44 427 -61 382 c 128,-1,66
 -78 337 -78 337 -78 276 c 0,67,68
 -78 211 -78 211 -56 159.5 c 128,-1,69
 -34 108 -34 108 5.5 72.5 c 128,-1,70
 45 37 45 37 99.5 18.5 c 128,-1,71
 154 0 154 0 219 0 c 0,72,73
 292 0 292 0 352.5 20 c 128,-1,74
 413 40 413 40 456 87 c 128,-1,75
 499 134 499 134 523 212 c 128,-1,76
 547 290 547 290 547 406 c 2,77,-1
 547 797 l 1,78,79
 518 803 518 803 498.5 812.5 c 128,-1,80
 479 822 479 822 467.5 833.5 c 128,-1,81
 456 845 456 845 451 857 c 128,-1,82
 446 869 446 869 446 881 c 0,83,84
 446 892 446 892 451 904.5 c 128,-1,85
 456 917 456 917 467.5 928 c 128,-1,86
 479 939 479 939 498.5 949 c 128,-1,87
 518 959 518 959 547 965 c 1,88,-1
 547 1047 l 2,89,90
 547 1127 547 1127 550.5 1199.5 c 128,-1,91
 554 1272 554 1272 569 1340.5 c 128,-1,92
 584 1409 584 1409 615 1473.5 c 128,-1,93
 646 1538 646 1538 700 1602 c 1,94,95
 649 1570 649 1570 595 1558 c 128,-1,96
 541 1546 541 1546 485 1546 c 0,97,98
 416 1546 416 1546 344.5 1555.5 c 128,-1,99
 273 1565 273 1565 199 1565 c 0,100,101
 157 1565 157 1565 126 1554 c 128,-1,102
 95 1543 95 1543 74.5 1525 c 128,-1,103
 54 1507 54 1507 44.5 1483 c 128,-1,104
 35 1459 35 1459 35 1432 c 256,105,106
 35 1405 35 1405 48 1379 c 128,-1,107
 61 1353 61 1353 86 1333 c 128,-1,108
 111 1313 111 1313 147 1300.5 c 128,-1,109
 183 1288 183 1288 229 1288 c 0,110,111
 271 1288 271 1288 305.5 1296 c 128,-1,112
 340 1304 340 1304 364 1314 c 0,113,114
 392 1325 392 1325 414 1341 c 1,115,-1
 434 1298 l 1,116,117
 407 1280 407 1280 374 1267 c 0,118,119
 346 1256 346 1256 308.5 1246.5 c 128,-1,120
 271 1237 271 1237 229 1237 c 0,121,122
 172 1237 172 1237 124.5 1253.5 c 128,-1,123
 77 1270 77 1270 43.5 1298.5 c 128,-1,124
 10 1327 10 1327 -8.5 1366.5 c 128,-1,125
 -27 1406 -27 1406 -27 1452 c 0,126,127
 -27 1506 -27 1506 -7 1547.5 c 128,-1,128
 13 1589 13 1589 47.5 1618 c 128,-1,129
 82 1647 82 1647 128.5 1662 c 128,-1,130
 175 1677 175 1677 229 1677 c 0,131,132
 284 1677 284 1677 332 1670.5 c 128,-1,133
 380 1664 380 1664 423.5 1656.5 c 128,-1,134
 467 1649 467 1649 507.5 1642.5 c 128,-1,135
 548 1636 548 1636 588 1636 c 256,136,137
 628 1636 628 1636 668 1645 c 128,-1,138
 708 1654 708 1654 752 1677 c 1,139,-1
 793 1647 l 1,140,141
 770 1617 770 1617 753 1580 c 128,-1,142
 736 1543 736 1543 724 1490 c 128,-1,143
 712 1437 712 1437 706 1363 c 128,-1,144
 700 1289 700 1289 700 1186 c 2,145,-1
 700 969 l 1,146,147
 810 960 810 960 887 924 c 1,148,149
 939 960 939 960 965.5 1009.5 c 128,-1,150
 992 1059 992 1059 1004.5 1115 c 128,-1,151
 1017 1171 1017 1171 1021 1231 c 128,-1,152
 1025 1291 1025 1291 1031 1348 c 128,-1,153
 1037 1405 1037 1405 1051 1456 c 128,-1,154
 1065 1507 1065 1507 1097.5 1545 c 128,-1,155
 1130 1583 1130 1583 1186.5 1605.5 c 128,-1,156
 1243 1628 1243 1628 1335 1628 c 2,157,-1
 1438 1628 l 1,158,-1
 1438 1577 l 1,0,-1
700 858 m 1,159,160
 757 864 757 864 805 881 c 1,161,162
 758 899 758 899 700 905 c 1,163,-1
 700 858 l 1,159,160
498 881 m 0,164,165
 498 868 498 868 508.5 860.5 c 128,-1,166
 519 853 519 853 547 850 c 1,167,-1
 547 907 l 1,168,169
 516 904 516 904 507 897 c 128,-1,170
 498 890 498 890 498 881 c 0,164,165
EndSplineSet
EndChar

StartChar: L
Encoding: 76 76 47
Width: 818
Flags: W
LayerCount: 2
Fore
SplineSet
654 1137 m 1,0,1
 708 1183 708 1183 737.5 1250.5 c 128,-1,2
 767 1318 767 1318 767 1403 c 0,3,4
 767 1449 767 1449 755.5 1490 c 128,-1,5
 744 1531 744 1531 721.5 1561.5 c 128,-1,6
 699 1592 699 1592 666.5 1610 c 128,-1,7
 634 1628 634 1628 593 1628 c 0,8,9
 558 1628 558 1628 526.5 1612.5 c 128,-1,10
 495 1597 495 1597 471 1566.5 c 128,-1,11
 447 1536 447 1536 432.5 1489.5 c 128,-1,12
 418 1443 418 1443 418 1382 c 256,13,14
 418 1321 418 1321 427.5 1236.5 c 128,-1,15
 437 1152 437 1152 449 1048.5 c 128,-1,16
 461 945 461 945 470.5 825 c 128,-1,17
 480 705 480 705 480 573 c 0,18,19
 480 505 480 505 468.5 444.5 c 128,-1,20
 457 384 457 384 436 332 c 128,-1,21
 415 280 415 280 386.5 236 c 128,-1,22
 358 192 358 192 324 156 c 1,23,24
 380 130 380 130 434.5 99 c 128,-1,25
 489 68 489 68 542 36.5 c 128,-1,26
 595 5 595 5 649 -24.5 c 128,-1,27
 703 -54 703 -54 758 -76.5 c 128,-1,28
 813 -99 813 -99 871 -113 c 128,-1,29
 929 -127 929 -127 992 -127 c 0,30,31
 1111 -127 1111 -127 1176 -92 c 1,32,-1
 1197 -119 l 1,33,34
 1176 -137 1176 -137 1139.5 -157.5 c 128,-1,35
 1103 -178 1103 -178 1057.5 -195.5 c 128,-1,36
 1012 -213 1012 -213 961 -224.5 c 128,-1,37
 910 -236 910 -236 859 -236 c 0,38,39
 750 -236 750 -236 658 -205.5 c 128,-1,40
 566 -175 566 -175 488 -130 c 128,-1,41
 410 -85 410 -85 343 -33 c 128,-1,42
 276 19 276 19 216 63 c 1,43,44
 157 26 157 26 97.5 8 c 128,-1,45
 38 -10 38 -10 -12 -10 c 0,46,47
 -54 -10 -54 -10 -82.5 0.5 c 128,-1,48
 -111 11 -111 11 -128.5 27 c 128,-1,49
 -146 43 -146 43 -153.5 63 c 128,-1,50
 -161 83 -161 83 -161 102 c 0,51,52
 -161 125 -161 125 -147 147 c 128,-1,53
 -133 169 -133 169 -106.5 186.5 c 128,-1,54
 -80 204 -80 204 -43 214.5 c 128,-1,55
 -6 225 -6 225 40 225 c 0,56,57
 91 225 91 225 138.5 216 c 128,-1,58
 186 207 186 207 232 193 c 1,59,60
 269 251 269 251 292.5 336.5 c 128,-1,61
 316 422 316 422 316 543 c 0,62,63
 316 675 316 675 306.5 783.5 c 128,-1,64
 297 892 297 892 285.5 987.5 c 128,-1,65
 274 1083 274 1083 264.5 1171.5 c 128,-1,66
 255 1260 255 1260 255 1352 c 0,67,68
 255 1433 255 1433 284.5 1494.5 c 128,-1,69
 314 1556 314 1556 360.5 1597 c 128,-1,70
 407 1638 407 1638 465.5 1658.5 c 128,-1,71
 524 1679 524 1679 582 1679 c 0,72,73
 647 1679 647 1679 701.5 1659 c 128,-1,74
 756 1639 756 1639 795.5 1604.5 c 128,-1,75
 835 1570 835 1570 857 1523.5 c 128,-1,76
 879 1477 879 1477 879 1423 c 0,77,78
 879 1365 879 1365 860 1314.5 c 128,-1,79
 841 1264 841 1264 812.5 1222.5 c 128,-1,80
 784 1181 784 1181 750 1149 c 128,-1,81
 716 1117 716 1117 685 1096 c 1,82,-1
 654 1137 l 1,0,1
-12 41 m 0,83,84
 26 41 26 41 70 55.5 c 128,-1,85
 114 70 114 70 156 104 c 1,86,87
 114 130 114 130 75.5 147 c 128,-1,88
 37 164 37 164 -1 164 c 0,89,90
 -45 164 -45 164 -74.5 148.5 c 128,-1,91
 -104 133 -104 133 -104 102 c 256,92,93
 -104 71 -104 71 -79 56 c 128,-1,94
 -54 41 -54 41 -12 41 c 0,83,84
EndSplineSet
EndChar

StartChar: M
Encoding: 77 77 48
Width: 1684
Flags: W
LayerCount: 2
Fore
SplineSet
517 1677 m 1,0,1
 531 1639 531 1639 551 1563.5 c 128,-1,2
 571 1488 571 1488 595 1389 c 128,-1,3
 619 1290 619 1290 645.5 1174 c 128,-1,4
 672 1058 672 1058 698.5 938 c 128,-1,5
 725 818 725 818 750.5 701 c 128,-1,6
 776 584 776 584 798 484 c 128,-1,7
 820 384 820 384 837.5 306.5 c 128,-1,8
 855 229 855 229 865 188 c 1,9,10
 887 244 887 244 916.5 326 c 128,-1,11
 946 408 946 408 980.5 505.5 c 128,-1,12
 1015 603 1015 603 1052.5 712.5 c 128,-1,13
 1090 822 1090 822 1128.5 933.5 c 128,-1,14
 1167 1045 1167 1045 1206 1154 c 128,-1,15
 1245 1263 1245 1263 1281 1360.5 c 128,-1,16
 1317 1458 1317 1458 1349.5 1539.5 c 128,-1,17
 1382 1621 1382 1621 1408 1677 c 1,18,-1
 1490 1667 l 1,19,20
 1472 1604 1472 1604 1454 1520.5 c 128,-1,21
 1436 1437 1436 1437 1419.5 1339.5 c 128,-1,22
 1403 1242 1403 1242 1388 1134.5 c 128,-1,23
 1373 1027 1373 1027 1362 918 c 128,-1,24
 1351 809 1351 809 1344.5 702 c 128,-1,25
 1338 595 1338 595 1338 498 c 0,26,27
 1338 309 1338 309 1365 211 c 128,-1,28
 1392 113 1392 113 1449 113 c 0,29,30
 1474 113 1474 113 1497.5 133 c 128,-1,31
 1521 153 1521 153 1547.5 193 c 128,-1,32
 1574 233 1574 233 1604.5 292.5 c 128,-1,33
 1635 352 1635 352 1674 430 c 1,34,-1
 1684 451 l 1,35,-1
 1725 420 l 1,36,-1
 1715 399 l 1,37,38
 1665 299 1665 299 1625.5 224.5 c 128,-1,39
 1586 150 1586 150 1549.5 100 c 128,-1,40
 1513 50 1513 50 1476.5 25 c 128,-1,41
 1440 0 1440 0 1397 0 c 0,42,43
 1337 0 1337 0 1297 29.5 c 128,-1,44
 1257 59 1257 59 1232.5 113.5 c 128,-1,45
 1208 168 1208 168 1197.5 246 c 128,-1,46
 1187 324 1187 324 1187 422 c 0,47,48
 1187 529 1187 529 1198 646.5 c 128,-1,49
 1209 764 1209 764 1224.5 875 c 128,-1,50
 1240 986 1240 986 1256.5 1080.5 c 128,-1,51
 1273 1175 1273 1175 1285 1237 c 1,52,-1
 834 -51 l 1,53,-1
 752 -31 l 1,54,55
 752 -10 752 -10 739 58.5 c 128,-1,56
 726 127 726 127 705 224.5 c 128,-1,57
 684 322 684 322 657.5 439.5 c 128,-1,58
 631 557 631 557 603 676 c 0,59,60
 538 956 538 956 455 1298 c 1,61,62
 458 1226 458 1226 462 1153 c 0,63,64
 465 1090 465 1090 467.5 1018.5 c 128,-1,65
 470 947 470 947 470 885 c 0,66,67
 470 704 470 704 449.5 564 c 128,-1,68
 429 424 429 424 394 320.5 c 128,-1,69
 359 217 359 217 312 146 c 128,-1,70
 265 75 265 75 212 32 c 128,-1,71
 159 -11 159 -11 103.5 -30 c 128,-1,72
 48 -49 48 -49 -5 -49 c 256,73,74
 -58 -49 -58 -49 -104.5 -31.5 c 128,-1,75
 -151 -14 -151 -14 -185.5 17.5 c 128,-1,76
 -220 49 -220 49 -240.5 91.5 c 128,-1,77
 -261 134 -261 134 -261 184 c 0,78,79
 -261 243 -261 243 -241.5 297 c 128,-1,80
 -222 351 -222 351 -187.5 398.5 c 128,-1,81
 -153 446 -153 446 -106 487 c 128,-1,82
 -59 528 -59 528 -5 563 c 1,83,-1
 25 532 l 1,84,85
 -13 505 -13 505 -45 471.5 c 128,-1,86
 -77 438 -77 438 -100 399.5 c 128,-1,87
 -123 361 -123 361 -136 319.5 c 128,-1,88
 -149 278 -149 278 -149 236 c 0,89,90
 -149 197 -149 197 -136.5 163 c 128,-1,91
 -124 129 -124 129 -100.5 103 c 128,-1,92
 -77 77 -77 77 -44.5 62 c 128,-1,93
 -12 47 -12 47 29 47 c 0,94,95
 71 47 71 47 116 64.5 c 128,-1,96
 161 82 161 82 203.5 122.5 c 128,-1,97
 246 163 246 163 284.5 229.5 c 128,-1,98
 323 296 323 296 351.5 393.5 c 128,-1,99
 380 491 380 491 397 622 c 128,-1,100
 414 753 414 753 414 924 c 0,101,102
 414 973 414 973 411.5 1039 c 128,-1,103
 409 1105 409 1105 404.5 1177 c 128,-1,104
 400 1249 400 1249 394 1321.5 c 128,-1,105
 388 1394 388 1394 381.5 1456.5 c 128,-1,106
 375 1519 375 1519 367.5 1566.5 c 128,-1,107
 360 1614 360 1614 353 1636 c 1,108,-1
 517 1677 l 1,0,1
EndSplineSet
EndChar

StartChar: N
Encoding: 78 78 49
Width: 1483
Flags: W
LayerCount: 2
Fore
SplineSet
162 1679 m 0,0,1
 210 1679 210 1679 255.5 1633.5 c 128,-1,2
 301 1588 301 1588 342 1510.5 c 128,-1,3
 383 1433 383 1433 418 1330.5 c 128,-1,4
 453 1228 453 1228 482 1114 c 1,5,6
 553 1022 553 1022 633 921 c 128,-1,7
 713 820 713 820 798.5 716 c 128,-1,8
 884 612 884 612 972.5 507.5 c 128,-1,9
 1061 403 1061 403 1149 303 c 1,10,11
 1086 580 1086 580 1054 801 c 128,-1,12
 1022 1022 1022 1022 1022 1190 c 0,13,14
 1022 1311 1022 1311 1045.5 1402.5 c 128,-1,15
 1069 1494 1069 1494 1109 1555.5 c 128,-1,16
 1149 1617 1149 1617 1203 1648 c 128,-1,17
 1257 1679 1257 1679 1319 1679 c 0,18,19
 1365 1679 1365 1679 1399.5 1663 c 128,-1,20
 1434 1647 1434 1647 1457.5 1620 c 128,-1,21
 1481 1593 1481 1593 1492.5 1558 c 128,-1,22
 1504 1523 1504 1523 1504 1485 c 0,23,24
 1504 1434 1504 1434 1493.5 1390 c 128,-1,25
 1483 1346 1483 1346 1471 1313 c 0,26,27
 1456 1274 1456 1274 1438 1241 c 1,28,-1
 1399 1266 l 1,29,30
 1403 1275 1403 1275 1410.5 1292.5 c 128,-1,31
 1418 1310 1418 1310 1425 1335.5 c 128,-1,32
 1432 1361 1432 1361 1437 1393.5 c 128,-1,33
 1442 1426 1442 1426 1442 1464 c 0,34,35
 1442 1526 1442 1526 1414 1561.5 c 128,-1,36
 1386 1597 1386 1597 1340 1597 c 0,37,38
 1280 1597 1280 1597 1238.5 1556.5 c 128,-1,39
 1197 1516 1197 1516 1171.5 1444.5 c 128,-1,40
 1146 1373 1146 1373 1134.5 1276.5 c 128,-1,41
 1123 1180 1123 1180 1123 1069 c 0,42,43
 1123 965 1123 965 1132 852.5 c 128,-1,44
 1141 740 1141 740 1156.5 627.5 c 128,-1,45
 1172 515 1172 515 1192.5 407 c 128,-1,46
 1213 299 1213 299 1237 205 c 1,47,-1
 1381 51 l 1,48,-1
 1260 -63 l 1,49,50
 1201 -6 1201 -6 1116.5 82 c 128,-1,51
 1032 170 1032 170 934 281 c 128,-1,52
 836 392 836 392 729.5 521 c 128,-1,53
 623 650 623 650 520 788 c 1,54,55
 530 731 530 731 533.5 667.5 c 128,-1,56
 537 604 537 604 537 528 c 0,57,58
 537 389 537 389 504 289.5 c 128,-1,59
 471 190 471 190 418.5 125.5 c 128,-1,60
 366 61 366 61 301.5 30.5 c 128,-1,61
 237 0 237 0 174 0 c 0,62,63
 125 0 125 0 80.5 17 c 128,-1,64
 36 34 36 34 2.5 67 c 128,-1,65
 -31 100 -31 100 -51 147.5 c 128,-1,66
 -71 195 -71 195 -71 256 c 0,67,68
 -71 349 -71 349 -26 436 c 128,-1,69
 19 523 19 523 88 600 c 1,70,-1
 127 580 l 1,71,72
 107 550 107 550 89.5 516 c 128,-1,73
 72 482 72 482 58.5 446.5 c 128,-1,74
 45 411 45 411 37 374 c 128,-1,75
 29 337 29 337 29 301 c 0,76,77
 29 255 29 255 43.5 217.5 c 128,-1,78
 58 180 58 180 82 153.5 c 128,-1,79
 106 127 106 127 138.5 112.5 c 128,-1,80
 171 98 171 98 207 98 c 0,81,82
 254 98 254 98 302.5 125.5 c 128,-1,83
 351 153 351 153 390.5 213.5 c 128,-1,84
 430 274 430 274 455 370.5 c 128,-1,85
 480 467 480 467 480 604 c 0,86,87
 480 683 480 683 470.5 757.5 c 128,-1,88
 461 832 461 832 443 897 c 1,89,90
 334 1052 334 1052 263.5 1165 c 128,-1,91
 193 1278 193 1278 152.5 1358.5 c 128,-1,92
 112 1439 112 1439 96 1491 c 128,-1,93
 80 1543 80 1543 80 1577 c 0,94,95
 80 1631 80 1631 105.5 1655 c 128,-1,96
 131 1679 131 1679 162 1679 c 0,0,1
142 1608 m 0,97,98
 142 1598 142 1598 159.5 1566.5 c 128,-1,99
 177 1535 177 1535 209.5 1486.5 c 128,-1,100
 242 1438 242 1438 288 1374 c 128,-1,101
 334 1310 334 1310 391 1235 c 1,102,103
 366 1314 366 1314 336.5 1385.5 c 128,-1,104
 307 1457 307 1457 277 1511 c 128,-1,105
 247 1565 247 1565 217 1596.5 c 128,-1,106
 187 1628 187 1628 162 1628 c 0,107,108
 142 1628 142 1628 142 1608 c 0,97,98
EndSplineSet
EndChar

StartChar: O
Encoding: 79 79 50
Width: 1432
Flags: W
LayerCount: 2
Fore
SplineSet
265 967 m 0,0,1
 265 1040 265 1040 278 1121.5 c 128,-1,2
 291 1203 291 1203 318.5 1282 c 128,-1,3
 346 1361 346 1361 387.5 1433 c 128,-1,4
 429 1505 429 1505 486 1559.5 c 128,-1,5
 543 1614 543 1614 615.5 1646.5 c 128,-1,6
 688 1679 688 1679 777 1679 c 0,7,8
 868 1679 868 1679 943 1648.5 c 128,-1,9
 1018 1618 1018 1618 1077 1563.5 c 128,-1,10
 1136 1509 1136 1509 1180.5 1434 c 128,-1,11
 1225 1359 1225 1359 1254 1270 c 128,-1,12
 1283 1181 1283 1181 1297.5 1081.5 c 128,-1,13
 1312 982 1312 982 1312 879 c 0,14,15
 1312 765 1312 765 1293.5 652 c 128,-1,16
 1275 539 1275 539 1238.5 435.5 c 128,-1,17
 1202 332 1202 332 1147 243 c 128,-1,18
 1092 154 1092 154 1019 89 c 128,-1,19
 946 24 946 24 854.5 -13.5 c 128,-1,20
 763 -51 763 -51 654 -51 c 0,21,22
 552 -51 552 -51 463 -19.5 c 128,-1,23
 374 12 374 12 300 69.5 c 128,-1,24
 226 127 226 127 168 206.5 c 128,-1,25
 110 286 110 286 70.5 381.5 c 128,-1,26
 31 477 31 477 10 585.5 c 128,-1,27
 -11 694 -11 694 -11 809 c 0,28,29
 -11 922 -11 922 9.5 1019 c 128,-1,30
 30 1116 30 1116 64 1198 c 128,-1,31
 98 1280 98 1280 141.5 1347 c 128,-1,32
 185 1414 185 1414 232 1467 c 128,-1,33
 279 1520 279 1520 325 1559 c 128,-1,34
 371 1598 371 1598 410 1624 c 1,35,-1
 453 1595 l 1,36,37
 384 1539 384 1539 328.5 1457 c 128,-1,38
 273 1375 273 1375 233.5 1273 c 128,-1,39
 194 1171 194 1171 173 1053.5 c 128,-1,40
 152 936 152 936 152 809 c 0,41,42
 152 594 152 594 194.5 441 c 128,-1,43
 237 288 237 288 307 190 c 128,-1,44
 377 92 377 92 467.5 46 c 128,-1,45
 558 0 558 0 654 0 c 0,46,47
 758 0 758 0 847 46 c 128,-1,48
 936 92 936 92 1001.5 190 c 128,-1,49
 1067 288 1067 288 1104.5 441 c 128,-1,50
 1142 594 1142 594 1142 809 c 0,51,52
 1142 1015 1142 1015 1110.5 1167 c 128,-1,53
 1079 1319 1079 1319 1024.5 1418.5 c 128,-1,54
 970 1518 970 1518 897 1567 c 128,-1,55
 824 1616 824 1616 742 1616 c 0,56,57
 678 1616 678 1616 627 1587 c 128,-1,58
 576 1558 576 1558 537.5 1507.5 c 128,-1,59
 499 1457 499 1457 471 1389.5 c 128,-1,60
 443 1322 443 1322 425.5 1245 c 128,-1,61
 408 1168 408 1168 400 1086.5 c 128,-1,62
 392 1005 392 1005 392 926 c 0,63,64
 392 832 392 832 398 767.5 c 128,-1,65
 404 703 404 703 412 663 c 0,66,67
 421 616 421 616 433 588 c 1,68,-1
 374 573 l 1,69,70
 360 589 360 589 341.5 618 c 128,-1,71
 323 647 323 647 306 694 c 128,-1,72
 289 741 289 741 277 808 c 128,-1,73
 265 875 265 875 265 967 c 0,0,1
EndSplineSet
EndChar

StartChar: P
Encoding: 80 80 51
Width: 1218
Flags: W
LayerCount: 2
Fore
SplineSet
532 236 m 0,0,1
 521 158 521 158 500 103.5 c 128,-1,2
 479 49 479 49 449 14.5 c 128,-1,3
 419 -20 419 -20 380.5 -35.5 c 128,-1,4
 342 -51 342 -51 296 -51 c 0,5,6
 231 -51 231 -51 174.5 -13 c 128,-1,7
 118 25 118 25 77 100 c 128,-1,8
 36 175 36 175 12.5 286 c 128,-1,9
 -11 397 -11 397 -11 543 c 0,10,11
 -11 696 -11 696 18.5 840 c 128,-1,12
 48 984 48 984 102.5 1110 c 128,-1,13
 157 1236 157 1236 233.5 1340.5 c 128,-1,14
 310 1445 310 1445 404.5 1519.5 c 128,-1,15
 499 1594 499 1594 609 1635.5 c 128,-1,16
 719 1677 719 1677 839 1677 c 0,17,18
 942 1677 942 1677 1027 1646 c 128,-1,19
 1112 1615 1112 1615 1173 1560 c 128,-1,20
 1234 1505 1234 1505 1267 1430 c 128,-1,21
 1300 1355 1300 1355 1300 1268 c 0,22,23
 1300 1163 1300 1163 1271 1072.5 c 128,-1,24
 1242 982 1242 982 1190.5 907 c 128,-1,25
 1139 832 1139 832 1068 773 c 128,-1,26
 997 714 997 714 913.5 673 c 128,-1,27
 830 632 830 632 737.5 609.5 c 128,-1,28
 645 587 645 587 550 584 c 1,29,30
 547 459 547 459 543.5 373.5 c 128,-1,31
 540 288 540 288 532 236 c 0,0,1
358 655 m 1,32,33
 363 653 363 653 370 651 c 0,34,35
 376 649 376 649 384.5 647 c 128,-1,36
 393 645 393 645 405 643 c 1,37,38
 403 768 403 768 400.5 872.5 c 128,-1,39
 398 977 398 977 395 1055 c 0,40,41
 391 1146 391 1146 388 1219 c 1,42,43
 395 1225 395 1225 404 1229 c 0,44,45
 412 1233 412 1233 423 1236 c 128,-1,46
 434 1239 434 1239 450 1239 c 0,47,48
 496 1239 496 1239 524 1222.5 c 128,-1,49
 552 1206 552 1206 552 1167 c 0,50,51
 552 1002 552 1002 552 871 c 128,-1,52
 552 740 552 740 550 635 c 1,53,54
 681 635 681 635 787.5 685 c 128,-1,55
 894 735 894 735 969 818.5 c 128,-1,56
 1044 902 1044 902 1085 1011 c 128,-1,57
 1126 1120 1126 1120 1126 1239 c 0,58,59
 1126 1315 1126 1315 1105.5 1383.5 c 128,-1,60
 1085 1452 1085 1452 1043 1503.5 c 128,-1,61
 1001 1555 1001 1555 937.5 1585.5 c 128,-1,62
 874 1616 874 1616 788 1616 c 0,63,64
 701 1616 701 1616 616.5 1583 c 128,-1,65
 532 1550 532 1550 455.5 1484 c 128,-1,66
 379 1418 379 1418 314.5 1320 c 128,-1,67
 250 1222 250 1222 202.5 1091 c 128,-1,68
 155 960 155 960 128.5 797.5 c 128,-1,69
 102 635 102 635 102 440 c 0,70,71
 102 356 102 356 110.5 276.5 c 128,-1,72
 119 197 119 197 139 135.5 c 128,-1,73
 159 74 159 74 192.5 37 c 128,-1,74
 226 0 226 0 276 0 c 0,75,76
 303 0 303 0 327 11 c 128,-1,77
 351 22 351 22 369 56.5 c 128,-1,78
 387 91 387 91 398 155.5 c 128,-1,79
 409 220 409 220 409 328 c 0,80,81
 409 396 409 396 408 462.5 c 128,-1,82
 407 529 407 529 407 592 c 1,83,84
 392 594 392 594 381 597 c 128,-1,85
 370 600 370 600 362 602 c 0,86,87
 353 605 353 605 347 608 c 1,88,-1
 358 655 l 1,32,33
EndSplineSet
EndChar

StartChar: Q
Encoding: 81 81 52
Width: 1403
Flags: W
LayerCount: 2
Fore
SplineSet
1024 -143 m 0,0,1
 989 -143 989 -143 953 -132 c 128,-1,2
 917 -121 917 -121 880 -104 c 128,-1,3
 843 -87 843 -87 806 -65 c 128,-1,4
 769 -43 769 -43 733 -20 c 1,5,6
 655 -51 655 -51 563 -51 c 0,7,8
 473 -51 473 -51 426 -16.5 c 128,-1,9
 379 18 379 18 379 72 c 256,10,11
 379 126 379 126 417 160.5 c 128,-1,12
 455 195 455 195 532 195 c 0,13,14
 604 195 604 195 674.5 166.5 c 128,-1,15
 745 138 745 138 811 102 c 1,16,17
 872 156 872 156 922.5 236 c 128,-1,18
 973 316 973 316 1009 419.5 c 128,-1,19
 1045 523 1045 523 1065 649.5 c 128,-1,20
 1085 776 1085 776 1085 922 c 0,21,22
 1085 1102 1085 1102 1054 1235 c 128,-1,23
 1023 1368 1023 1368 966 1455.5 c 128,-1,24
 909 1543 909 1543 830 1585.5 c 128,-1,25
 751 1628 751 1628 655 1628 c 0,26,27
 570 1628 570 1628 501 1595.5 c 128,-1,28
 432 1563 432 1563 377.5 1505.5 c 128,-1,29
 323 1448 323 1448 283 1368.5 c 128,-1,30
 243 1289 243 1289 216.5 1194.5 c 128,-1,31
 190 1100 190 1100 177 994 c 128,-1,32
 164 888 164 888 164 778 c 0,33,34
 164 650 164 650 179 545 c 128,-1,35
 194 440 194 440 218 360 c 128,-1,36
 242 280 242 280 273.5 225.5 c 128,-1,37
 305 171 305 171 338 143 c 1,38,-1
 307 102 l 1,39,40
 284 117 284 117 252.5 145 c 128,-1,41
 221 173 221 173 186.5 215.5 c 128,-1,42
 152 258 152 258 119 315.5 c 128,-1,43
 86 373 86 373 59.5 447.5 c 128,-1,44
 33 522 33 522 16.5 615 c 128,-1,45
 0 708 0 708 0 821 c 0,46,47
 0 941 0 941 25 1051.5 c 128,-1,48
 50 1162 50 1162 94 1257.5 c 128,-1,49
 138 1353 138 1353 199 1430.5 c 128,-1,50
 260 1508 260 1508 333 1563.5 c 128,-1,51
 406 1619 406 1619 488 1649 c 128,-1,52
 570 1679 570 1679 655 1679 c 0,53,54
 745 1679 745 1679 824 1653 c 128,-1,55
 903 1627 903 1627 969 1580 c 128,-1,56
 1035 1533 1035 1533 1087 1466.5 c 128,-1,57
 1139 1400 1139 1400 1175 1319 c 128,-1,58
 1211 1238 1211 1238 1230 1145 c 128,-1,59
 1249 1052 1249 1052 1249 952 c 0,60,61
 1249 814 1249 814 1223 682 c 128,-1,62
 1197 550 1197 550 1149 434 c 128,-1,63
 1101 318 1101 318 1033 223 c 128,-1,64
 965 128 965 128 881 63 c 1,65,66
 935 33 935 33 981 16.5 c 128,-1,67
 1027 0 1027 0 1065 0 c 0,68,69
 1102 0 1102 0 1139.5 30 c 128,-1,70
 1177 60 1177 60 1216.5 115.5 c 128,-1,71
 1256 171 1256 171 1299.5 250.5 c 128,-1,72
 1343 330 1343 330 1393 430 c 1,73,-1
 1403 451 l 1,74,-1
 1444 420 l 1,75,-1
 1434 399 l 1,76,77
 1376 284 1376 284 1324.5 185 c 128,-1,78
 1273 86 1273 86 1223.5 13 c 128,-1,79
 1174 -60 1174 -60 1125 -101.5 c 128,-1,80
 1076 -143 1076 -143 1024 -143 c 0,0,1
451 51 m 0,81,82
 451 28 451 28 479 14 c 128,-1,83
 507 0 507 0 553 0 c 0,84,85
 611 0 611 0 670 18 c 1,86,87
 622 47 622 47 579.5 66.5 c 128,-1,88
 537 86 537 86 502 86 c 0,89,90
 479 86 479 86 465 76.5 c 128,-1,91
 451 67 451 67 451 51 c 0,81,82
EndSplineSet
EndChar

StartChar: R
Encoding: 82 82 53
Width: 1300
Flags: W
LayerCount: 2
Fore
SplineSet
931 1679 m 0,0,1
 1035 1679 1035 1679 1113.5 1652 c 128,-1,2
 1192 1625 1192 1625 1245 1577.5 c 128,-1,3
 1298 1530 1298 1530 1324.5 1466.5 c 128,-1,4
 1351 1403 1351 1403 1351 1331 c 0,5,6
 1351 1252 1351 1252 1324.5 1179.5 c 128,-1,7
 1298 1107 1298 1107 1251.5 1042 c 128,-1,8
 1205 977 1205 977 1142 920 c 128,-1,9
 1079 863 1079 863 1007 816 c 128,-1,10
 935 769 935 769 857.5 732 c 128,-1,11
 780 695 780 695 704 670 c 1,12,13
 758 622 758 622 802 558.5 c 128,-1,14
 846 495 846 495 886 423.5 c 128,-1,15
 926 352 926 352 965 277 c 128,-1,16
 1004 202 1004 202 1047 131.5 c 128,-1,17
 1090 61 1090 61 1140.5 -2 c 128,-1,18
 1191 -65 1191 -65 1255.5 -112.5 c 128,-1,19
 1320 -160 1320 -160 1400 -187.5 c 128,-1,20
 1480 -215 1480 -215 1583 -215 c 1,21,-1
 1587 -256 l 1,22,23
 1574 -259 1574 -259 1557 -261 c 0,24,25
 1543 -263 1543 -263 1522 -264.5 c 128,-1,26
 1501 -266 1501 -266 1474 -266 c 0,27,28
 1344 -266 1344 -266 1247 -236.5 c 128,-1,29
 1150 -207 1150 -207 1078.5 -156.5 c 128,-1,30
 1007 -106 1007 -106 957 -39.5 c 128,-1,31
 907 27 907 27 869.5 101.5 c 128,-1,32
 832 176 832 176 804 253.5 c 128,-1,33
 776 331 776 331 748.5 403.5 c 128,-1,34
 721 476 721 476 690.5 538.5 c 128,-1,35
 660 601 660 601 618 645 c 1,36,37
 598 640 598 640 578.5 637 c 128,-1,38
 559 634 559 634 540 631 c 1,39,40
 539 559 539 559 537.5 506.5 c 128,-1,41
 536 454 536 454 534 414.5 c 128,-1,42
 532 375 532 375 529 345 c 128,-1,43
 526 315 526 315 522 287 c 0,44,45
 511 209 511 209 490 154.5 c 128,-1,46
 469 100 469 100 439 65.5 c 128,-1,47
 409 31 409 31 370.5 15.5 c 128,-1,48
 332 0 332 0 286 0 c 0,49,50
 221 0 221 0 164.5 38 c 128,-1,51
 108 76 108 76 67 151 c 128,-1,52
 26 226 26 226 2.5 337 c 128,-1,53
 -21 448 -21 448 -21 594 c 0,54,55
 -21 747 -21 747 12 887.5 c 128,-1,56
 45 1028 45 1028 105.5 1148.5 c 128,-1,57
 166 1269 166 1269 252 1367 c 128,-1,58
 338 1465 338 1465 443.5 1534.5 c 128,-1,59
 549 1604 549 1604 672.5 1641.5 c 128,-1,60
 796 1679 796 1679 931 1679 c 0,0,1
317 707 m 0,61,62
 317 733 317 733 337.5 751.5 c 128,-1,63
 358 770 358 770 393 776 c 1,64,65
 391 874 391 874 388 955 c 128,-1,66
 385 1036 385 1036 383 1095 c 0,67,68
 380 1164 380 1164 378 1219 c 1,69,70
 385 1225 385 1225 394 1229 c 0,71,72
 402 1233 402 1233 413 1236 c 128,-1,73
 424 1239 424 1239 440 1239 c 0,74,75
 486 1239 486 1239 514 1222.5 c 128,-1,76
 542 1206 542 1206 542 1167 c 0,77,78
 542 1049 542 1049 542 948.5 c 128,-1,79
 542 848 542 848 540 760 c 1,80,81
 572 751 572 751 601.5 737.5 c 128,-1,82
 631 724 631 724 657 707 c 1,83,84
 749 732 749 732 842 779 c 128,-1,85
 935 826 935 826 1009.5 898.5 c 128,-1,86
 1084 971 1084 971 1130.5 1070.5 c 128,-1,87
 1177 1170 1177 1170 1177 1300 c 0,88,89
 1177 1385 1177 1385 1153.5 1445 c 128,-1,90
 1130 1505 1130 1505 1090 1543.5 c 128,-1,91
 1050 1582 1050 1582 995.5 1600 c 128,-1,92
 941 1618 941 1618 880 1618 c 0,93,94
 778 1618 778 1618 679.5 1588.5 c 128,-1,95
 581 1559 581 1559 493.5 1499 c 128,-1,96
 406 1439 406 1439 332.5 1347 c 128,-1,97
 259 1255 259 1255 205.5 1130 c 128,-1,98
 152 1005 152 1005 122 846 c 128,-1,99
 92 687 92 687 92 492 c 0,100,101
 92 407 92 407 100.5 327.5 c 128,-1,102
 109 248 109 248 129 186.5 c 128,-1,103
 149 125 149 125 182.5 88 c 128,-1,104
 216 51 216 51 266 51 c 0,105,106
 293 51 293 51 317 62 c 128,-1,107
 341 73 341 73 359 107.5 c 128,-1,108
 377 142 377 142 388 206.5 c 128,-1,109
 399 271 399 271 399 379 c 0,110,111
 399 418 399 418 399 448.5 c 128,-1,112
 399 479 399 479 399 507.5 c 128,-1,113
 399 536 399 536 398.5 565 c 128,-1,114
 398 594 398 594 397 629 c 1,115,116
 359 638 359 638 338 658 c 128,-1,117
 317 678 317 678 317 707 c 0,61,62
368 707 m 0,118,119
 368 697 368 697 371.5 690 c 128,-1,120
 375 683 375 683 395 678 c 1,121,-1
 395 725 l 1,122,123
 368 719 368 719 368 707 c 0,118,119
540 682 m 1,124,125
 548 682 548 682 555.5 683 c 128,-1,126
 563 684 563 684 571 686 c 1,127,128
 563 691 563 691 555.5 695 c 128,-1,129
 548 699 548 699 540 702 c 1,130,-1
 540 682 l 1,124,125
EndSplineSet
EndChar

StartChar: S
Encoding: 83 83 54
Width: 1096
Flags: W
LayerCount: 2
Fore
SplineSet
758 1135 m 1,0,1
 781 1152 781 1152 799.5 1176 c 128,-1,2
 818 1200 818 1200 831 1228 c 128,-1,3
 844 1256 844 1256 851 1287 c 128,-1,4
 858 1318 858 1318 858 1350 c 0,5,6
 858 1398 858 1398 841.5 1445.5 c 128,-1,7
 825 1493 825 1493 788.5 1531.5 c 128,-1,8
 752 1570 752 1570 694 1594 c 128,-1,9
 636 1618 636 1618 553 1618 c 0,10,11
 461 1618 461 1618 379 1588 c 128,-1,12
 297 1558 297 1558 235.5 1507 c 128,-1,13
 174 1456 174 1456 138 1389 c 128,-1,14
 102 1322 102 1322 102 1249 c 0,15,16
 102 1172 102 1172 138.5 1112.5 c 128,-1,17
 175 1053 175 1053 234.5 1004.5 c 128,-1,18
 294 956 294 956 370 915 c 128,-1,19
 446 874 446 874 525 834 c 128,-1,20
 604 794 604 794 680 750.5 c 128,-1,21
 756 707 756 707 815.5 653 c 128,-1,22
 875 599 875 599 911.5 532 c 128,-1,23
 948 465 948 465 948 377 c 0,24,25
 948 293 948 293 908 216 c 128,-1,26
 868 139 868 139 798 79.5 c 128,-1,27
 728 20 728 20 633.5 -15.5 c 128,-1,28
 539 -51 539 -51 430 -51 c 0,29,30
 308 -51 308 -51 228.5 -24.5 c 128,-1,31
 149 2 149 2 102.5 42 c 128,-1,32
 56 82 56 82 38 128.5 c 128,-1,33
 20 175 20 175 20 215 c 0,34,35
 20 264 20 264 35.5 303.5 c 128,-1,36
 51 343 51 343 77 374.5 c 128,-1,37
 103 406 103 406 135.5 429.5 c 128,-1,38
 168 453 168 453 202.5 469.5 c 128,-1,39
 237 486 237 486 269.5 496.5 c 128,-1,40
 302 507 302 507 328 512 c 1,41,-1
 338 461 l 1,42,43
 326 457 326 457 294.5 441.5 c 128,-1,44
 263 426 263 426 229 396.5 c 128,-1,45
 195 367 195 367 169 323 c 128,-1,46
 143 279 143 279 143 219 c 0,47,48
 143 178 143 178 160.5 139 c 128,-1,49
 178 100 178 100 213 69 c 128,-1,50
 248 38 248 38 299 19 c 128,-1,51
 350 0 350 0 418 0 c 0,52,53
 500 0 500 0 561.5 15.5 c 128,-1,54
 623 31 623 31 667.5 56 c 128,-1,55
 712 81 712 81 740.5 113.5 c 128,-1,56
 769 146 769 146 785.5 181 c 128,-1,57
 802 216 802 216 808.5 250.5 c 128,-1,58
 815 285 815 285 815 313 c 0,59,60
 815 389 815 389 780 446.5 c 128,-1,61
 745 504 745 504 687.5 549.5 c 128,-1,62
 630 595 630 595 557 632.5 c 128,-1,63
 484 670 484 670 407.5 707 c 128,-1,64
 331 744 331 744 258 784 c 128,-1,65
 185 824 185 824 127.5 875 c 128,-1,66
 70 926 70 926 35 991.5 c 128,-1,67
 0 1057 0 1057 0 1145 c 0,68,69
 0 1263 0 1263 49 1361.5 c 128,-1,70
 98 1460 98 1460 181 1530.5 c 128,-1,71
 264 1601 264 1601 373.5 1640 c 128,-1,72
 483 1679 483 1679 604 1679 c 0,73,74
 707 1679 707 1679 780 1655 c 128,-1,75
 853 1631 853 1631 899.5 1592 c 128,-1,76
 946 1553 946 1553 967.5 1503 c 128,-1,77
 989 1453 989 1453 989 1401 c 0,78,79
 989 1339 989 1339 967.5 1288 c 128,-1,80
 946 1237 946 1237 915.5 1197.5 c 128,-1,81
 885 1158 885 1158 850 1131.5 c 128,-1,82
 815 1105 815 1105 788 1094 c 1,83,-1
 758 1135 l 1,0,1
EndSplineSet
EndChar

StartChar: T
Encoding: 84 84 55
Width: 1189
Flags: W
LayerCount: 2
Fore
SplineSet
909 1188 m 0,0,1
 909 1086 909 1086 920 989.5 c 128,-1,2
 931 893 931 893 944.5 797 c 128,-1,3
 958 701 958 701 969.5 602 c 128,-1,4
 981 503 981 503 981 395 c 0,5,6
 981 294 981 294 954 211.5 c 128,-1,7
 927 129 927 129 868 70.5 c 128,-1,8
 809 12 809 12 716.5 -19.5 c 128,-1,9
 624 -51 624 -51 494 -51 c 0,10,11
 408 -51 408 -51 330 -27 c 128,-1,12
 252 -3 252 -3 193 40 c 128,-1,13
 134 83 134 83 99 143 c 128,-1,14
 64 203 64 203 64 276 c 0,15,16
 64 330 64 330 81.5 373 c 128,-1,17
 99 416 99 416 126.5 449.5 c 128,-1,18
 154 483 154 483 187.5 507 c 128,-1,19
 221 531 221 531 253 547 c 128,-1,20
 285 563 285 563 311 572 c 128,-1,21
 337 581 337 581 350 584 c 1,22,-1
 371 543 l 1,23,24
 348 531 348 531 319.5 510.5 c 128,-1,25
 291 490 291 490 266 458.5 c 128,-1,26
 241 427 241 427 224 382 c 128,-1,27
 207 337 207 337 207 276 c 0,28,29
 207 211 207 211 229 159.5 c 128,-1,30
 251 108 251 108 290.5 72.5 c 128,-1,31
 330 37 330 37 384.5 18.5 c 128,-1,32
 439 0 439 0 504 0 c 0,33,34
 571 0 571 0 631.5 16.5 c 128,-1,35
 692 33 692 33 738 72 c 128,-1,36
 784 111 784 111 811 175 c 128,-1,37
 838 239 838 239 838 334 c 256,38,39
 838 429 838 429 827.5 524.5 c 128,-1,40
 817 620 817 620 805 716.5 c 128,-1,41
 793 813 793 813 782.5 910.5 c 128,-1,42
 772 1008 772 1008 772 1108 c 0,43,44
 772 1195 772 1195 781.5 1267.5 c 128,-1,45
 791 1340 791 1340 811 1405 c 1,46,47
 732 1417 732 1417 649 1433.5 c 128,-1,48
 566 1450 566 1450 486.5 1465 c 128,-1,49
 407 1480 407 1480 335.5 1490.5 c 128,-1,50
 264 1501 264 1501 207 1501 c 0,51,52
 130 1501 130 1501 79 1488.5 c 128,-1,53
 28 1476 28 1476 -3 1455 c 128,-1,54
 -34 1434 -34 1434 -46.5 1406.5 c 128,-1,55
 -59 1379 -59 1379 -59 1348 c 256,56,57
 -59 1317 -59 1317 -44.5 1291 c 128,-1,58
 -30 1265 -30 1265 -3 1245.5 c 128,-1,59
 24 1226 24 1226 61.5 1215 c 128,-1,60
 99 1204 99 1204 145 1204 c 0,61,62
 196 1204 196 1204 235.5 1215.5 c 128,-1,63
 275 1227 275 1227 303 1241 c 0,64,65
 336 1257 336 1257 361 1278 c 1,66,-1
 381 1235 l 1,67,68
 350 1212 350 1212 313 1194 c 0,69,70
 281 1178 281 1178 238.5 1165.5 c 128,-1,71
 196 1153 196 1153 145 1153 c 0,72,73
 78 1153 78 1153 26.5 1171 c 128,-1,74
 -25 1189 -25 1189 -60 1219.5 c 128,-1,75
 -95 1250 -95 1250 -113 1291 c 128,-1,76
 -131 1332 -131 1332 -131 1378 c 0,77,78
 -131 1427 -131 1427 -114.5 1473 c 128,-1,79
 -98 1519 -98 1519 -59.5 1555 c 128,-1,80
 -21 1591 -21 1591 42 1612.5 c 128,-1,81
 105 1634 105 1634 197 1634 c 0,82,83
 282 1634 282 1634 367.5 1620.5 c 128,-1,84
 453 1607 453 1607 536.5 1587.5 c 128,-1,85
 620 1568 620 1568 699.5 1545.5 c 128,-1,86
 779 1523 779 1523 852 1505 c 1,87,88
 895 1584 895 1584 959 1631.5 c 128,-1,89
 1023 1679 1023 1679 1098 1679 c 0,90,91
 1130 1679 1130 1679 1155 1668.5 c 128,-1,92
 1180 1658 1180 1658 1197 1641 c 128,-1,93
 1214 1624 1214 1624 1222.5 1601.5 c 128,-1,94
 1231 1579 1231 1579 1231 1554 c 0,95,96
 1231 1512 1231 1512 1211.5 1481.5 c 128,-1,97
 1192 1451 1192 1451 1158 1430.5 c 128,-1,98
 1124 1410 1124 1410 1078 1400.5 c 128,-1,99
 1032 1391 1032 1391 979 1391 c 0,100,101
 967 1391 967 1391 954.5 1391 c 128,-1,102
 942 1391 942 1391 930 1393 c 1,103,104
 921 1359 921 1359 915 1305 c 128,-1,105
 909 1251 909 1251 909 1188 c 0,0,1
1098 1624 m 0,106,107
 1053 1624 1053 1624 1015 1591.5 c 128,-1,108
 977 1559 977 1559 952 1481 c 1,109,110
 983 1476 983 1476 1012 1473 c 128,-1,111
 1041 1470 1041 1470 1067 1470 c 0,112,113
 1094 1470 1094 1470 1113.5 1477.5 c 128,-1,114
 1133 1485 1133 1485 1145 1497 c 128,-1,115
 1157 1509 1157 1509 1163 1524 c 128,-1,116
 1169 1539 1169 1539 1169 1554 c 0,117,118
 1169 1583 1169 1583 1149 1603.5 c 128,-1,119
 1129 1624 1129 1624 1098 1624 c 0,106,107
EndSplineSet
EndChar

StartChar: U
Encoding: 85 85 56
Width: 1551
Flags: W
LayerCount: 2
Fore
SplineSet
619 0 m 0,0,1
 678 0 678 0 733 28 c 128,-1,2
 788 56 788 56 839 106 c 128,-1,3
 890 156 890 156 935.5 225 c 128,-1,4
 981 294 981 294 1022 375 c 1,5,-1
 1022 422 l 2,6,7
 1022 547 1022 547 1031.5 688.5 c 128,-1,8
 1041 830 1041 830 1059 970 c 128,-1,9
 1077 1110 1077 1110 1103 1238 c 128,-1,10
 1129 1366 1129 1366 1161.5 1464 c 128,-1,11
 1194 1562 1194 1562 1233 1620.5 c 128,-1,12
 1272 1679 1272 1679 1315 1679 c 0,13,14
 1346 1679 1346 1679 1361 1647 c 128,-1,15
 1376 1615 1376 1615 1376 1546 c 0,16,17
 1376 1475 1376 1475 1363.5 1366 c 128,-1,18
 1351 1257 1351 1257 1326 1126.5 c 128,-1,19
 1301 996 1301 996 1263 850.5 c 128,-1,20
 1225 705 1225 705 1174 561 c 1,21,-1
 1174 498 l 2,22,23
 1174 309 1174 309 1203.5 211 c 128,-1,24
 1233 113 1233 113 1305 113 c 0,25,26
 1333 113 1333 113 1358 131 c 128,-1,27
 1383 149 1383 149 1409 187 c 128,-1,28
 1435 225 1435 225 1466.5 285.5 c 128,-1,29
 1498 346 1498 346 1540 430 c 1,30,-1
 1551 451 l 1,31,-1
 1591 420 l 1,32,-1
 1581 399 l 1,33,34
 1531 299 1531 299 1492 224.5 c 128,-1,35
 1453 150 1453 150 1415.5 100 c 128,-1,36
 1378 50 1378 50 1337 25 c 128,-1,37
 1296 0 1296 0 1243 0 c 0,38,39
 1143 0 1143 0 1091.5 74.5 c 128,-1,40
 1040 149 1040 149 1026 289 c 1,41,42
 985 214 985 214 938.5 151.5 c 128,-1,43
 892 89 892 89 839.5 44 c 128,-1,44
 787 -1 787 -1 729.5 -26 c 128,-1,45
 672 -51 672 -51 608 -51 c 0,46,47
 543 -51 543 -51 482 -28 c 128,-1,48
 421 -5 421 -5 374 42.5 c 128,-1,49
 327 90 327 90 299 163.5 c 128,-1,50
 271 237 271 237 271 338 c 0,51,52
 271 448 271 448 293.5 555 c 128,-1,53
 316 662 316 662 350.5 764.5 c 128,-1,54
 385 867 385 867 424.5 964 c 128,-1,55
 464 1061 464 1061 498.5 1150.5 c 128,-1,56
 533 1240 533 1240 555.5 1321.5 c 128,-1,57
 578 1403 578 1403 578 1475 c 0,58,59
 578 1518 578 1518 569 1547.5 c 128,-1,60
 560 1577 560 1577 543.5 1595 c 128,-1,61
 527 1613 527 1613 504.5 1620.5 c 128,-1,62
 482 1628 482 1628 455 1628 c 0,63,64
 381 1628 381 1628 310.5 1594 c 128,-1,65
 240 1560 240 1560 177.5 1503 c 128,-1,66
 115 1446 115 1446 62.5 1372 c 128,-1,67
 10 1298 10 1298 -28 1217 c 128,-1,68
 -66 1136 -66 1136 -87 1054.5 c 128,-1,69
 -108 973 -108 973 -108 901 c 0,70,71
 -108 824 -108 824 -79 786 c 128,-1,72
 -50 748 -50 748 4 748 c 0,73,74
 43 748 43 748 83 771.5 c 128,-1,75
 123 795 123 795 160.5 837 c 128,-1,76
 198 879 198 879 231.5 937 c 128,-1,77
 265 995 265 995 291 1065 c 1,78,-1
 332 1044 l 1,79,80
 313 998 313 998 280.5 938 c 128,-1,81
 248 878 248 878 203 824 c 128,-1,82
 158 770 158 770 100.5 733 c 128,-1,83
 43 696 43 696 -26 696 c 0,84,85
 -68 696 -68 696 -104 709.5 c 128,-1,86
 -140 723 -140 723 -166 750 c 128,-1,87
 -192 777 -192 777 -206.5 817 c 128,-1,88
 -221 857 -221 857 -221 911 c 0,89,90
 -221 1001 -221 1001 -190.5 1093 c 128,-1,91
 -160 1185 -160 1185 -108 1270.5 c 128,-1,92
 -56 1356 -56 1356 14 1430.5 c 128,-1,93
 84 1505 84 1505 162.5 1560 c 128,-1,94
 241 1615 241 1615 324 1647 c 128,-1,95
 407 1679 407 1679 486 1679 c 0,96,97
 534 1679 534 1679 573.5 1663.5 c 128,-1,98
 613 1648 613 1648 641.5 1617.5 c 128,-1,99
 670 1587 670 1587 685.5 1541 c 128,-1,100
 701 1495 701 1495 701 1434 c 0,101,102
 701 1360 701 1360 679.5 1267 c 128,-1,103
 658 1174 658 1174 626.5 1071.5 c 128,-1,104
 595 969 595 969 557.5 860.5 c 128,-1,105
 520 752 520 752 488.5 645.5 c 128,-1,106
 457 539 457 539 435.5 439.5 c 128,-1,107
 414 340 414 340 414 256 c 0,108,109
 414 174 414 174 435.5 123.5 c 128,-1,110
 457 73 457 73 488 45.5 c 128,-1,111
 519 18 519 18 554.5 9 c 128,-1,112
 590 0 590 0 619 0 c 0,0,1
1284 1587 m 256,113,114
 1270 1587 1270 1587 1258 1547.5 c 128,-1,115
 1246 1508 1246 1508 1235.5 1441.5 c 128,-1,116
 1225 1375 1225 1375 1216 1287.5 c 128,-1,117
 1207 1200 1207 1200 1199.5 1104 c 128,-1,118
 1192 1008 1192 1008 1187 909.5 c 128,-1,119
 1182 811 1182 811 1178 723 c 1,120,121
 1211 836 1211 836 1236 947.5 c 128,-1,122
 1261 1059 1261 1059 1278.5 1159.5 c 128,-1,123
 1296 1260 1296 1260 1304.5 1343.5 c 128,-1,124
 1313 1427 1313 1427 1313 1483 c 0,125,126
 1313 1532 1313 1532 1305.5 1559.5 c 128,-1,127
 1298 1587 1298 1587 1284 1587 c 256,113,114
EndSplineSet
EndChar

StartChar: V
Encoding: 86 86 57
Width: 1361
Flags: W
LayerCount: 2
Fore
SplineSet
1082 1669 m 0,0,1
 1143 1669 1143 1669 1186 1637.5 c 128,-1,2
 1229 1606 1229 1606 1257 1547.5 c 128,-1,3
 1285 1489 1285 1489 1298 1405.5 c 128,-1,4
 1311 1322 1311 1322 1311 1219 c 0,5,6
 1311 1123 1311 1123 1300 1018 c 128,-1,7
 1289 913 1289 913 1267.5 805.5 c 128,-1,8
 1246 698 1246 698 1214.5 593 c 128,-1,9
 1183 488 1183 488 1143 393 c 128,-1,10
 1103 298 1103 298 1054 216.5 c 128,-1,11
 1005 135 1005 135 948 75.5 c 128,-1,12
 891 16 891 16 826.5 -17.5 c 128,-1,13
 762 -51 762 -51 691 -51 c 0,14,15
 616 -51 616 -51 561.5 -24.5 c 128,-1,16
 507 2 507 2 469.5 47.5 c 128,-1,17
 432 93 432 93 409 152.5 c 128,-1,18
 386 212 386 212 373.5 278 c 128,-1,19
 361 344 361 344 357 412.5 c 128,-1,20
 353 481 353 481 353 543 c 0,21,22
 353 662 353 662 363 774.5 c 128,-1,23
 373 887 373 887 385.5 992 c 128,-1,24
 398 1097 398 1097 408 1193 c 128,-1,25
 418 1289 418 1289 418 1376 c 0,26,27
 418 1449 418 1449 410 1497.5 c 128,-1,28
 402 1546 402 1546 385.5 1575 c 128,-1,29
 369 1604 369 1604 344 1616 c 128,-1,30
 319 1628 319 1628 285 1628 c 0,31,32
 241 1628 241 1628 198 1608 c 128,-1,33
 155 1588 155 1588 115.5 1552.5 c 128,-1,34
 76 1517 76 1517 43 1468.5 c 128,-1,35
 10 1420 10 1420 -14.5 1363 c 128,-1,36
 -39 1306 -39 1306 -53 1243.5 c 128,-1,37
 -67 1181 -67 1181 -67 1118 c 0,38,39
 -67 1053 -67 1053 -58 1009 c 128,-1,40
 -49 965 -49 965 -33.5 938 c 128,-1,41
 -18 911 -18 911 4.5 899 c 128,-1,42
 27 887 27 887 54 887 c 0,43,44
 101 887 101 887 139 912.5 c 128,-1,45
 177 938 177 938 205 984.5 c 128,-1,46
 233 1031 233 1031 251 1096.5 c 128,-1,47
 269 1162 269 1162 277 1241 c 1,48,-1
 324 1239 l 1,49,50
 321 1205 321 1205 313.5 1161.5 c 128,-1,51
 306 1118 306 1118 292 1073.5 c 128,-1,52
 278 1029 278 1029 257 986 c 128,-1,53
 236 943 236 943 205 910 c 128,-1,54
 174 877 174 877 133 856.5 c 128,-1,55
 92 836 92 836 38 836 c 0,56,57
 -1 836 -1 836 -43 851 c 128,-1,58
 -85 866 -85 866 -120 898 c 128,-1,59
 -155 930 -155 930 -177.5 981.5 c 128,-1,60
 -200 1033 -200 1033 -200 1106 c 0,61,62
 -200 1178 -200 1178 -179.5 1248 c 128,-1,63
 -159 1318 -159 1318 -123.5 1382 c 128,-1,64
 -88 1446 -88 1446 -39.5 1500 c 128,-1,65
 9 1554 9 1554 66 1594 c 128,-1,66
 123 1634 123 1634 186 1656.5 c 128,-1,67
 249 1679 249 1679 312 1679 c 0,68,69
 580 1679 580 1679 580 1290 c 0,70,71
 580 1195 580 1195 571.5 1088 c 128,-1,72
 563 981 563 981 553.5 869.5 c 128,-1,73
 544 758 544 758 535.5 646.5 c 128,-1,74
 527 535 527 535 527 432 c 0,75,76
 527 298 527 298 539 215 c 128,-1,77
 551 132 551 132 574 86.5 c 128,-1,78
 597 41 597 41 630 25.5 c 128,-1,79
 663 10 663 10 705 10 c 0,80,81
 768 10 768 10 829 56.5 c 128,-1,82
 890 103 890 103 945 182.5 c 128,-1,83
 1000 262 1000 262 1046.5 368.5 c 128,-1,84
 1093 475 1093 475 1127 595.5 c 128,-1,85
 1161 716 1161 716 1180 844.5 c 128,-1,86
 1199 973 1199 973 1199 1096 c 0,87,88
 1199 1235 1199 1235 1184 1327.5 c 128,-1,89
 1169 1420 1169 1420 1143 1475.5 c 128,-1,90
 1117 1531 1117 1531 1083 1554 c 128,-1,91
 1049 1577 1049 1577 1010 1577 c 0,92,93
 983 1577 983 1577 958.5 1567.5 c 128,-1,94
 934 1558 934 1558 913 1544 c 128,-1,95
 892 1530 892 1530 875 1514 c 128,-1,96
 858 1498 858 1498 847 1485 c 1,97,-1
 806 1516 l 1,98,99
 820 1534 820 1534 847.5 1560 c 128,-1,100
 875 1586 875 1586 911.5 1610 c 128,-1,101
 948 1634 948 1634 991.5 1651.5 c 128,-1,102
 1035 1669 1035 1669 1082 1669 c 0,0,1
EndSplineSet
EndChar

StartChar: W
Encoding: 87 87 58
Width: 1927
Flags: W
LayerCount: 2
Fore
SplineSet
651 72 m 0,0,1
 688 72 688 72 726.5 93.5 c 128,-1,2
 765 115 765 115 801.5 152.5 c 128,-1,3
 838 190 838 190 871 241 c 128,-1,4
 904 292 904 292 931.5 350.5 c 128,-1,5
 959 409 959 409 978.5 472.5 c 128,-1,6
 998 536 998 536 1008 600 c 1,7,8
 1010 693 1010 693 1017.5 784.5 c 128,-1,9
 1025 876 1025 876 1034 951 c 0,10,11
 1045 1038 1045 1038 1057 1118 c 1,12,-1
 1216 1161 l 1,13,14
 1204 1073 1204 1073 1194 962 c 0,15,16
 1186 867 1186 867 1179.5 737 c 128,-1,17
 1173 607 1173 607 1173 451 c 0,18,19
 1173 325 1173 325 1189.5 240.5 c 128,-1,20
 1206 156 1206 156 1234.5 104.5 c 128,-1,21
 1263 53 1263 53 1300.5 31.5 c 128,-1,22
 1338 10 1338 10 1380 10 c 0,23,24
 1434 10 1434 10 1480.5 43 c 128,-1,25
 1527 76 1527 76 1564.5 135 c 128,-1,26
 1602 194 1602 194 1631 274.5 c 128,-1,27
 1660 355 1660 355 1680 450 c 128,-1,28
 1700 545 1700 545 1710 650 c 128,-1,29
 1720 755 1720 755 1720 862 c 0,30,31
 1720 1002 1720 1002 1708.5 1109.5 c 128,-1,32
 1697 1217 1697 1217 1677.5 1296 c 128,-1,33
 1658 1375 1658 1375 1632 1428 c 128,-1,34
 1606 1481 1606 1481 1577.5 1513.5 c 128,-1,35
 1549 1546 1549 1546 1519 1559.5 c 128,-1,36
 1489 1573 1489 1573 1462 1573 c 0,37,38
 1433 1573 1433 1573 1409 1562.5 c 128,-1,39
 1385 1552 1385 1552 1365.5 1536 c 128,-1,40
 1346 1520 1346 1520 1330.5 1502.5 c 128,-1,41
 1315 1485 1315 1485 1305 1470 c 1,42,-1
 1259 1497 l 1,43,44
 1271 1516 1271 1516 1295.5 1545.5 c 128,-1,45
 1320 1575 1320 1575 1354.5 1602.5 c 128,-1,46
 1389 1630 1389 1630 1432.5 1649.5 c 128,-1,47
 1476 1669 1476 1669 1526 1669 c 0,48,49
 1599 1669 1599 1669 1655.5 1620 c 128,-1,50
 1712 1571 1712 1571 1750.5 1481 c 128,-1,51
 1789 1391 1789 1391 1809 1265 c 128,-1,52
 1829 1139 1829 1139 1829 985 c 0,53,54
 1829 857 1829 857 1816.5 730.5 c 128,-1,55
 1804 604 1804 604 1779 489 c 128,-1,56
 1754 374 1754 374 1716 275 c 128,-1,57
 1678 176 1678 176 1627 103.5 c 128,-1,58
 1576 31 1576 31 1512 -10 c 128,-1,59
 1448 -51 1448 -51 1370 -51 c 0,60,61
 1301 -51 1301 -51 1242.5 -23 c 128,-1,62
 1184 5 1184 5 1139 60.5 c 128,-1,63
 1094 116 1094 116 1063 198.5 c 128,-1,64
 1032 281 1032 281 1018 389 c 1,65,66
 989 313 989 313 947 242.5 c 128,-1,67
 905 172 905 172 853 118 c 128,-1,68
 801 64 801 64 741 32 c 128,-1,69
 681 0 681 0 616 0 c 0,70,71
 556 0 556 0 500 19.5 c 128,-1,72
 444 39 444 39 400.5 86 c 128,-1,73
 357 133 357 133 331 211.5 c 128,-1,74
 305 290 305 290 305 408 c 0,75,76
 305 499 305 499 322 592.5 c 128,-1,77
 339 686 339 686 365 779 c 128,-1,78
 391 872 391 872 421 963 c 128,-1,79
 451 1054 451 1054 477 1140 c 128,-1,80
 503 1226 503 1226 520 1305 c 128,-1,81
 537 1384 537 1384 537 1454 c 0,82,83
 537 1545 537 1545 500.5 1586.5 c 128,-1,84
 464 1628 464 1628 401 1628 c 0,85,86
 331 1628 331 1628 267.5 1596.5 c 128,-1,87
 204 1565 204 1565 149.5 1512 c 128,-1,88
 95 1459 95 1459 50.5 1389.5 c 128,-1,89
 6 1320 6 1320 -25 1243 c 128,-1,90
 -56 1166 -56 1166 -73 1087 c 128,-1,91
 -90 1008 -90 1008 -90 936 c 0,92,93
 -90 737 -90 737 29 737 c 0,94,95
 67 737 67 737 105 760.5 c 128,-1,96
 143 784 143 784 177 826 c 128,-1,97
 211 868 211 868 239 926.5 c 128,-1,98
 267 985 267 985 287 1055 c 1,99,-1
 330 1034 l 1,100,101
 320 1003 320 1003 304.5 965.5 c 128,-1,102
 289 928 289 928 268 889 c 128,-1,103
 247 850 247 850 220 813.5 c 128,-1,104
 193 777 193 777 160 748.5 c 128,-1,105
 127 720 127 720 87.5 703 c 128,-1,106
 48 686 48 686 2 686 c 0,107,108
 -95 686 -95 686 -153 751.5 c 128,-1,109
 -211 817 -211 817 -211 948 c 0,110,111
 -211 1035 -211 1035 -184.5 1123 c 128,-1,112
 -158 1211 -158 1211 -112 1292 c 128,-1,113
 -66 1373 -66 1373 -4 1444 c 128,-1,114
 58 1515 58 1515 129 1567 c 128,-1,115
 200 1619 200 1619 276.5 1649 c 128,-1,116
 353 1679 353 1679 428 1679 c 0,117,118
 490 1679 490 1679 540 1663 c 128,-1,119
 590 1647 590 1647 624.5 1613 c 128,-1,120
 659 1579 659 1579 677.5 1527 c 128,-1,121
 696 1475 696 1475 696 1403 c 0,122,123
 696 1332 696 1332 680.5 1249 c 128,-1,124
 665 1166 665 1166 641.5 1075.5 c 128,-1,125
 618 985 618 985 590.5 889.5 c 128,-1,126
 563 794 563 794 539.5 697.5 c 128,-1,127
 516 601 516 601 500.5 506.5 c 128,-1,128
 485 412 485 412 485 324 c 0,129,130
 485 256 485 256 496 208 c 128,-1,131
 507 160 507 160 528 130 c 128,-1,132
 549 100 549 100 580 86 c 128,-1,133
 611 72 611 72 651 72 c 0,0,1
EndSplineSet
EndChar

StartChar: X
Encoding: 88 88 59
Width: 1444
Flags: W
LayerCount: 2
Fore
SplineSet
236 1667 m 0,0,1
 269 1667 269 1667 296 1655.5 c 128,-1,2
 323 1644 323 1644 350 1613.5 c 128,-1,3
 377 1583 377 1583 407.5 1529.5 c 128,-1,4
 438 1476 438 1476 479 1393 c 128,-1,5
 520 1310 520 1310 574 1193 c 128,-1,6
 628 1076 628 1076 702 918 c 1,7,8
 774 1093 774 1093 830.5 1224 c 128,-1,9
 887 1355 887 1355 945 1442 c 128,-1,10
 1003 1529 1003 1529 1069 1572.5 c 128,-1,11
 1135 1616 1135 1616 1225 1616 c 1,12,-1
 1303 1612 l 1,13,-1
 1284 1470 l 1,14,15
 1270 1472 1270 1472 1255 1475 c 0,16,17
 1242 1477 1242 1477 1227 1479 c 128,-1,18
 1212 1481 1212 1481 1198 1481 c 0,19,20
 1154 1481 1154 1481 1119.5 1470.5 c 128,-1,21
 1085 1460 1085 1460 1053 1433 c 128,-1,22
 1021 1406 1021 1406 990 1359.5 c 128,-1,23
 959 1313 959 1313 923 1240 c 128,-1,24
 887 1167 887 1167 844 1065 c 128,-1,25
 801 963 801 963 745 825 c 1,26,27
 786 735 786 735 828.5 647.5 c 128,-1,28
 871 560 871 560 913 481 c 128,-1,29
 955 402 955 402 995.5 334.5 c 128,-1,30
 1036 267 1036 267 1073.5 218 c 128,-1,31
 1111 169 1111 169 1145 141 c 128,-1,32
 1179 113 1179 113 1208 113 c 0,33,34
 1242 113 1242 113 1273 144.5 c 128,-1,35
 1304 176 1304 176 1331.5 223 c 128,-1,36
 1359 270 1359 270 1384.5 326 c 128,-1,37
 1410 382 1410 382 1434 430 c 1,38,-1
 1444 451 l 1,39,-1
 1485 420 l 1,40,-1
 1475 399 l 1,41,42
 1433 314 1433 314 1397.5 241 c 128,-1,43
 1362 168 1362 168 1325 114.5 c 128,-1,44
 1288 61 1288 61 1246 30.5 c 128,-1,45
 1204 0 1204 0 1147 0 c 0,46,47
 1079 0 1079 0 1018 54.5 c 128,-1,48
 957 109 957 109 899 199.5 c 128,-1,49
 841 290 841 290 783 406.5 c 128,-1,50
 725 523 725 523 662 647 c 1,51,52
 603 522 603 522 537 403.5 c 128,-1,53
 471 285 471 285 399.5 192 c 128,-1,54
 328 99 328 99 254 42.5 c 128,-1,55
 180 -14 180 -14 106 -14 c 0,56,57
 79 -14 79 -14 58 -9.5 c 128,-1,58
 37 -5 37 -5 22 0 c 0,59,60
 4 6 4 6 -8 14 c 1,61,-1
 33 172 l 1,62,63
 93 141 93 141 145 141 c 0,64,65
 191 141 191 141 235.5 168.5 c 128,-1,66
 280 196 280 196 323 242 c 128,-1,67
 366 288 366 288 406 349 c 128,-1,68
 446 410 446 410 482.5 476 c 128,-1,69
 519 542 519 542 551.5 610 c 128,-1,70
 584 678 584 678 612 739 c 1,71,72
 530 922 530 922 471 1054.5 c 128,-1,73
 412 1187 412 1187 370.5 1280 c 128,-1,74
 329 1373 329 1373 301 1430 c 128,-1,75
 273 1487 273 1487 252.5 1519 c 128,-1,76
 232 1551 232 1551 216 1562 c 128,-1,77
 200 1573 200 1573 182 1573 c 0,78,79
 158 1573 158 1573 136.5 1553.5 c 128,-1,80
 115 1534 115 1534 97 1506.5 c 128,-1,81
 79 1479 79 1479 65.5 1449.5 c 128,-1,82
 52 1420 52 1420 45 1401 c 1,83,-1
 0 1421 l 1,84,85
 14 1463 14 1463 34.5 1507 c 128,-1,86
 55 1551 55 1551 84 1586.5 c 128,-1,87
 113 1622 113 1622 150.5 1644.5 c 128,-1,88
 188 1667 188 1667 236 1667 c 0,0,1
EndSplineSet
EndChar

StartChar: Y
Encoding: 89 89 60
Width: 1479
Flags: W
LayerCount: 2
Fore
SplineSet
650 0 m 0,0,1
 717 0 717 0 778 33.5 c 128,-1,2
 839 67 839 67 894.5 127 c 128,-1,3
 950 187 950 187 999.5 268.5 c 128,-1,4
 1049 350 1049 350 1092 446 c 1,5,6
 1096 604 1096 604 1101.5 757 c 128,-1,7
 1107 910 1107 910 1116 1047 c 128,-1,8
 1125 1184 1125 1184 1140 1300 c 128,-1,9
 1155 1416 1155 1416 1180 1500 c 128,-1,10
 1205 1584 1205 1584 1240.5 1631.5 c 128,-1,11
 1276 1679 1276 1679 1326 1679 c 0,12,13
 1356 1679 1356 1679 1381.5 1647 c 128,-1,14
 1407 1615 1407 1615 1407 1546 c 0,15,16
 1407 1482 1407 1482 1397.5 1388 c 128,-1,17
 1388 1294 1388 1294 1368.5 1180 c 128,-1,18
 1349 1066 1349 1066 1319.5 939 c 128,-1,19
 1290 812 1290 812 1250 682 c 1,20,-1
 1250 627 l 2,21,22
 1250 491 1250 491 1247.5 349.5 c 128,-1,23
 1245 208 1245 208 1237.5 66.5 c 128,-1,24
 1230 -75 1230 -75 1217 -213 c 128,-1,25
 1204 -351 1204 -351 1182 -481 c 1,26,-1
 1029 -502 l 1,27,28
 1058 -319 1058 -319 1070 -105.5 c 128,-1,29
 1082 108 1082 108 1090 338 c 1,30,31
 1046 251 1046 251 996 179.5 c 128,-1,32
 946 108 946 108 890 56.5 c 128,-1,33
 834 5 834 5 771 -23 c 128,-1,34
 708 -51 708 -51 639 -51 c 0,35,36
 574 -51 574 -51 513 -30 c 128,-1,37
 452 -9 452 -9 405 37 c 128,-1,38
 358 83 358 83 330 154.5 c 128,-1,39
 302 226 302 226 302 328 c 0,40,41
 302 438 302 438 324.5 546 c 128,-1,42
 347 654 347 654 381.5 757.5 c 128,-1,43
 416 861 416 861 455.5 959 c 128,-1,44
 495 1057 495 1057 529.5 1148 c 128,-1,45
 564 1239 564 1239 586.5 1321 c 128,-1,46
 609 1403 609 1403 609 1475 c 0,47,48
 609 1518 609 1518 600 1547.5 c 128,-1,49
 591 1577 591 1577 574.5 1595 c 128,-1,50
 558 1613 558 1613 535.5 1620.5 c 128,-1,51
 513 1628 513 1628 486 1628 c 0,52,53
 412 1628 412 1628 341.5 1593.5 c 128,-1,54
 271 1559 271 1559 208.5 1501 c 128,-1,55
 146 1443 146 1443 93.5 1367.5 c 128,-1,56
 41 1292 41 1292 3 1210 c 128,-1,57
 -35 1128 -35 1128 -56 1045.5 c 128,-1,58
 -77 963 -77 963 -77 891 c 0,59,60
 -77 813 -77 813 -48 775 c 128,-1,61
 -19 737 -19 737 35 737 c 0,62,63
 74 737 74 737 114 760.5 c 128,-1,64
 154 784 154 784 191.5 826 c 128,-1,65
 229 868 229 868 262.5 926.5 c 128,-1,66
 296 985 296 985 322 1055 c 1,67,-1
 363 1034 l 1,68,69
 350 1003 350 1003 331.5 965.5 c 128,-1,70
 313 928 313 928 288.5 889 c 128,-1,71
 264 850 264 850 234 813.5 c 128,-1,72
 204 777 204 777 168.5 748.5 c 128,-1,73
 133 720 133 720 92 703 c 128,-1,74
 51 686 51 686 5 686 c 0,75,76
 -37 686 -37 686 -73 699.5 c 128,-1,77
 -109 713 -109 713 -135 740 c 128,-1,78
 -161 767 -161 767 -175.5 807 c 128,-1,79
 -190 847 -190 847 -190 901 c 0,80,81
 -190 991 -190 991 -159.5 1084 c 128,-1,82
 -129 1177 -129 1177 -77 1263.5 c 128,-1,83
 -25 1350 -25 1350 45 1425.5 c 128,-1,84
 115 1501 115 1501 193.5 1557.5 c 128,-1,85
 272 1614 272 1614 355 1646.5 c 128,-1,86
 438 1679 438 1679 517 1679 c 0,87,88
 565 1679 565 1679 604.5 1663.5 c 128,-1,89
 644 1648 644 1648 672.5 1617.5 c 128,-1,90
 701 1587 701 1587 716.5 1541 c 128,-1,91
 732 1495 732 1495 732 1434 c 0,92,93
 732 1360 732 1360 710.5 1266.5 c 128,-1,94
 689 1173 689 1173 657.5 1069 c 128,-1,95
 626 965 626 965 588.5 855 c 128,-1,96
 551 745 551 745 519.5 638 c 128,-1,97
 488 531 488 531 466.5 430.5 c 128,-1,98
 445 330 445 330 445 246 c 0,99,100
 445 164 445 164 466.5 115 c 128,-1,101
 488 66 488 66 519 40.5 c 128,-1,102
 550 15 550 15 585.5 7.5 c 128,-1,103
 621 0 621 0 650 0 c 0,0,1
1315 1587 m 0,104,105
 1293 1587 1293 1587 1279.5 1550.5 c 128,-1,106
 1266 1514 1266 1514 1259 1447.5 c 128,-1,107
 1252 1381 1252 1381 1250 1288 c 128,-1,108
 1248 1195 1248 1195 1248 1083 c 2,109,-1
 1248 862 l 1,110,111
 1271 956 1271 956 1289 1047.5 c 128,-1,112
 1307 1139 1307 1139 1319 1220 c 128,-1,113
 1331 1301 1331 1301 1337.5 1368.5 c 128,-1,114
 1344 1436 1344 1436 1344 1483 c 0,115,116
 1344 1532 1344 1532 1336.5 1559.5 c 128,-1,117
 1329 1587 1329 1587 1315 1587 c 0,104,105
EndSplineSet
EndChar

StartChar: Z
Encoding: 90 90 61
Width: 1332
Flags: W
LayerCount: 2
Fore
SplineSet
486 819 m 1,0,-1
 664 819 l 1,1,2
 691 876 691 876 721 946.5 c 128,-1,3
 751 1017 751 1017 785 1091.5 c 128,-1,4
 819 1166 819 1166 857 1241 c 128,-1,5
 895 1316 895 1316 938 1382 c 1,6,7
 866 1401 866 1401 790.5 1425.5 c 128,-1,8
 715 1450 715 1450 637 1472.5 c 128,-1,9
 559 1495 559 1495 480 1510.5 c 128,-1,10
 401 1526 401 1526 322 1526 c 0,11,12
 263 1526 263 1526 226 1513.5 c 128,-1,13
 189 1501 189 1501 167 1481 c 128,-1,14
 145 1461 145 1461 137 1435 c 128,-1,15
 129 1409 129 1409 129 1382 c 0,16,17
 129 1354 129 1354 139.5 1329.5 c 128,-1,18
 150 1305 150 1305 171.5 1287 c 128,-1,19
 193 1269 193 1269 226 1259 c 128,-1,20
 259 1249 259 1249 304 1249 c 256,21,22
 349 1249 349 1249 383.5 1260.5 c 128,-1,23
 418 1272 418 1272 443 1286 c 0,24,25
 472 1302 472 1302 494 1323 c 1,26,-1
 512 1280 l 1,27,28
 485 1257 485 1257 452 1239 c 0,29,30
 424 1223 424 1223 386.5 1210.5 c 128,-1,31
 349 1198 349 1198 304 1198 c 0,32,33
 246 1198 246 1198 201.5 1214.5 c 128,-1,34
 157 1231 157 1231 127 1259.5 c 128,-1,35
 97 1288 97 1288 81.5 1325 c 128,-1,36
 66 1362 66 1362 66 1403 c 0,37,38
 66 1457 66 1457 85 1506.5 c 128,-1,39
 104 1556 104 1556 144 1594.5 c 128,-1,40
 184 1633 184 1633 245 1656 c 128,-1,41
 306 1679 306 1679 390 1679 c 0,42,43
 482 1679 482 1679 568.5 1659.5 c 128,-1,44
 655 1640 655 1640 736 1612.5 c 128,-1,45
 817 1585 817 1585 891 1555 c 128,-1,46
 965 1525 965 1525 1031 1503 c 1,47,48
 1077 1551 1077 1551 1126.5 1579.5 c 128,-1,49
 1176 1608 1176 1608 1233 1608 c 0,50,51
 1287 1608 1287 1608 1314.5 1583.5 c 128,-1,52
 1342 1559 1342 1559 1342 1516 c 0,53,54
 1342 1487 1342 1487 1332.5 1458 c 128,-1,55
 1323 1429 1323 1429 1300 1405.5 c 128,-1,56
 1277 1382 1277 1382 1238 1367 c 128,-1,57
 1199 1352 1199 1352 1141 1352 c 0,58,59
 1106 1352 1106 1352 1070 1356 c 128,-1,60
 1034 1360 1034 1360 996 1368 c 1,61,62
 955 1306 955 1306 918 1233.5 c 128,-1,63
 881 1161 881 1161 848 1087.5 c 128,-1,64
 815 1014 815 1014 786 944 c 128,-1,65
 757 874 757 874 732 819 c 1,66,-1
 914 819 l 1,67,-1
 895 758 l 1,68,-1
 703 758 l 1,69,70
 635 617 635 617 567.5 486 c 128,-1,71
 500 355 500 355 422 250 c 1,72,73
 492 230 492 230 557.5 204.5 c 128,-1,74
 623 179 623 179 687.5 156 c 128,-1,75
 752 133 752 133 817 117.5 c 128,-1,76
 882 102 882 102 951 102 c 0,77,78
 1016 102 1016 102 1065.5 120.5 c 128,-1,79
 1115 139 1115 139 1157 178.5 c 128,-1,80
 1199 218 1199 218 1238 280.5 c 128,-1,81
 1277 343 1277 343 1321 430 c 1,82,-1
 1332 451 l 1,83,-1
 1373 420 l 1,84,-1
 1362 399 l 1,85,86
 1315 306 1315 306 1270 224 c 128,-1,87
 1225 142 1225 142 1171 81 c 128,-1,88
 1117 20 1117 20 1048.5 -15.5 c 128,-1,89
 980 -51 980 -51 887 -51 c 0,90,91
 812 -51 812 -51 737.5 -33 c 128,-1,92
 663 -15 663 -15 590.5 12 c 128,-1,93
 518 39 518 39 448 69 c 128,-1,94
 378 99 378 99 312 123 c 1,95,96
 253 64 253 64 187.5 32 c 128,-1,97
 122 0 122 0 50 0 c 0,98,99
 0 0 0 0 -30.5 26.5 c 128,-1,100
 -61 53 -61 53 -61 102 c 0,101,102
 -61 133 -61 133 -44.5 166 c 128,-1,103
 -28 199 -28 199 4.5 226 c 128,-1,104
 37 253 37 253 85 270 c 128,-1,105
 133 287 133 287 195 287 c 0,106,107
 235 287 235 287 277 281.5 c 128,-1,108
 319 276 319 276 359 266 c 1,109,110
 431 365 431 365 499 491.5 c 128,-1,111
 567 618 567 618 635 758 c 1,112,-1
 467 758 l 1,113,-1
 486 819 l 1,0,-1
58 51 m 0,114,115
 109 51 109 51 156.5 74.5 c 128,-1,116
 204 98 204 98 250 141 c 1,117,118
 178 164 178 164 103 164 c 0,119,120
 69 164 69 164 46.5 158.5 c 128,-1,121
 24 153 24 153 10 144 c 128,-1,122
 -4 135 -4 135 -10 123 c 128,-1,123
 -16 111 -16 111 -16 98 c 0,124,125
 -16 78 -16 78 3.5 64.5 c 128,-1,126
 23 51 23 51 58 51 c 0,114,115
1233 1556 m 0,127,128
 1196 1556 1196 1556 1160 1537.5 c 128,-1,129
 1124 1519 1124 1519 1090 1487 c 1,130,131
 1142 1475 1142 1475 1186 1475 c 0,132,133
 1242 1475 1242 1475 1265.5 1491 c 128,-1,134
 1289 1507 1289 1507 1289 1524 c 0,135,136
 1289 1538 1289 1538 1274 1547 c 128,-1,137
 1259 1556 1259 1556 1233 1556 c 0,127,128
EndSplineSet
EndChar

StartChar: bracketleft
Encoding: 91 91 62
Width: 512
Flags: W
LayerCount: 2
Fore
SplineSet
287 0 m 1,0,-1
 369 0 l 1,1,-1
 369 -51 l 1,2,-1
 143 -51 l 1,3,-1
 143 1741 l 1,4,-1
 369 1741 l 1,5,-1
 369 1690 l 1,6,-1
 287 1690 l 1,7,-1
 287 0 l 1,0,-1
EndSplineSet
EndChar

StartChar: backslash
Encoding: 92 92 63
Width: 737
Flags: W
LayerCount: 2
Fore
SplineSet
96 1569 m 1,0,-1
 168 1587 l 1,1,-1
 631 -135 l 1,2,-1
 559 -154 l 1,3,-1
 96 1569 l 1,0,-1
EndSplineSet
EndChar

StartChar: bracketright
Encoding: 93 93 64
Width: 512
Flags: W
LayerCount: 2
Fore
SplineSet
225 1690 m 1,0,-1
 143 1690 l 1,1,-1
 143 1741 l 1,2,-1
 369 1741 l 1,3,-1
 369 -51 l 1,4,-1
 143 -51 l 1,5,-1
 143 0 l 1,6,-1
 225 0 l 1,7,-1
 225 1690 l 1,0,-1
EndSplineSet
EndChar

StartChar: asciicircum
Encoding: 94 94 65
Width: 901
Flags: W
LayerCount: 2
Fore
SplineSet
451 1055 m 1,0,-1
 164 645 l 1,1,-1
 123 676 l 1,2,-1
 451 1219 l 1,3,-1
 778 676 l 1,4,-1
 737 645 l 1,5,-1
 451 1055 l 1,0,-1
EndSplineSet
EndChar

StartChar: underscore
Encoding: 95 95 66
Width: 850
Flags: W
LayerCount: 2
Fore
SplineSet
123 82 m 1,0,-1
 727 82 l 1,1,-1
 727 0 l 1,2,-1
 123 0 l 1,3,-1
 123 82 l 1,0,-1
EndSplineSet
EndChar

StartChar: grave
Encoding: 96 96 67
Width: 246
Flags: W
LayerCount: 2
Fore
SplineSet
205 891 m 1,0,-1
 0 1116 l 1,1,-1
 133 1178 l 1,2,-1
 246 922 l 1,3,-1
 205 891 l 1,0,-1
EndSplineSet
EndChar

StartChar: a
Encoding: 97 97 68
Width: 874
Flags: W
LayerCount: 2
Fore
SplineSet
606 248 m 0,0,1
 606 191 606 191 616 152 c 128,-1,2
 626 113 626 113 651 113 c 0,3,4
 666 113 666 113 683.5 127.5 c 128,-1,5
 701 142 701 142 724 175 c 128,-1,6
 747 208 747 208 776.5 260.5 c 128,-1,7
 806 313 806 313 844 389 c 1,8,-1
 874 451 l 1,9,-1
 915 420 l 1,10,-1
 885 358 l 1,11,12
 843 274 843 274 806.5 207.5 c 128,-1,13
 770 141 770 141 737 95 c 128,-1,14
 704 49 704 49 672.5 24.5 c 128,-1,15
 641 0 641 0 610 0 c 0,16,17
 577 0 577 0 554.5 18 c 128,-1,18
 532 36 532 36 517 67.5 c 128,-1,19
 502 99 502 99 494 140.5 c 128,-1,20
 486 182 486 182 483 229 c 1,21,22
 459 181 459 181 430 139.5 c 128,-1,23
 401 98 401 98 369.5 67 c 128,-1,24
 338 36 338 36 304 18 c 128,-1,25
 270 0 270 0 236 0 c 0,26,27
 186 0 186 0 139 21 c 128,-1,28
 92 42 92 42 55.5 85 c 128,-1,29
 19 128 19 128 -3 193.5 c 128,-1,30
 -25 259 -25 259 -25 348 c 0,31,32
 -25 452 -25 452 2 538.5 c 128,-1,33
 29 625 29 625 75 687.5 c 128,-1,34
 121 750 121 750 181 784.5 c 128,-1,35
 241 819 241 819 307 819 c 0,36,37
 347 819 347 819 381 801 c 128,-1,38
 415 783 415 783 440.5 757.5 c 128,-1,39
 466 732 466 732 483 703.5 c 128,-1,40
 500 675 500 675 506 655 c 1,41,-1
 518 752 l 2,42,43
 520 771 520 771 536.5 784 c 128,-1,44
 553 797 553 797 573 804.5 c 128,-1,45
 593 812 593 812 612 815.5 c 128,-1,46
 631 819 631 819 639 819 c 0,47,48
 651 819 651 819 655 815 c 128,-1,49
 659 811 659 811 659 799 c 0,50,51
 659 784 659 784 650.5 738.5 c 128,-1,52
 642 693 642 693 632.5 622.5 c 128,-1,53
 623 552 623 552 614.5 457 c 128,-1,54
 606 362 606 362 606 248 c 0,0,1
496 512 m 0,55,56
 496 558 496 558 482 602.5 c 128,-1,57
 468 647 468 647 444 681.5 c 128,-1,58
 420 716 420 716 388.5 737 c 128,-1,59
 357 758 357 758 322 758 c 0,60,61
 279 758 279 758 241.5 733.5 c 128,-1,62
 204 709 204 709 176.5 664.5 c 128,-1,63
 149 620 149 620 133 557.5 c 128,-1,64
 117 495 117 495 117 420 c 0,65,66
 117 270 117 270 164 191.5 c 128,-1,67
 211 113 211 113 289 113 c 0,68,69
 323 113 323 113 359.5 140.5 c 128,-1,70
 396 168 396 168 426.5 219.5 c 128,-1,71
 457 271 457 271 476.5 345 c 128,-1,72
 496 419 496 419 496 512 c 0,55,56
EndSplineSet
EndChar

StartChar: b
Encoding: 98 98 69
Width: 797
Flags: W
LayerCount: 2
Fore
SplineSet
131 532 m 1,0,1
 132 417 132 417 146 327.5 c 128,-1,2
 160 238 160 238 185 176.5 c 128,-1,3
 210 115 210 115 246 83 c 128,-1,4
 282 51 282 51 328 51 c 0,5,6
 391 51 391 51 432.5 101.5 c 128,-1,7
 474 152 474 152 494 240 c 1,8,9
 442 251 442 251 395 281 c 128,-1,10
 348 311 348 311 312 355.5 c 128,-1,11
 276 400 276 400 254.5 458 c 128,-1,12
 233 516 233 516 233 584 c 0,13,14
 233 640 233 640 247.5 682.5 c 128,-1,15
 262 725 262 725 286 753.5 c 128,-1,16
 310 782 310 782 341.5 796.5 c 128,-1,17
 373 811 373 811 408 811 c 0,18,19
 449 811 449 811 492 787.5 c 128,-1,20
 535 764 535 764 570 717.5 c 128,-1,21
 605 671 605 671 627 601 c 128,-1,22
 649 531 649 531 649 438 c 0,23,24
 649 403 649 403 645 369 c 128,-1,25
 641 335 641 335 633 303 c 1,26,27
 681 317 681 317 720.5 348 c 128,-1,28
 760 379 760 379 786 430 c 2,29,-1
 797 451 l 1,30,-1
 838 420 l 1,31,-1
 827 399 l 1,32,33
 793 331 793 331 736.5 290.5 c 128,-1,34
 680 250 680 250 614 238 c 1,35,36
 596 187 596 187 567.5 143.5 c 128,-1,37
 539 100 539 100 502.5 68 c 128,-1,38
 466 36 466 36 420.5 18 c 128,-1,39
 375 0 375 0 322 0 c 0,40,41
 247 0 247 0 184.5 32 c 128,-1,42
 122 64 122 64 76.5 136 c 128,-1,43
 31 208 31 208 5.5 325.5 c 128,-1,44
 -20 443 -20 443 -20 614 c 0,45,46
 -20 852 -20 852 2 1019.5 c 128,-1,47
 24 1187 24 1187 60 1292.5 c 128,-1,48
 96 1398 96 1398 143 1446.5 c 128,-1,49
 190 1495 190 1495 240 1495 c 0,50,51
 271 1495 271 1495 291 1470.5 c 128,-1,52
 311 1446 311 1446 311 1382 c 0,53,54
 311 1332 311 1332 303 1268 c 128,-1,55
 295 1204 295 1204 282 1131 c 128,-1,56
 269 1058 269 1058 251 979.5 c 128,-1,57
 233 901 233 901 213 823.5 c 128,-1,58
 193 746 193 746 172 671.5 c 128,-1,59
 151 597 151 597 131 532 c 1,0,1
299 592 m 0,60,61
 299 533 299 533 315.5 483.5 c 128,-1,62
 332 434 332 434 360 396.5 c 128,-1,63
 388 359 388 359 425 334 c 128,-1,64
 462 309 462 309 504 299 c 1,65,66
 509 327 509 327 510.5 357.5 c 128,-1,67
 512 388 512 388 512 420 c 0,68,69
 512 491 512 491 501 548.5 c 128,-1,70
 490 606 490 606 472 646.5 c 128,-1,71
 454 687 454 687 430 709 c 128,-1,72
 406 731 406 731 381 731 c 0,73,74
 347 731 347 731 323 694.5 c 128,-1,75
 299 658 299 658 299 592 c 0,60,61
246 1358 m 0,76,77
 246 1379 246 1379 241 1391 c 128,-1,78
 236 1403 236 1403 225 1403 c 256,79,80
 214 1403 214 1403 203 1372 c 128,-1,81
 192 1341 192 1341 181.5 1288 c 128,-1,82
 171 1235 171 1235 162.5 1165 c 128,-1,83
 154 1095 154 1095 147 1016.5 c 128,-1,84
 140 938 140 938 136 856 c 128,-1,85
 132 774 132 774 131 698 c 1,86,87
 155 786 155 786 176 878.5 c 128,-1,88
 197 971 197 971 212.5 1058 c 128,-1,89
 228 1145 228 1145 237 1222.5 c 128,-1,90
 246 1300 246 1300 246 1358 c 0,76,77
EndSplineSet
EndChar

StartChar: c
Encoding: 99 99 70
Width: 639
Flags: W
LayerCount: 2
Fore
SplineSet
338 571 m 1,0,1
 350 590 350 590 358.5 618 c 128,-1,2
 367 646 367 646 367 674 c 0,3,4
 367 708 367 708 350 733 c 128,-1,5
 333 758 333 758 289 758 c 0,6,7
 260 758 260 758 230 737 c 128,-1,8
 200 716 200 716 174.5 674 c 128,-1,9
 149 632 149 632 133 568 c 128,-1,10
 117 504 117 504 117 418 c 0,11,12
 117 350 117 350 131 294 c 128,-1,13
 145 238 145 238 172 198 c 128,-1,14
 199 158 199 158 237.5 135.5 c 128,-1,15
 276 113 276 113 324 113 c 0,16,17
 359 113 359 113 395.5 131 c 128,-1,18
 432 149 432 149 469.5 187 c 128,-1,19
 507 225 507 225 547 285.5 c 128,-1,20
 587 346 587 346 629 430 c 1,21,-1
 639 451 l 1,22,-1
 680 420 l 1,23,-1
 670 399 l 1,24,25
 616 292 616 292 562.5 216 c 128,-1,26
 509 140 509 140 457 92 c 128,-1,27
 405 44 405 44 355.5 22 c 128,-1,28
 306 0 306 0 260 0 c 0,29,30
 195 0 195 0 144 27 c 128,-1,31
 93 54 93 54 58 100.5 c 128,-1,32
 23 147 23 147 4.5 208.5 c 128,-1,33
 -14 270 -14 270 -14 338 c 0,34,35
 -14 446 -14 446 15.5 534.5 c 128,-1,36
 45 623 45 623 92 686 c 128,-1,37
 139 749 139 749 198 784 c 128,-1,38
 257 819 257 819 317 819 c 0,39,40
 363 819 363 819 394 806 c 128,-1,41
 425 793 425 793 444 773 c 128,-1,42
 463 753 463 753 471 730 c 128,-1,43
 479 707 479 707 479 686 c 256,44,45
 479 665 479 665 470 642.5 c 128,-1,46
 461 620 461 620 443.5 600.5 c 128,-1,47
 426 581 426 581 402 565.5 c 128,-1,48
 378 550 378 550 348 543 c 1,49,-1
 338 571 l 1,0,1
EndSplineSet
EndChar

StartChar: d
Encoding: 100 100 71
Width: 963
Flags: W
LayerCount: 2
Fore
SplineSet
203 0 m 0,0,1
 142 0 142 0 97.5 26 c 128,-1,2
 53 52 53 52 24 96.5 c 128,-1,3
 -5 141 -5 141 -19 199 c 128,-1,4
 -33 257 -33 257 -33 322 c 0,5,6
 -33 379 -33 379 -22 438 c 128,-1,7
 -11 497 -11 497 9.5 552.5 c 128,-1,8
 30 608 30 608 61 656.5 c 128,-1,9
 92 705 92 705 132 741 c 128,-1,10
 172 777 172 777 221.5 798 c 128,-1,11
 271 819 271 819 328 819 c 0,12,13
 393 819 393 819 438.5 790 c 128,-1,14
 484 761 484 761 512 719 c 1,15,16
 513 908 513 908 531 1053 c 128,-1,17
 549 1198 549 1198 581.5 1296 c 128,-1,18
 614 1394 614 1394 659 1444.5 c 128,-1,19
 704 1495 704 1495 758 1495 c 0,20,21
 777 1495 777 1495 792.5 1490.5 c 128,-1,22
 808 1486 808 1486 818.5 1474 c 128,-1,23
 829 1462 829 1462 834.5 1441.5 c 128,-1,24
 840 1421 840 1421 840 1389 c 0,25,26
 840 1323 840 1323 827 1237.5 c 128,-1,27
 814 1152 814 1152 790 1051.5 c 128,-1,28
 766 951 766 951 731.5 837.5 c 128,-1,29
 697 724 697 724 655 602 c 1,30,31
 656 495 656 495 658 417 c 128,-1,32
 660 339 660 339 663.5 285 c 128,-1,33
 667 231 667 231 672.5 197 c 128,-1,34
 678 163 678 163 685.5 144.5 c 128,-1,35
 693 126 693 126 703.5 119.5 c 128,-1,36
 714 113 714 113 727 113 c 0,37,38
 750 113 750 113 773.5 133.5 c 128,-1,39
 797 154 797 154 824 194.5 c 128,-1,40
 851 235 851 235 882.5 294 c 128,-1,41
 914 353 914 353 952 430 c 1,42,-1
 963 451 l 1,43,-1
 1004 420 l 1,44,-1
 993 399 l 1,45,46
 935 282 935 282 891 205.5 c 128,-1,47
 847 129 847 129 810.5 83 c 128,-1,48
 774 37 774 37 741 18.5 c 128,-1,49
 708 0 708 0 672 0 c 0,50,51
 637 0 637 0 611.5 17.5 c 128,-1,52
 586 35 586 35 568 72.5 c 128,-1,53
 550 110 550 110 539 168.5 c 128,-1,54
 528 227 528 227 522 309 c 1,55,56
 487 239 487 239 450 182 c 128,-1,57
 413 125 413 125 373.5 84.5 c 128,-1,58
 334 44 334 44 291 22 c 128,-1,59
 248 0 248 0 203 0 c 0,0,1
348 768 m 0,60,61
 293 768 293 768 252 734.5 c 128,-1,62
 211 701 211 701 184 647.5 c 128,-1,63
 157 594 157 594 144 527 c 128,-1,64
 131 460 131 460 131 393 c 0,65,66
 131 338 131 338 139.5 287.5 c 128,-1,67
 148 237 148 237 165.5 198 c 128,-1,68
 183 159 183 159 208 136 c 128,-1,69
 233 113 233 113 266 113 c 0,70,71
 298 113 298 113 328.5 129 c 128,-1,72
 359 145 359 145 389 180.5 c 128,-1,73
 419 216 419 216 450 272.5 c 128,-1,74
 481 329 481 329 516 410 c 1,75,76
 514 458 514 458 513 512.5 c 128,-1,77
 512 567 512 567 512 629 c 1,78,79
 490 694 490 694 445.5 731 c 128,-1,80
 401 768 401 768 348 768 c 0,60,61
768 1352 m 0,81,82
 768 1398 768 1398 757.5 1416 c 128,-1,83
 747 1434 747 1434 733 1434 c 0,84,85
 709 1434 709 1434 694 1387.5 c 128,-1,86
 679 1341 679 1341 670.5 1262 c 128,-1,87
 662 1183 662 1183 658.5 1079 c 128,-1,88
 655 975 655 975 655 860 c 2,89,-1
 655 750 l 1,90,91
 686 851 686 851 708 932 c 128,-1,92
 730 1013 730 1013 743 1083 c 128,-1,93
 756 1153 756 1153 762 1218 c 128,-1,94
 768 1283 768 1283 768 1352 c 0,81,82
EndSplineSet
EndChar

StartChar: e
Encoding: 101 101 72
Width: 610
Flags: W
LayerCount: 2
Fore
SplineSet
295 113 m 0,0,1
 330 113 330 113 366.5 131 c 128,-1,2
 403 149 403 149 440.5 187 c 128,-1,3
 478 225 478 225 518 285.5 c 128,-1,4
 558 346 558 346 600 430 c 1,5,-1
 610 451 l 1,6,-1
 651 420 l 1,7,-1
 641 399 l 1,8,9
 587 292 587 292 533.5 216 c 128,-1,10
 480 140 480 140 428.5 92 c 128,-1,11
 377 44 377 44 327 22 c 128,-1,12
 277 0 277 0 231 0 c 0,13,14
 166 0 166 0 115 27 c 128,-1,15
 64 54 64 54 29 100.5 c 128,-1,16
 -6 147 -6 147 -24.5 208.5 c 128,-1,17
 -43 270 -43 270 -43 338 c 0,18,19
 -43 446 -43 446 -13.5 534.5 c 128,-1,20
 16 623 16 623 65.5 686 c 128,-1,21
 115 749 115 749 178 784 c 128,-1,22
 241 819 241 819 309 819 c 0,23,24
 378 819 378 819 414.5 784 c 128,-1,25
 451 749 451 749 451 696 c 0,26,27
 451 645 451 645 422 600.5 c 128,-1,28
 393 556 393 556 343.5 513.5 c 128,-1,29
 294 471 294 471 229 429.5 c 128,-1,30
 164 388 164 388 92 344 c 1,31,32
 99 292 99 292 116 249.5 c 128,-1,33
 133 207 133 207 159 176.5 c 128,-1,34
 185 146 185 146 219 129.5 c 128,-1,35
 253 113 253 113 295 113 c 0,0,1
326 666 m 0,36,37
 326 706 326 706 304.5 729 c 128,-1,38
 283 752 283 752 252 752 c 0,39,40
 226 752 226 752 197 733.5 c 128,-1,41
 168 715 168 715 144 674.5 c 128,-1,42
 120 634 120 634 104 571 c 128,-1,43
 88 508 88 508 88 418 c 2,44,-1
 88 395 l 1,45,46
 122 413 122 413 163.5 442.5 c 128,-1,47
 205 472 205 472 241 508 c 128,-1,48
 277 544 277 544 301.5 584.5 c 128,-1,49
 326 625 326 625 326 666 c 0,36,37
EndSplineSet
EndChar

StartChar: f
Encoding: 102 102 73
Width: 428
Flags: W
LayerCount: 2
Fore
SplineSet
428 451 m 1,0,-1
 469 420 l 1,1,-1
 459 399 l 1,2,3
 422 325 422 325 361.5 281.5 c 128,-1,4
 301 238 301 238 229 238 c 0,5,6
 208 238 208 238 185.5 242.5 c 128,-1,7
 163 247 163 247 141 256 c 1,8,-1
 141 -502 l 1,9,-1
 39 -512 l 1,10,11
 27 -343 27 -343 18 -147 c 0,12,13
 14 -63 14 -63 10.5 35 c 128,-1,14
 7 133 7 133 4 241.5 c 128,-1,15
 1 350 1 350 -0.5 467.5 c 128,-1,16
 -2 585 -2 585 -2 707 c 0,17,18
 -2 899 -2 899 19 1046 c 128,-1,19
 40 1193 40 1193 75.5 1293 c 128,-1,20
 111 1393 111 1393 157 1444 c 128,-1,21
 203 1495 203 1495 254 1495 c 0,22,23
 273 1495 273 1495 290 1488.5 c 128,-1,24
 307 1482 307 1482 319.5 1468 c 128,-1,25
 332 1454 332 1454 339 1430 c 128,-1,26
 346 1406 346 1406 346 1372 c 0,27,28
 346 1286 346 1286 326 1182.5 c 128,-1,29
 306 1079 306 1079 275.5 973 c 128,-1,30
 245 867 245 867 209 765.5 c 128,-1,31
 173 664 173 664 141 582 c 1,32,-1
 141 358 l 1,33,34
 150 346 150 346 162.5 337 c 128,-1,35
 175 328 175 328 189.5 322.5 c 128,-1,36
 204 317 204 317 219 314 c 128,-1,37
 234 311 234 311 246 311 c 0,38,39
 298 311 298 311 342 338 c 128,-1,40
 386 365 386 365 418 430 c 2,41,-1
 428 451 l 1,0,-1
141 711 m 1,42,43
 166 782 166 782 188 859 c 128,-1,44
 210 936 210 936 227 1014.5 c 128,-1,45
 244 1093 244 1093 254 1171 c 128,-1,46
 264 1249 264 1249 264 1321 c 0,47,48
 264 1367 264 1367 255 1395 c 128,-1,49
 246 1423 246 1423 221 1423 c 0,50,51
 199 1423 199 1423 183.5 1378 c 128,-1,52
 168 1333 168 1333 158.5 1256.5 c 128,-1,53
 149 1180 149 1180 145 1077.5 c 128,-1,54
 141 975 141 975 141 860 c 2,55,-1
 141 711 l 1,42,43
EndSplineSet
EndChar

StartChar: g
Encoding: 103 103 74
Width: 850
Flags: W
LayerCount: 2
Fore
SplineSet
279 -379 m 0,0,1
 279 -335 279 -335 295.5 -290 c 128,-1,2
 312 -245 312 -245 341 -198 c 128,-1,3
 370 -151 370 -151 408.5 -100.5 c 128,-1,4
 447 -50 447 -50 492 4 c 1,5,-1
 492 193 l 1,6,7
 468 146 468 146 438 110 c 128,-1,8
 408 74 408 74 374.5 49.5 c 128,-1,9
 341 25 341 25 305.5 12.5 c 128,-1,10
 270 0 270 0 236 0 c 0,11,12
 189 0 189 0 145.5 23 c 128,-1,13
 102 46 102 46 68 92.5 c 128,-1,14
 34 139 34 139 14 210 c 128,-1,15
 -6 281 -6 281 -6 377 c 0,16,17
 -6 458 -6 458 13 537 c 128,-1,18
 32 616 32 616 70 678.5 c 128,-1,19
 108 741 108 741 164 780 c 128,-1,20
 220 819 220 819 295 819 c 0,21,22
 354 819 354 819 405.5 795 c 128,-1,23
 457 771 457 771 492 725 c 1,24,-1
 492 737 l 2,25,26
 492 756 492 756 503.5 771.5 c 128,-1,27
 515 787 515 787 532.5 797.5 c 128,-1,28
 550 808 550 808 569.5 813.5 c 128,-1,29
 589 819 589 819 604 819 c 0,30,31
 621 819 621 819 628 814.5 c 128,-1,32
 635 810 635 810 635 799 c 0,33,34
 635 783 635 783 631 727 c 128,-1,35
 627 671 627 671 627 563 c 2,36,-1
 627 129 l 1,37,38
 652 160 652 160 680 198 c 128,-1,39
 708 236 708 236 736 277.5 c 128,-1,40
 764 319 764 319 790.5 363 c 128,-1,41
 817 407 817 407 840 451 c 2,42,-1
 850 471 l 1,43,-1
 891 440 l 1,44,-1
 881 420 l 2,45,46
 857 372 857 372 825.5 320.5 c 128,-1,47
 794 269 794 269 759.5 219.5 c 128,-1,48
 725 170 725 170 690.5 124.5 c 128,-1,49
 656 79 656 79 627 43 c 1,50,-1
 627 -174 l 2,51,52
 627 -266 627 -266 610.5 -330.5 c 128,-1,53
 594 -395 594 -395 565.5 -435.5 c 128,-1,54
 537 -476 537 -476 497.5 -494 c 128,-1,55
 458 -512 458 -512 412 -512 c 0,56,57
 355 -512 355 -512 317 -476.5 c 128,-1,58
 279 -441 279 -441 279 -379 c 0,0,1
297 102 m 0,59,60
 328 102 328 102 358.5 120 c 128,-1,61
 389 138 389 138 415 166 c 128,-1,62
 441 194 441 194 461.5 227.5 c 128,-1,63
 482 261 482 261 492 293 c 1,64,-1
 492 575 l 2,65,66
 492 620 492 620 478 656.5 c 128,-1,67
 464 693 464 693 441 718.5 c 128,-1,68
 418 744 418 744 388.5 758 c 128,-1,69
 359 772 359 772 328 772 c 0,70,71
 280 772 280 772 244 743.5 c 128,-1,72
 208 715 208 715 184 668.5 c 128,-1,73
 160 622 160 622 148.5 562 c 128,-1,74
 137 502 137 502 137 440 c 0,75,76
 137 363 137 363 146.5 301 c 128,-1,77
 156 239 156 239 176 194.5 c 128,-1,78
 196 150 196 150 226 126 c 128,-1,79
 256 102 256 102 297 102 c 0,59,60
401 -451 m 0,80,81
 417 -451 417 -451 433.5 -444.5 c 128,-1,82
 450 -438 450 -438 463 -415 c 128,-1,83
 476 -392 476 -392 484 -347 c 128,-1,84
 492 -302 492 -302 492 -225 c 2,85,-1
 492 -76 l 1,86,87
 423 -159 423 -159 379.5 -233.5 c 128,-1,88
 336 -308 336 -308 336 -373 c 0,89,90
 336 -404 336 -404 353 -427.5 c 128,-1,91
 370 -451 370 -451 401 -451 c 0,80,81
EndSplineSet
EndChar

StartChar: h
Encoding: 104 104 75
Width: 786
Flags: W
LayerCount: 2
Fore
SplineSet
133 348 m 0,0,1
 133 299 133 299 130 244.5 c 128,-1,2
 127 190 127 190 117.5 135.5 c 128,-1,3
 108 81 108 81 90 29.5 c 128,-1,4
 72 -22 72 -22 41 -66 c 1,5,-1
 -35 -43 l 1,6,7
 -10 41 -10 41 -5 133 c 128,-1,8
 0 225 0 225 0 317 c 0,9,10
 0 417 0 417 -6.5 517 c 128,-1,11
 -13 617 -13 617 -21.5 717.5 c 128,-1,12
 -30 818 -30 818 -36.5 920 c 128,-1,13
 -43 1022 -43 1022 -43 1126 c 0,14,15
 -43 1189 -43 1189 -29.5 1236 c 128,-1,16
 -16 1283 -16 1283 6 1314 c 128,-1,17
 28 1345 28 1345 55 1360.5 c 128,-1,18
 82 1376 82 1376 109 1376 c 0,19,20
 147 1376 147 1376 169.5 1349 c 128,-1,21
 192 1322 192 1322 203 1276 c 128,-1,22
 214 1230 214 1230 214.5 1169 c 128,-1,23
 215 1108 215 1108 209 1040 c 128,-1,24
 203 972 203 972 192 901 c 128,-1,25
 181 830 181 830 168 763 c 128,-1,26
 155 696 155 696 142.5 638 c 128,-1,27
 130 580 130 580 121 539 c 1,28,29
 121 531 121 531 122 522.5 c 128,-1,30
 123 514 123 514 123 506 c 1,31,32
 144 553 144 553 174.5 607.5 c 128,-1,33
 205 662 205 662 243.5 709 c 128,-1,34
 282 756 282 756 327.5 787.5 c 128,-1,35
 373 819 373 819 424 819 c 0,36,37
 499 819 499 819 537 769 c 128,-1,38
 575 719 575 719 575 625 c 0,39,40
 575 560 575 560 568 500 c 128,-1,41
 561 440 561 440 552.5 384.5 c 128,-1,42
 544 329 544 329 537 277 c 128,-1,43
 530 225 530 225 530 174 c 0,44,45
 530 113 530 113 561 113 c 0,46,47
 576 113 576 113 599.5 139.5 c 128,-1,48
 623 166 623 166 652 210 c 128,-1,49
 681 254 681 254 713 311 c 128,-1,50
 745 368 745 368 776 430 c 1,51,-1
 786 451 l 1,52,-1
 827 420 l 1,53,-1
 817 399 l 1,54,55
 782 330 782 330 744 259 c 128,-1,56
 706 188 706 188 666 130.5 c 128,-1,57
 626 73 626 73 584.5 36.5 c 128,-1,58
 543 0 543 0 502 0 c 0,59,60
 484 0 484 0 465.5 6 c 128,-1,61
 447 12 447 12 432 27 c 128,-1,62
 417 42 417 42 407 67.5 c 128,-1,63
 397 93 397 93 397 133 c 256,64,65
 397 173 397 173 401 220 c 128,-1,66
 405 267 405 267 410.5 316.5 c 128,-1,67
 416 366 416 366 423 415 c 128,-1,68
 430 464 430 464 435.5 507 c 128,-1,69
 441 550 441 550 445 584.5 c 128,-1,70
 449 619 449 619 449 641 c 0,71,72
 449 698 449 698 433 724 c 128,-1,73
 417 750 417 750 385 750 c 0,74,75
 345 750 345 750 308 715 c 128,-1,76
 271 680 271 680 238.5 627.5 c 128,-1,77
 206 575 206 575 179 514.5 c 128,-1,78
 152 454 152 454 131 403 c 1,79,80
 131 388 131 388 132 373.5 c 128,-1,81
 133 359 133 359 133 348 c 0,0,1
68 1204 m 0,82,83
 68 1163 68 1163 71.5 1104.5 c 128,-1,84
 75 1046 75 1046 80.5 978 c 128,-1,85
 86 910 86 910 92.5 836 c 128,-1,86
 99 762 99 762 106 690 c 1,87,88
 117 746 117 746 128 813.5 c 128,-1,89
 139 881 139 881 147.5 949.5 c 128,-1,90
 156 1018 156 1018 160.5 1083 c 128,-1,91
 165 1148 165 1148 162.5 1198 c 128,-1,92
 160 1248 160 1248 149 1278.5 c 128,-1,93
 138 1309 138 1309 117 1309 c 0,94,95
 98 1309 98 1309 83 1286 c 128,-1,96
 68 1263 68 1263 68 1204 c 0,82,83
EndSplineSet
EndChar

StartChar: i
Encoding: 105 105 76
Width: 494
Flags: W
LayerCount: 2
Fore
SplineSet
51 440 m 1,0,-1
 41 420 l 1,1,-1
 31 399 l 1,2,-1
 -10 430 l 1,3,-1
 0 451 l 2,4,5
 25 502 25 502 41.5 553.5 c 128,-1,6
 58 605 58 605 68.5 650 c 128,-1,7
 79 695 79 695 86 729 c 128,-1,8
 93 763 93 763 100 778 c 0,9,10
 106 790 106 790 117.5 797.5 c 128,-1,11
 129 805 129 805 141.5 810 c 128,-1,12
 154 815 154 815 165.5 817 c 128,-1,13
 177 819 177 819 182 819 c 0,14,15
 204 819 204 819 211.5 810 c 128,-1,16
 219 801 219 801 219 778 c 0,17,18
 219 767 219 767 214.5 723.5 c 128,-1,19
 210 680 210 680 204.5 614.5 c 128,-1,20
 199 549 199 549 194.5 467.5 c 128,-1,21
 190 386 190 386 190 299 c 0,22,23
 190 236 190 236 196 199.5 c 128,-1,24
 202 163 202 163 211.5 145 c 128,-1,25
 221 127 221 127 232.5 122 c 128,-1,26
 244 117 244 117 256 117 c 0,27,28
 272 117 272 117 292 131 c 128,-1,29
 312 145 312 145 339 180.5 c 128,-1,30
 366 216 366 216 401 276.5 c 128,-1,31
 436 337 436 337 483 430 c 1,32,-1
 494 451 l 1,33,-1
 535 420 l 1,34,-1
 524 399 l 2,35,36
 486 325 486 325 448.5 253 c 128,-1,37
 411 181 411 181 372.5 125 c 128,-1,38
 334 69 334 69 295 34.5 c 128,-1,39
 256 0 256 0 217 0 c 0,40,41
 176 0 176 0 146.5 16.5 c 128,-1,42
 117 33 117 33 97.5 71 c 128,-1,43
 78 109 78 109 68.5 171.5 c 128,-1,44
 59 234 59 234 59 326 c 0,45,46
 59 352 59 352 59 380.5 c 128,-1,47
 59 409 59 409 61 440 c 1,48,-1
 51 440 l 1,0,-1
256 1024 m 0,49,50
 256 989 256 989 232.5 965.5 c 128,-1,51
 209 942 209 942 174 942 c 0,52,53
 140 942 140 942 116 965.5 c 128,-1,54
 92 989 92 989 92 1024 c 0,55,56
 92 1058 92 1058 116 1082 c 128,-1,57
 140 1106 140 1106 174 1106 c 0,58,59
 209 1106 209 1106 232.5 1082 c 128,-1,60
 256 1058 256 1058 256 1024 c 0,49,50
EndSplineSet
EndChar

StartChar: j
Encoding: 106 106 77
Width: 399
Flags: W
LayerCount: 2
Fore
SplineSet
61 778 m 0,0,1
 67 790 67 790 81.5 797.5 c 128,-1,2
 96 805 96 805 112.5 810 c 128,-1,3
 129 815 129 815 144 817 c 128,-1,4
 159 819 159 819 164 819 c 0,5,6
 186 819 186 819 190.5 810 c 128,-1,7
 195 801 195 801 195 778 c 2,8,-1
 195 131 l 1,9,10
 246 197 246 197 297.5 273.5 c 128,-1,11
 349 350 349 350 389 430 c 1,12,-1
 399 451 l 1,13,-1
 440 420 l 1,14,-1
 430 399 l 2,15,16
 410 359 410 359 382.5 315 c 128,-1,17
 355 271 355 271 324 225.5 c 128,-1,18
 293 180 293 180 259.5 135 c 128,-1,19
 226 90 226 90 195 49 c 1,20,-1
 195 -174 l 2,21,22
 195 -266 195 -266 178.5 -330.5 c 128,-1,23
 162 -395 162 -395 133 -435.5 c 128,-1,24
 104 -476 104 -476 65 -494 c 128,-1,25
 26 -512 26 -512 -20 -512 c 0,26,27
 -49 -512 -49 -512 -73.5 -503 c 128,-1,28
 -98 -494 -98 -494 -116 -476.5 c 128,-1,29
 -134 -459 -134 -459 -144 -434.5 c 128,-1,30
 -154 -410 -154 -410 -154 -379 c 0,31,32
 -154 -334 -154 -334 -137.5 -289 c 128,-1,33
 -121 -244 -121 -244 -91.5 -196 c 128,-1,34
 -62 -148 -62 -148 -23 -97.5 c 128,-1,35
 16 -47 16 -47 61 8 c 1,36,-1
 61 440 l 1,37,-1
 51 440 l 1,38,-1
 31 399 l 1,39,-1
 -10 430 l 1,40,-1
 0 451 l 2,41,42
 25 502 25 502 35.5 553.5 c 128,-1,43
 46 605 46 605 49.5 650 c 128,-1,44
 53 695 53 695 53.5 729 c 128,-1,45
 54 763 54 763 61 778 c 0,0,1
-31 -451 m 0,46,47
 -15 -451 -15 -451 1.5 -444.5 c 128,-1,48
 18 -438 18 -438 31 -415 c 128,-1,49
 44 -392 44 -392 52.5 -347 c 128,-1,50
 61 -302 61 -302 61 -225 c 2,51,-1
 61 -74 l 1,52,53
 27 -116 27 -116 -1.5 -155.5 c 128,-1,54
 -30 -195 -30 -195 -51 -232.5 c 128,-1,55
 -72 -270 -72 -270 -84 -305 c 128,-1,56
 -96 -340 -96 -340 -96 -373 c 0,57,58
 -96 -404 -96 -404 -79 -427.5 c 128,-1,59
 -62 -451 -62 -451 -31 -451 c 0,46,47
215 1024 m 0,60,61
 215 989 215 989 191.5 965.5 c 128,-1,62
 168 942 168 942 133 942 c 0,63,64
 99 942 99 942 75 965.5 c 128,-1,65
 51 989 51 989 51 1024 c 0,66,67
 51 1058 51 1058 75 1082 c 128,-1,68
 99 1106 99 1106 133 1106 c 0,69,70
 168 1106 168 1106 191.5 1082 c 128,-1,71
 215 1058 215 1058 215 1024 c 0,60,61
EndSplineSet
EndChar

StartChar: k
Encoding: 107 107 78
Width: 805
Flags: W
LayerCount: 2
Fore
SplineSet
846 420 m 1,0,-1
 836 399 l 1,1,2
 794 315 794 315 756 242 c 128,-1,3
 718 169 718 169 680 115 c 128,-1,4
 642 61 642 61 602.5 30.5 c 128,-1,5
 563 0 563 0 518 0 c 256,6,7
 473 0 473 0 430 24 c 128,-1,8
 387 48 387 48 344.5 91 c 128,-1,9
 302 134 302 134 259.5 191.5 c 128,-1,10
 217 249 217 249 172 317 c 1,11,-1
 137 311 l 1,12,13
 135 223 135 223 131 152.5 c 128,-1,14
 127 82 127 82 121 37 c 0,15,16
 118 17 118 17 104.5 8.5 c 128,-1,17
 91 0 91 0 68 0 c 0,18,19
 41 0 41 0 23 7 c 128,-1,20
 5 14 5 14 -5.5 24.5 c 128,-1,21
 -16 35 -16 35 -20.5 47.5 c 128,-1,22
 -25 60 -25 60 -25 72 c 0,23,24
 -25 136 -25 136 -4 231 c 1,25,-1
 -4 748 l 2,26,27
 -4 940 -4 940 16 1080.5 c 128,-1,28
 36 1221 36 1221 70 1313.5 c 128,-1,29
 104 1406 104 1406 149.5 1450.5 c 128,-1,30
 195 1495 195 1495 246 1495 c 0,31,32
 301 1495 301 1495 324.5 1459.5 c 128,-1,33
 348 1424 348 1424 348 1362 c 0,34,35
 348 1308 348 1308 332 1223.5 c 128,-1,36
 316 1139 316 1139 287.5 1038 c 128,-1,37
 259 937 259 937 221 827.5 c 128,-1,38
 183 718 183 718 139 614 c 1,39,-1
 139 592 l 1,40,41
 167 637 167 637 204.5 678 c 128,-1,42
 242 719 242 719 285 750.5 c 128,-1,43
 328 782 328 782 373.5 800.5 c 128,-1,44
 419 819 419 819 463 819 c 0,45,46
 502 819 502 819 534.5 808 c 128,-1,47
 567 797 567 797 591 776 c 128,-1,48
 615 755 615 755 628 723.5 c 128,-1,49
 641 692 641 692 641 651 c 0,50,51
 641 609 641 609 622.5 567 c 128,-1,52
 604 525 604 525 564.5 486 c 128,-1,53
 525 447 525 447 463 412.5 c 128,-1,54
 401 378 401 378 313 352 c 1,55,56
 319 343 319 343 333 322 c 128,-1,57
 347 301 347 301 366.5 274.5 c 128,-1,58
 386 248 386 248 409 219.5 c 128,-1,59
 432 191 432 191 456.5 167.5 c 128,-1,60
 481 144 481 144 505 128.5 c 128,-1,61
 529 113 529 113 549 113 c 0,62,63
 576 113 576 113 604 135.5 c 128,-1,64
 632 158 632 158 662.5 199.5 c 128,-1,65
 693 241 693 241 726 299.5 c 128,-1,66
 759 358 759 358 795 430 c 1,67,-1
 805 451 l 1,68,-1
 846 420 l 1,0,-1
139 506 m 1,69,70
 139 483 139 483 138.5 465.5 c 128,-1,71
 138 448 138 448 138 431.5 c 128,-1,72
 138 415 138 415 137.5 398 c 128,-1,73
 137 381 137 381 137 360 c 1,74,75
 239 375 239 375 309.5 400 c 128,-1,76
 380 425 380 425 424 458 c 128,-1,77
 468 491 468 491 488 530.5 c 128,-1,78
 508 570 508 570 508 614 c 0,79,80
 508 637 508 637 500.5 658.5 c 128,-1,81
 493 680 493 680 479 696.5 c 128,-1,82
 465 713 465 713 444.5 723 c 128,-1,83
 424 733 424 733 399 733 c 0,84,85
 364 733 364 733 328.5 714.5 c 128,-1,86
 293 696 293 696 258.5 665 c 128,-1,87
 224 634 224 634 193.5 592.5 c 128,-1,88
 163 551 163 551 139 506 c 1,69,70
227 1444 m 0,89,90
 206 1444 206 1444 190.5 1403 c 128,-1,91
 175 1362 175 1362 164 1275.5 c 128,-1,92
 153 1189 153 1189 146 1055.5 c 128,-1,93
 139 922 139 922 135 737 c 1,94,95
 177 848 177 848 203 945.5 c 128,-1,96
 229 1043 229 1043 243.5 1121.5 c 128,-1,97
 258 1200 258 1200 263 1258.5 c 128,-1,98
 268 1317 268 1317 268 1352 c 0,99,100
 268 1405 268 1405 258.5 1424.5 c 128,-1,101
 249 1444 249 1444 227 1444 c 0,89,90
EndSplineSet
EndChar

StartChar: l
Encoding: 108 108 79
Width: 436
Flags: W
LayerCount: 2
Fore
SplineSet
215 127 m 256,0,1
 233 127 233 127 256.5 150.5 c 128,-1,2
 280 174 280 174 307 215 c 128,-1,3
 334 256 334 256 364 311 c 128,-1,4
 394 366 394 366 426 430 c 1,5,-1
 436 451 l 1,6,-1
 477 420 l 1,7,-1
 467 399 l 1,8,9
 414 293 414 293 372.5 217.5 c 128,-1,10
 331 142 331 142 295 93.5 c 128,-1,11
 259 45 259 45 226.5 22.5 c 128,-1,12
 194 0 194 0 160 0 c 0,13,14
 115 0 115 0 82.5 29.5 c 128,-1,15
 50 59 50 59 28.5 128.5 c 128,-1,16
 7 198 7 198 -3.5 312 c 128,-1,17
 -14 426 -14 426 -14 594 c 0,18,19
 -14 832 -14 832 6 1002.5 c 128,-1,20
 26 1173 26 1173 60.5 1282.5 c 128,-1,21
 95 1392 95 1392 140.5 1443.5 c 128,-1,22
 186 1495 186 1495 236 1495 c 0,23,24
 266 1495 266 1495 286.5 1470.5 c 128,-1,25
 307 1446 307 1446 307 1382 c 0,26,27
 307 1332 307 1332 299 1268 c 128,-1,28
 291 1204 291 1204 278 1131 c 128,-1,29
 265 1058 265 1058 247 979.5 c 128,-1,30
 229 901 229 901 209 823.5 c 128,-1,31
 189 746 189 746 168 671.5 c 128,-1,32
 147 597 147 597 127 532 c 1,33,34
 133 409 133 409 140.5 330.5 c 128,-1,35
 148 252 148 252 158.5 207 c 128,-1,36
 169 162 169 162 183 144.5 c 128,-1,37
 197 127 197 127 215 127 c 256,0,1
242 1358 m 0,38,39
 242 1379 242 1379 237 1391 c 128,-1,40
 232 1403 232 1403 221 1403 c 256,41,42
 210 1403 210 1403 199 1372 c 128,-1,43
 188 1341 188 1341 177.5 1288 c 128,-1,44
 167 1235 167 1235 158.5 1165 c 128,-1,45
 150 1095 150 1095 143 1016.5 c 128,-1,46
 136 938 136 938 132 856 c 128,-1,47
 128 774 128 774 127 698 c 1,48,49
 151 786 151 786 171.5 878.5 c 128,-1,50
 192 971 192 971 208 1058 c 128,-1,51
 224 1145 224 1145 233 1222.5 c 128,-1,52
 242 1300 242 1300 242 1358 c 0,38,39
EndSplineSet
EndChar

StartChar: m
Encoding: 109 109 80
Width: 1167
Flags: W
LayerCount: 2
Fore
SplineSet
326 748 m 0,0,1
 297 748 297 748 270.5 727.5 c 128,-1,2
 244 707 244 707 220 671.5 c 128,-1,3
 196 636 196 636 173.5 588.5 c 128,-1,4
 151 541 151 541 129 487 c 1,5,-1
 129 475 l 1,6,7
 126 387 126 387 123.5 288 c 128,-1,8
 121 189 121 189 121 72 c 0,9,10
 121 52 121 52 107.5 38.5 c 128,-1,11
 94 25 94 25 76 16.5 c 128,-1,12
 58 8 58 8 39 4 c 128,-1,13
 20 0 20 0 8 0 c 0,14,15
 -7 0 -7 0 -20 9 c 128,-1,16
 -33 18 -33 18 -33 49 c 0,17,18
 -33 64 -33 64 -30 86.5 c 128,-1,19
 -27 109 -27 109 -22.5 135 c 128,-1,20
 -18 161 -18 161 -12.5 188.5 c 128,-1,21
 -7 216 -7 216 -2 240 c 1,22,23
 -2 325 -2 325 -2.5 393 c 128,-1,24
 -3 461 -3 461 -3 514 c 128,-1,25
 -3 567 -3 567 -3.5 607 c 128,-1,26
 -4 647 -4 647 -4 676 c 0,27,28
 -4 724 -4 724 -2.5 746.5 c 128,-1,29
 -1 769 -1 769 2 778 c 0,30,31
 7 792 7 792 20.5 800 c 128,-1,32
 34 808 34 808 49 812.5 c 128,-1,33
 64 817 64 817 79 818 c 128,-1,34
 94 819 94 819 102 819 c 0,35,36
 121 819 121 819 127 808 c 128,-1,37
 133 797 133 797 133 774 c 0,38,39
 133 722 133 722 133 680 c 128,-1,40
 133 638 133 638 131 596 c 1,41,42
 150 641 150 641 175.5 681.5 c 128,-1,43
 201 722 201 722 232 752.5 c 128,-1,44
 263 783 263 783 297.5 801 c 128,-1,45
 332 819 332 819 369 819 c 0,46,47
 414 819 414 819 443.5 800.5 c 128,-1,48
 473 782 473 782 490.5 749 c 128,-1,49
 508 716 508 716 516.5 671.5 c 128,-1,50
 525 627 525 627 528 575 c 1,51,52
 556 626 556 626 588.5 670.5 c 128,-1,53
 621 715 621 715 657.5 748 c 128,-1,54
 694 781 694 781 734.5 800 c 128,-1,55
 775 819 775 819 819 819 c 0,56,57
 895 819 895 819 930 771.5 c 128,-1,58
 965 724 965 724 965 643 c 0,59,60
 965 592 965 592 957 529 c 128,-1,61
 949 466 949 466 940 401.5 c 128,-1,62
 931 337 931 337 923 275 c 128,-1,63
 915 213 915 213 915 162 c 0,64,65
 915 100 915 100 946 100 c 0,66,67
 962 100 962 100 981 119.5 c 128,-1,68
 1000 139 1000 139 1024.5 179.5 c 128,-1,69
 1049 220 1049 220 1081.5 282 c 128,-1,70
 1114 344 1114 344 1157 430 c 1,71,-1
 1167 451 l 1,72,-1
 1208 420 l 1,73,-1
 1198 399 l 1,74,75
 1139 281 1139 281 1097.5 204 c 128,-1,76
 1056 127 1056 127 1023 81.5 c 128,-1,77
 990 36 990 36 960.5 18 c 128,-1,78
 931 0 931 0 895 0 c 0,79,80
 874 0 874 0 854 6 c 128,-1,81
 834 12 834 12 819 27 c 128,-1,82
 804 42 804 42 795 67.5 c 128,-1,83
 786 93 786 93 786 133 c 0,84,85
 786 193 786 193 794 268 c 128,-1,86
 802 343 802 343 812 418 c 128,-1,87
 822 493 822 493 830 559.5 c 128,-1,88
 838 626 838 626 838 668 c 0,89,90
 838 705 838 705 822 727.5 c 128,-1,91
 806 750 806 750 774 750 c 256,92,93
 742 750 742 750 707.5 725 c 128,-1,94
 673 700 673 700 640.5 660.5 c 128,-1,95
 608 621 608 621 579.5 572 c 128,-1,96
 551 523 551 523 530 475 c 1,97,98
 530 370 530 370 528 291.5 c 128,-1,99
 526 213 526 213 522.5 159 c 128,-1,100
 519 105 519 105 513 73.5 c 128,-1,101
 507 42 507 42 500 31 c 0,102,103
 495 24 495 24 483 18 c 128,-1,104
 471 12 471 12 456.5 8 c 128,-1,105
 442 4 442 4 428.5 2 c 128,-1,106
 415 0 415 0 408 0 c 0,107,108
 392 0 392 0 380.5 9.5 c 128,-1,109
 369 19 369 19 369 47 c 0,110,111
 369 60 369 60 371.5 82 c 128,-1,112
 374 104 374 104 378 131 c 128,-1,113
 382 158 382 158 387 189 c 128,-1,114
 392 220 392 220 397 252 c 1,115,116
 398 282 398 282 399 319 c 128,-1,117
 400 356 400 356 401 392.5 c 128,-1,118
 402 429 402 429 402.5 462.5 c 128,-1,119
 403 496 403 496 403 520 c 0,120,121
 403 571 403 571 400 613 c 128,-1,122
 397 655 397 655 388.5 685 c 128,-1,123
 380 715 380 715 365 731.5 c 128,-1,124
 350 748 350 748 326 748 c 0,0,1
EndSplineSet
EndChar

StartChar: n
Encoding: 110 110 81
Width: 809
Flags: W
LayerCount: 2
Fore
SplineSet
385 750 m 0,0,1
 357 750 357 750 322.5 725 c 128,-1,2
 288 700 288 700 253 660.5 c 128,-1,3
 218 621 218 621 185.5 572 c 128,-1,4
 153 523 153 523 129 475 c 1,5,6
 126 387 126 387 123.5 283 c 128,-1,7
 121 179 121 179 121 61 c 0,8,9
 121 46 121 46 107.5 34.5 c 128,-1,10
 94 23 94 23 76 15.5 c 128,-1,11
 58 8 58 8 39 4 c 128,-1,12
 20 0 20 0 8 0 c 0,13,14
 -7 0 -7 0 -20 9 c 128,-1,15
 -33 18 -33 18 -33 49 c 0,16,17
 -33 64 -33 64 -30 86.5 c 128,-1,18
 -27 109 -27 109 -22.5 135 c 128,-1,19
 -18 161 -18 161 -12.5 188.5 c 128,-1,20
 -7 216 -7 216 -2 240 c 1,21,-1
 -2 729 l 2,22,23
 -2 749 -2 749 -1.5 760.5 c 128,-1,24
 -1 772 -1 772 2 778 c 0,25,26
 8 792 8 792 23 800 c 128,-1,27
 38 808 38 808 55 812.5 c 128,-1,28
 72 817 72 817 88 818 c 128,-1,29
 104 819 104 819 113 819 c 0,30,31
 130 819 130 819 136.5 810 c 128,-1,32
 143 801 143 801 143 778 c 1,33,34
 143 781 143 781 138.5 729 c 128,-1,35
 134 677 134 677 131 580 c 1,36,37
 161 627 161 627 196 670 c 128,-1,38
 231 713 231 713 269 746 c 128,-1,39
 307 779 307 779 347.5 799 c 128,-1,40
 388 819 388 819 430 819 c 0,41,42
 505 819 505 819 540 771.5 c 128,-1,43
 575 724 575 724 575 643 c 0,44,45
 575 592 575 592 568.5 529.5 c 128,-1,46
 562 467 562 467 553.5 402.5 c 128,-1,47
 545 338 545 338 538.5 276.5 c 128,-1,48
 532 215 532 215 532 164 c 0,49,50
 532 98 532 98 573 98 c 0,51,52
 586 98 586 98 603.5 111.5 c 128,-1,53
 621 125 621 125 647.5 162 c 128,-1,54
 674 199 674 199 711 263.5 c 128,-1,55
 748 328 748 328 799 430 c 1,56,-1
 809 451 l 1,57,-1
 850 420 l 1,58,-1
 840 399 l 1,59,60
 780 279 780 279 733.5 202 c 128,-1,61
 687 125 687 125 649 80 c 128,-1,62
 611 35 611 35 578 17.5 c 128,-1,63
 545 0 545 0 512 0 c 0,64,65
 491 0 491 0 470 6 c 128,-1,66
 449 12 449 12 433 27 c 128,-1,67
 417 42 417 42 407 67.5 c 128,-1,68
 397 93 397 93 397 133 c 0,69,70
 397 193 397 193 405 268 c 128,-1,71
 413 343 413 343 423 418 c 128,-1,72
 433 493 433 493 441 559.5 c 128,-1,73
 449 626 449 626 449 668 c 0,74,75
 449 705 449 705 433 727.5 c 128,-1,76
 417 750 417 750 385 750 c 0,0,1
EndSplineSet
EndChar

StartChar: o
Encoding: 111 111 82
Width: 797
Flags: W
LayerCount: 2
Fore
SplineSet
838 420 m 1,0,-1
 827 399 l 1,1,2
 793 331 793 331 736.5 290.5 c 128,-1,3
 680 250 680 250 614 238 c 1,4,5
 596 187 596 187 567.5 143.5 c 128,-1,6
 539 100 539 100 502.5 68 c 128,-1,7
 466 36 466 36 420.5 18 c 128,-1,8
 375 0 375 0 322 0 c 0,9,10
 245 0 245 0 183.5 32.5 c 128,-1,11
 122 65 122 65 79 120.5 c 128,-1,12
 36 176 36 176 13 250.5 c 128,-1,13
 -10 325 -10 325 -10 410 c 0,14,15
 -10 484 -10 484 7 544.5 c 128,-1,16
 24 605 24 605 50 652.5 c 128,-1,17
 76 700 76 700 108 735.5 c 128,-1,18
 140 771 140 771 171 794 c 128,-1,19
 202 817 202 817 227.5 828.5 c 128,-1,20
 253 840 253 840 266 840 c 1,21,-1
 279 805 l 1,22,23
 238 775 238 775 206 721 c 0,24,25
 178 675 178 675 155.5 599 c 128,-1,26
 133 523 133 523 133 410 c 0,27,28
 133 341 133 341 146 276 c 128,-1,29
 159 211 159 211 184 161 c 128,-1,30
 209 111 209 111 245.5 81 c 128,-1,31
 282 51 282 51 328 51 c 0,32,33
 391 51 391 51 432.5 101.5 c 128,-1,34
 474 152 474 152 494 240 c 1,35,36
 442 251 442 251 395 281 c 128,-1,37
 348 311 348 311 312 355.5 c 128,-1,38
 276 400 276 400 254.5 458 c 128,-1,39
 233 516 233 516 233 584 c 0,40,41
 233 640 233 640 247.5 682.5 c 128,-1,42
 262 725 262 725 286 753.5 c 128,-1,43
 310 782 310 782 341.5 796.5 c 128,-1,44
 373 811 373 811 408 811 c 0,45,46
 449 811 449 811 492 787.5 c 128,-1,47
 535 764 535 764 570 717.5 c 128,-1,48
 605 671 605 671 627 601 c 128,-1,49
 649 531 649 531 649 438 c 0,50,51
 649 403 649 403 645 369 c 128,-1,52
 641 335 641 335 633 303 c 1,53,54
 681 317 681 317 720.5 348 c 128,-1,55
 760 379 760 379 786 430 c 2,56,-1
 797 451 l 1,57,-1
 838 420 l 1,0,-1
299 592 m 0,58,59
 299 533 299 533 315.5 483.5 c 128,-1,60
 332 434 332 434 360 396.5 c 128,-1,61
 388 359 388 359 425 334 c 128,-1,62
 462 309 462 309 504 299 c 1,63,64
 509 327 509 327 510.5 357.5 c 128,-1,65
 512 388 512 388 512 420 c 0,66,67
 512 491 512 491 501 548.5 c 128,-1,68
 490 606 490 606 472 646.5 c 128,-1,69
 454 687 454 687 430 709 c 128,-1,70
 406 731 406 731 381 731 c 0,71,72
 347 731 347 731 323 694.5 c 128,-1,73
 299 658 299 658 299 592 c 0,58,59
EndSplineSet
EndChar

StartChar: p
Encoding: 112 112 83
Width: 778
Flags: W
LayerCount: 2
Fore
SplineSet
131 631 m 1,0,1
 148 668 148 668 172 702 c 128,-1,2
 196 736 196 736 227 762 c 128,-1,3
 258 788 258 788 296 803.5 c 128,-1,4
 334 819 334 819 379 819 c 0,5,6
 439 819 439 819 485 790.5 c 128,-1,7
 531 762 531 762 562 714.5 c 128,-1,8
 593 667 593 667 609 604.5 c 128,-1,9
 625 542 625 542 625 475 c 0,10,11
 625 372 625 372 604.5 289.5 c 128,-1,12
 584 207 584 207 549 145 c 1,13,14
 603 186 603 186 658.5 254 c 128,-1,15
 714 322 714 322 768 430 c 1,16,-1
 778 451 l 1,17,-1
 819 420 l 1,18,-1
 809 399 l 1,19,20
 763 307 763 307 708 233 c 128,-1,21
 653 159 653 159 591.5 107.5 c 128,-1,22
 530 56 530 56 463 28 c 128,-1,23
 396 0 396 0 326 0 c 0,24,25
 264 0 264 0 211.5 27 c 128,-1,26
 159 54 159 54 131 94 c 1,27,-1
 131 -379 l 2,28,29
 131 -417 131 -417 125.5 -442.5 c 128,-1,30
 120 -468 120 -468 107.5 -483.5 c 128,-1,31
 95 -499 95 -499 74 -505.5 c 128,-1,32
 53 -512 53 -512 23 -512 c 0,33,34
 0 -512 0 -512 -9 -504.5 c 128,-1,35
 -18 -497 -18 -497 -18 -481 c 0,36,37
 -18 -474 -18 -474 -16 -456 c 128,-1,38
 -14 -438 -14 -438 -12 -401.5 c 128,-1,39
 -10 -365 -10 -365 -8 -305.5 c 128,-1,40
 -6 -246 -6 -246 -6 -154 c 2,41,-1
 -6 399 l 2,42,43
 -6 510 -6 510 -7 576.5 c 128,-1,44
 -8 643 -8 643 -9 680.5 c 128,-1,45
 -10 718 -10 718 -11 734 c 128,-1,46
 -12 750 -12 750 -12 762 c 0,47,48
 -12 772 -12 772 -2 782 c 128,-1,49
 8 792 8 792 24 800 c 128,-1,50
 40 808 40 808 58.5 813.5 c 128,-1,51
 77 819 77 819 94 819 c 256,52,53
 111 819 111 819 121 810 c 128,-1,54
 131 801 131 801 131 778 c 2,55,-1
 131 631 l 1,0,1
326 731 m 0,56,57
 284 731 284 731 248.5 702 c 128,-1,58
 213 673 213 673 187.5 627.5 c 128,-1,59
 162 582 162 582 147.5 527 c 128,-1,60
 133 472 133 472 133 420 c 2,61,-1
 133 305 l 2,62,63
 133 251 133 251 147.5 207 c 128,-1,64
 162 163 162 163 186 132 c 128,-1,65
 210 101 210 101 242.5 84.5 c 128,-1,66
 275 68 275 68 311 68 c 0,67,68
 396 68 396 68 439.5 156 c 128,-1,69
 483 244 483 244 483 432 c 0,70,71
 483 496 483 496 474 551 c 128,-1,72
 465 606 465 606 446 646 c 128,-1,73
 427 686 427 686 397 708.5 c 128,-1,74
 367 731 367 731 326 731 c 0,56,57
EndSplineSet
EndChar

StartChar: q
Encoding: 113 113 84
Width: 829
Flags: W
LayerCount: 2
Fore
SplineSet
494 168 m 1,0,1
 455 86 455 86 395.5 43 c 128,-1,2
 336 0 336 0 264 0 c 0,3,4
 199 0 199 0 148.5 28.5 c 128,-1,5
 98 57 98 57 63.5 106.5 c 128,-1,6
 29 156 29 156 11.5 221 c 128,-1,7
 -6 286 -6 286 -6 360 c 0,8,9
 -6 476 -6 476 21.5 562.5 c 128,-1,10
 49 649 49 649 92.5 706 c 128,-1,11
 136 763 136 763 190 791 c 128,-1,12
 244 819 244 819 297 819 c 0,13,14
 335 819 335 819 367 807 c 128,-1,15
 399 795 399 795 424.5 776 c 128,-1,16
 450 757 450 757 468 733.5 c 128,-1,17
 486 710 486 710 496 688 c 1,18,19
 498 728 498 728 504 753.5 c 128,-1,20
 510 779 510 779 521.5 793.5 c 128,-1,21
 533 808 533 808 551 813.5 c 128,-1,22
 569 819 569 819 596 819 c 0,23,24
 619 819 619 819 628 811.5 c 128,-1,25
 637 804 637 804 637 788 c 0,26,27
 637 780 637 780 635.5 764.5 c 128,-1,28
 634 749 634 749 632 722 c 128,-1,29
 630 695 630 695 628.5 656 c 128,-1,30
 627 617 627 617 627 563 c 2,31,-1
 627 125 l 1,32,33
 646 147 646 147 667 174.5 c 128,-1,34
 688 202 688 202 711.5 238 c 128,-1,35
 735 274 735 274 761.5 321 c 128,-1,36
 788 368 788 368 819 430 c 1,37,-1
 829 451 l 1,38,-1
 870 420 l 1,39,-1
 860 399 l 1,40,41
 798 278 798 278 736.5 188 c 128,-1,42
 675 98 675 98 627 41 c 1,43,-1
 627 -328 l 2,44,45
 627 -385 627 -385 622.5 -421 c 128,-1,46
 618 -457 618 -457 606.5 -477.5 c 128,-1,47
 595 -498 595 -498 575 -505 c 128,-1,48
 555 -512 555 -512 524 -512 c 0,49,50
 501 -512 501 -512 492 -504.5 c 128,-1,51
 483 -497 483 -497 483 -481 c 0,52,53
 483 -474 483 -474 484.5 -458 c 128,-1,54
 486 -442 486 -442 488.5 -415 c 128,-1,55
 491 -388 491 -388 492.5 -349 c 128,-1,56
 494 -310 494 -310 494 -256 c 2,57,-1
 494 168 l 1,0,1
496 471 m 2,58,59
 496 513 496 513 484 563.5 c 128,-1,60
 472 614 472 614 449 657 c 128,-1,61
 426 700 426 700 391 729 c 128,-1,62
 356 758 356 758 311 758 c 0,63,64
 276 758 276 758 243 741.5 c 128,-1,65
 210 725 210 725 184.5 686.5 c 128,-1,66
 159 648 159 648 143 584 c 128,-1,67
 127 520 127 520 127 426 c 0,68,69
 127 344 127 344 143 285 c 128,-1,70
 159 226 159 226 185.5 187.5 c 128,-1,71
 212 149 212 149 245 131 c 128,-1,72
 278 113 278 113 313 113 c 0,73,74
 353 113 353 113 386 129 c 128,-1,75
 419 145 419 145 443 182 c 128,-1,76
 467 219 467 219 480.5 279 c 128,-1,77
 494 339 494 339 496 426 c 1,78,-1
 496 471 l 2,58,59
EndSplineSet
EndChar

StartChar: r
Encoding: 114 114 85
Width: 604
Flags: W
LayerCount: 2
Fore
SplineSet
-10 430 m 1,0,-1
 0 451 l 2,1,2
 15 481 15 481 27.5 513 c 128,-1,3
 40 545 40 545 49 573.5 c 128,-1,4
 58 602 58 602 63 624.5 c 128,-1,5
 68 647 68 647 70 659 c 1,6,7
 44 662 44 662 20 672 c 128,-1,8
 -4 682 -4 682 -22 699 c 128,-1,9
 -40 716 -40 716 -50.5 739 c 128,-1,10
 -61 762 -61 762 -61 791 c 0,11,12
 -61 814 -61 814 -53 832 c 128,-1,13
 -45 850 -45 850 -31.5 862 c 128,-1,14
 -18 874 -18 874 -1.5 880.5 c 128,-1,15
 15 887 15 887 33 887 c 0,16,17
 57 887 57 887 75 877 c 128,-1,18
 93 867 93 867 105 850.5 c 128,-1,19
 117 834 117 834 123 812.5 c 128,-1,20
 129 791 129 791 129 768 c 1,21,22
 157 768 157 768 189.5 776 c 128,-1,23
 222 784 222 784 255 793.5 c 128,-1,24
 288 803 288 803 320 811 c 128,-1,25
 352 819 352 819 379 819 c 0,26,27
 402 819 402 819 416 809.5 c 128,-1,28
 430 800 430 800 430 778 c 0,29,30
 430 762 430 762 420.5 725 c 128,-1,31
 411 688 411 688 397 639 c 128,-1,32
 383 590 383 590 366.5 532.5 c 128,-1,33
 350 475 350 475 336 416.5 c 128,-1,34
 322 358 322 358 312.5 303 c 128,-1,35
 303 248 303 248 303 205 c 0,36,37
 303 151 303 151 315 132 c 128,-1,38
 327 113 327 113 358 113 c 0,39,40
 371 113 371 113 390.5 124.5 c 128,-1,41
 410 136 410 136 438 169.5 c 128,-1,42
 466 203 466 203 504.5 265.5 c 128,-1,43
 543 328 543 328 594 430 c 1,44,-1
 604 451 l 1,45,-1
 645 420 l 1,46,-1
 635 399 l 1,47,48
 575 279 575 279 528 202 c 128,-1,49
 481 125 481 125 441.5 80 c 128,-1,50
 402 35 402 35 367 17.5 c 128,-1,51
 332 0 332 0 297 0 c 0,52,53
 238 0 238 0 201 45 c 128,-1,54
 164 90 164 90 164 184 c 0,55,56
 164 235 164 235 178 290 c 128,-1,57
 192 345 192 345 213 399.5 c 128,-1,58
 234 454 234 454 260 507 c 128,-1,59
 286 560 286 560 309.5 607.5 c 128,-1,60
 333 655 333 655 352 696 c 128,-1,61
 371 737 371 737 379 768 c 1,62,-1
 373 774 l 1,63,64
 357 774 357 774 330 757 c 128,-1,65
 303 740 303 740 269.5 718.5 c 128,-1,66
 236 697 236 697 198 678 c 128,-1,67
 160 659 160 659 121 655 c 1,68,69
 119 641 119 641 112.5 614 c 128,-1,70
 106 587 106 587 95 554 c 128,-1,71
 84 521 84 521 70 486 c 128,-1,72
 56 451 56 451 41 420 c 2,73,-1
 31 399 l 1,74,-1
 -10 430 l 1,0,-1
39 831 m 0,75,76
 30 831 30 831 24 825 c 128,-1,77
 18 819 18 819 18 811 c 0,78,79
 18 799 18 799 24 790.5 c 128,-1,80
 30 782 30 782 39 776.5 c 128,-1,81
 48 771 48 771 57.5 768.5 c 128,-1,82
 67 766 67 766 74 766 c 1,83,84
 74 794 74 794 65 812.5 c 128,-1,85
 56 831 56 831 39 831 c 0,75,76
EndSplineSet
EndChar

StartChar: s
Encoding: 115 115 86
Width: 666
Flags: W
LayerCount: 2
Fore
SplineSet
584 348 m 0,0,1
 584 280 584 280 563.5 217.5 c 128,-1,2
 543 155 543 155 503.5 106.5 c 128,-1,3
 464 58 464 58 405.5 29 c 128,-1,4
 347 0 347 0 272 0 c 0,5,6
 218 0 218 0 175.5 17.5 c 128,-1,7
 133 35 133 35 103 64.5 c 128,-1,8
 73 94 73 94 57 131.5 c 128,-1,9
 41 169 41 169 41 209 c 256,10,11
 41 249 41 249 56.5 283.5 c 128,-1,12
 72 318 72 318 98.5 342.5 c 128,-1,13
 125 367 125 367 159 381 c 128,-1,14
 193 395 193 395 231 395 c 0,15,16
 255 395 255 395 281 389 c 1,17,-1
 281 360 l 1,18,19
 249 360 249 360 218.5 347 c 128,-1,20
 188 334 188 334 164.5 311.5 c 128,-1,21
 141 289 141 289 127 257.5 c 128,-1,22
 113 226 113 226 113 190 c 0,23,24
 113 124 113 124 158.5 84.5 c 128,-1,25
 204 45 204 45 283 45 c 0,26,27
 323 45 323 45 356 60.5 c 128,-1,28
 389 76 389 76 412.5 103.5 c 128,-1,29
 436 131 436 131 448.5 169 c 128,-1,30
 461 207 461 207 461 252 c 0,31,32
 461 295 461 295 444 332 c 128,-1,33
 427 369 427 369 399 402 c 128,-1,34
 371 435 371 435 335.5 464 c 128,-1,35
 300 493 300 493 263.5 519.5 c 128,-1,36
 227 546 227 546 192 571 c 128,-1,37
 157 596 157 596 131 621 c 1,38,-1
 31 399 l 1,39,-1
 -10 430 l 1,40,-1
 92 653 l 1,41,42
 55 688 55 688 37.5 719.5 c 128,-1,43
 20 751 20 751 20 795 c 0,44,45
 20 819 20 819 28.5 840.5 c 128,-1,46
 37 862 37 862 51.5 877.5 c 128,-1,47
 66 893 66 893 85 902 c 128,-1,48
 104 911 104 911 125 911 c 0,49,50
 163 911 163 911 182 889.5 c 128,-1,51
 201 868 201 868 201 836 c 0,52,53
 201 821 201 821 198 804.5 c 128,-1,54
 195 788 195 788 190.5 771.5 c 128,-1,55
 186 755 186 755 181.5 741 c 128,-1,56
 177 727 177 727 174 717 c 1,57,58
 204 694 204 694 246 672.5 c 128,-1,59
 288 651 288 651 333.5 628 c 128,-1,60
 379 605 379 605 424 578 c 128,-1,61
 469 551 469 551 504.5 518 c 128,-1,62
 540 485 540 485 562 443 c 128,-1,63
 584 401 584 401 584 348 c 0,0,1
127 866 m 256,64,65
 113 866 113 866 104.5 856.5 c 128,-1,66
 96 847 96 847 96 831 c 0,67,68
 96 813 96 813 105 791 c 128,-1,69
 114 769 114 769 137 748 c 1,70,71
 147 769 147 769 152.5 789 c 128,-1,72
 158 809 158 809 158 829 c 0,73,74
 158 845 158 845 149.5 855.5 c 128,-1,75
 141 866 141 866 127 866 c 256,64,65
EndSplineSet
EndChar

StartChar: t
Encoding: 116 116 87
Width: 477
Flags: W
LayerCount: 2
Fore
SplineSet
-4 328 m 0,0,1
 -4 434 -4 434 4 541 c 128,-1,2
 12 648 12 648 25 758 c 1,3,-1
 -66 758 l 1,4,-1
 -55 819 l 1,5,-1
 33 819 l 1,6,7
 47 921 47 921 61.5 1023.5 c 128,-1,8
 76 1126 76 1126 88 1229 c 1,9,-1
 190 1229 l 1,10,11
 188 1207 188 1207 184.5 1165.5 c 128,-1,12
 181 1124 181 1124 176.5 1069.5 c 128,-1,13
 172 1015 172 1015 168 950.5 c 128,-1,14
 164 886 164 886 160 819 c 1,15,-1
 354 819 l 1,16,-1
 344 758 l 1,17,-1
 156 758 l 1,18,19
 152 701 152 701 149 646 c 128,-1,20
 146 591 146 591 143.5 541.5 c 128,-1,21
 141 492 141 492 140 450.5 c 128,-1,22
 139 409 139 409 139 379 c 0,23,24
 139 303 139 303 143.5 252 c 128,-1,25
 148 201 148 201 157.5 170 c 128,-1,26
 167 139 167 139 181.5 126 c 128,-1,27
 196 113 196 113 215 113 c 0,28,29
 240 113 240 113 270.5 138.5 c 128,-1,30
 301 164 301 164 334 207 c 128,-1,31
 367 250 367 250 401 307.5 c 128,-1,32
 435 365 435 365 467 430 c 2,33,-1
 477 451 l 1,34,-1
 518 420 l 1,35,-1
 508 399 l 1,36,37
 462 306 462 306 416.5 232 c 128,-1,38
 371 158 371 158 327 106.5 c 128,-1,39
 283 55 283 55 241 27.5 c 128,-1,40
 199 0 199 0 160 0 c 256,41,42
 121 0 121 0 90.5 18 c 128,-1,43
 60 36 60 36 39 75.5 c 128,-1,44
 18 115 18 115 7 177 c 128,-1,45
 -4 239 -4 239 -4 328 c 0,0,1
EndSplineSet
EndChar

StartChar: u
Encoding: 117 117 88
Width: 809
Flags: W
LayerCount: 2
Fore
SplineSet
410 217 m 1,0,1
 405 209 405 209 395.5 189.5 c 128,-1,2
 386 170 386 170 371.5 146 c 128,-1,3
 357 122 357 122 337.5 96 c 128,-1,4
 318 70 318 70 293 49 c 128,-1,5
 268 28 268 28 237.5 14 c 128,-1,6
 207 0 207 0 170 0 c 0,7,8
 141 0 141 0 110 12 c 128,-1,9
 79 24 79 24 52.5 56 c 128,-1,10
 26 88 26 88 9 143.5 c 128,-1,11
 -8 199 -8 199 -8 287 c 0,12,13
 -8 371 -8 371 -2 455.5 c 128,-1,14
 4 540 4 540 12.5 610 c 128,-1,15
 21 680 21 680 29 727 c 128,-1,16
 37 774 37 774 41 784 c 0,17,18
 45 793 45 793 57 800 c 128,-1,19
 69 807 69 807 84.5 811 c 128,-1,20
 100 815 100 815 116.5 817 c 128,-1,21
 133 819 133 819 145 819 c 0,22,23
 161 819 161 819 170.5 811 c 128,-1,24
 180 803 180 803 180 784 c 0,25,26
 180 775 180 775 176.5 748.5 c 128,-1,27
 173 722 173 722 168 684 c 128,-1,28
 163 646 163 646 157.5 600 c 128,-1,29
 152 554 152 554 147 506.5 c 128,-1,30
 142 459 142 459 138.5 412.5 c 128,-1,31
 135 366 135 366 135 328 c 0,32,33
 135 219 135 219 158.5 166 c 128,-1,34
 182 113 182 113 236 113 c 0,35,36
 282 113 282 113 329.5 180 c 128,-1,37
 377 247 377 247 412 375 c 1,38,39
 417 429 417 429 421.5 490.5 c 128,-1,40
 426 552 426 552 430 607.5 c 128,-1,41
 434 663 434 663 437.5 707 c 128,-1,42
 441 751 441 751 444 770 c 0,43,44
 447 784 447 784 460 793.5 c 128,-1,45
 473 803 473 803 489.5 808.5 c 128,-1,46
 506 814 506 814 521.5 816.5 c 128,-1,47
 537 819 537 819 545 819 c 0,48,49
 562 819 562 819 568.5 811.5 c 128,-1,50
 575 804 575 804 575 788 c 0,51,52
 575 774 575 774 572.5 734.5 c 128,-1,53
 570 695 570 695 566.5 642.5 c 128,-1,54
 563 590 563 590 559 530 c 128,-1,55
 555 470 555 470 551.5 414.5 c 128,-1,56
 548 359 548 359 545.5 314 c 128,-1,57
 543 269 543 269 543 246 c 0,58,59
 543 178 543 178 550.5 139 c 128,-1,60
 558 100 558 100 584 100 c 0,61,62
 603 100 603 100 625.5 124.5 c 128,-1,63
 648 149 648 149 674.5 193 c 128,-1,64
 701 237 701 237 732 297.5 c 128,-1,65
 763 358 763 358 799 430 c 1,66,-1
 809 451 l 1,67,-1
 850 420 l 1,68,-1
 840 399 l 1,69,70
 792 304 792 304 755.5 229.5 c 128,-1,71
 719 155 719 155 686 104 c 128,-1,72
 653 53 653 53 619 26.5 c 128,-1,73
 585 0 585 0 543 0 c 0,74,75
 504 0 504 0 478.5 15 c 128,-1,76
 453 30 453 30 438 58 c 128,-1,77
 423 86 423 86 416.5 126 c 128,-1,78
 410 166 410 166 410 217 c 1,0,1
EndSplineSet
EndChar

StartChar: v
Encoding: 118 118 89
Width: 694
Flags: W
LayerCount: 2
Fore
SplineSet
168 758 m 0,0,1
 168 719 168 719 161.5 659 c 128,-1,2
 155 599 155 599 147.5 525.5 c 128,-1,3
 140 452 140 452 133.5 368 c 128,-1,4
 127 284 127 284 127 197 c 0,5,6
 127 127 127 127 150 100.5 c 128,-1,7
 173 74 173 74 213 74 c 0,8,9
 241 74 241 74 270 89 c 128,-1,10
 299 104 299 104 325.5 130 c 128,-1,11
 352 156 352 156 375 192 c 128,-1,12
 398 228 398 228 416 270 c 1,13,14
 359 305 359 305 320 384.5 c 128,-1,15
 281 464 281 464 281 586 c 0,16,17
 281 647 281 647 294 689.5 c 128,-1,18
 307 732 307 732 328.5 759 c 128,-1,19
 350 786 350 786 377 798.5 c 128,-1,20
 404 811 404 811 432 811 c 0,21,22
 457 811 457 811 481 801 c 128,-1,23
 505 791 505 791 523 768.5 c 128,-1,24
 541 746 541 746 552 709 c 128,-1,25
 563 672 563 672 563 618 c 0,26,27
 563 550 563 550 546.5 465.5 c 128,-1,28
 530 381 530 381 498 297 c 1,29,30
 503 297 503 297 508 296 c 128,-1,31
 513 295 513 295 518 295 c 0,32,33
 574 295 574 295 613.5 331.5 c 128,-1,34
 653 368 653 368 684 430 c 1,35,-1
 694 451 l 1,36,-1
 735 420 l 1,37,-1
 725 399 l 1,38,39
 685 321 685 321 628.5 282.5 c 128,-1,40
 572 244 572 244 512 244 c 0,41,42
 503 244 503 244 492.5 245 c 128,-1,43
 482 246 482 246 477 248 c 1,44,45
 454 197 454 197 423 152 c 128,-1,46
 392 107 392 107 354.5 73.5 c 128,-1,47
 317 40 317 40 272.5 20 c 128,-1,48
 228 0 228 0 178 0 c 0,49,50
 137 0 137 0 102 12.5 c 128,-1,51
 67 25 67 25 40.5 58.5 c 128,-1,52
 14 92 14 92 -1 149.5 c 128,-1,53
 -16 207 -16 207 -16 297 c 0,54,55
 -16 337 -16 337 -14 386.5 c 128,-1,56
 -12 436 -12 436 -8.5 487 c 128,-1,57
 -5 538 -5 538 -0.5 587 c 128,-1,58
 4 636 4 636 9 676.5 c 128,-1,59
 14 717 14 717 19 744.5 c 128,-1,60
 24 772 24 772 29 780 c 0,61,62
 41 802 41 802 69 810.5 c 128,-1,63
 97 819 97 819 123 819 c 0,64,65
 141 819 141 819 154.5 806 c 128,-1,66
 168 793 168 793 168 758 c 0,0,1
336 582 m 0,67,68
 336 486 336 486 364.5 420.5 c 128,-1,69
 393 355 393 355 436 324 c 1,70,71
 458 387 458 387 470.5 454.5 c 128,-1,72
 483 522 483 522 483 584 c 0,73,74
 483 624 483 624 476.5 651.5 c 128,-1,75
 470 679 470 679 460 696 c 128,-1,76
 450 713 450 713 436.5 720 c 128,-1,77
 423 727 423 727 410 727 c 0,78,79
 396 727 396 727 383 719.5 c 128,-1,80
 370 712 370 712 359.5 695 c 128,-1,81
 349 678 349 678 342.5 650 c 128,-1,82
 336 622 336 622 336 582 c 0,67,68
EndSplineSet
EndChar

